<?xml version="1.0" encoding="utf-8"?>
<!-- Generator: Adobe Illustrator 21.0.0, SVG Export Plug-In . SVG Version: 6.00 Build 0)  -->
<svg version="1.1" id="Layer_1" xmlns="http://www.w3.org/2000/svg" xmlns:xlink="http://www.w3.org/1999/xlink" x="0px" y="0px"
	 viewBox="0 0 296.6 172" style="enable-background:new 0 0 296.6 172;" xml:space="preserve">
<style type="text/css">
	.st0{fill:#FFFFFF;}
</style>
<g>
	<g>
		<circle cx="50.8" cy="49.9" r="48.7"/>
	</g>
	<g>
		<circle cx="148.3" cy="49.9" r="48.7"/>
	</g>
	<g>
		<circle cx="245.8" cy="49.9" r="48.7"/>
	</g>
	<g>
		<path class="st0" d="M39.6,76.5h-7.2V23.3h36.8v6.4H39.6V46h26.1v6.4H39.6V76.5z"/>
	</g>
	<g>
		<path class="st0" d="M126.7,23.3h43.2v6.4h-18v46.8h-7.2V29.7h-18V23.3z"/>
	</g>
	<g>
		<path d="M22.5,116.3h23.4c9.9,0,15,6.2,15,13.4c0,3.5-1.3,8.4-7.1,11.1c3.5,1.4,9.6,3.9,9.6,13c0,8.5-6.3,15.7-18.1,15.7H22.5
			V116.3z M29.7,138.8h13c6.9,0,11.1-2.1,11.1-8.6c0-5-3-7.8-11-7.8h-13L29.7,138.8L29.7,138.8z M29.7,163.3H45
			c7.5,0,11.3-3.8,11.3-9.7c0-7.5-6.6-9-12.5-9H29.7V163.3z"/>
		<path d="M80.2,169.5H73v-53.2h24.6c8.7,0,17.5,3,17.5,14.3c0,7.9-4,10.7-7.4,12.8c3,1.3,6.1,2.6,6.4,10l0.4,9.6
			c0.1,3,0.4,4.1,2.7,5.3v1.2h-8.8c-1-3.3-1.3-11.3-1.3-13.3c0-4.4-0.9-9.5-9.5-9.5H80.2V169.5z M80.2,140.5h16.7
			c5.3,0,10.8-1.3,10.8-9.2c0-8.2-6-8.9-9.6-8.9H80.2V140.5z"/>
		<path d="M134,154l-5.6,15.5H121l20-53.2h8.2l19.3,53.2h-7.9l-5.3-15.5H134z M152.8,147.6l-7.9-23.4h-0.1l-8.5,23.4H152.8z"/>
		<path d="M206.1,131.8c-0.4-8.2-7.2-10.8-13.2-10.8c-4.5,0-12.2,1.3-12.2,9.3c0,4.5,3.2,6,6.3,6.7l15.2,3.5
			c6.9,1.6,12.1,5.8,12.1,14.2c0,12.6-11.7,16.1-20.8,16.1c-9.9,0-13.7-3-16.1-5.1c-4.5-4.1-5.4-8.5-5.4-13.5h6.7
			c0,9.6,7.9,12.5,14.7,12.5c5.2,0,13.9-1.3,13.9-9c0-5.6-2.6-7.3-11.3-9.4l-10.9-2.5c-3.5-0.8-11.3-3.3-11.3-12.5
			c0-8.3,5.4-16.5,18.3-16.5c18.6,0,20.5,11.1,20.8,17L206.1,131.8L206.1,131.8z"/>
		<path d="M231.7,169.5h-7.2v-53.2h7.2V169.5z"/>
		<path d="M251.2,163.1h27v6.4H244v-53.2h7.2V163.1z"/>
	</g>
	<g>
		<path class="st0" d="M258.7,38.8c-0.4-8.2-7.2-10.8-13.2-10.8c-4.5,0-12.2,1.3-12.2,9.3c0,4.5,3.2,6,6.3,6.7l15.2,3.5
			c6.9,1.6,12.1,5.8,12.1,14.2c0,12.6-11.7,16.1-20.8,16.1c-9.9,0-13.7-3-16.1-5.1c-4.5-4.1-5.4-8.5-5.4-13.5h6.7
			c0,9.6,7.9,12.5,14.7,12.5c5.2,0,13.9-1.3,13.9-9c0-5.6-2.6-7.3-11.3-9.4l-10.9-2.5c-3.5-0.8-11.3-3.3-11.3-12.5
			c0-8.3,5.4-16.5,18.3-16.5c18.6,0,20.5,11.1,20.8,17H258.7z"/>
	</g>
</g>
</svg>
