<?xml version="1.0" encoding="utf-8"?>
<!-- Generator: Adobe Illustrator 21.0.0, SVG Export Plug-In . SVG Version: 6.00 Build 0)  -->
<svg version="1.1" id="Layer_1" xmlns="http://www.w3.org/2000/svg" xmlns:xlink="http://www.w3.org/1999/xlink" x="0px" y="0px"
	 viewBox="0 0 312.5 188.4" style="enable-background:new 0 0 312.5 188.4;" xml:space="preserve">
<style type="text/css">
	.st0{fill:#72BF44;}
	.st1{fill:#EC2326;}
	.st2{fill:#136FB7;}
	.st3{fill:#FFFFFF;}
</style>
<g>
	<path class="st3" d="M58.7,10C31.8,10,10,31.8,10,58.7s21.8,48.7,48.7,48.7s48.7-21.8,48.7-48.7S85.7,10,58.7,10z M77.2,38.5H47.5
		v16.3h26.1v6.4H47.5v24.2h-7.2V32.1h36.8V38.5z"/>
	<path class="st3" d="M156.2,10c-26.9,0-48.7,21.8-48.7,48.7s21.8,48.7,48.7,48.7S205,85.7,205,58.7S183.1,10,156.2,10z M177.8,38.5
		h-18v46.8h-7.2V38.5h-18v-6.4h43.2V38.5z"/>
	<g>
		<path class="st3" d="M30.4,125.1h23.4c9.9,0,15,6.2,15,13.4c0,3.5-1.3,8.4-7.1,11.1c3.5,1.4,9.6,3.9,9.6,13
			c0,8.5-6.3,15.7-18.1,15.7H30.4V125.1z M37.6,147.7h13c6.9,0,11.1-2.1,11.1-8.6c0-5-3-7.8-11-7.8h-13V147.7z M37.6,172.2H53
			c7.5,0,11.3-3.8,11.3-9.7c0-7.5-6.6-9-12.5-9H37.6V172.2z"/>
		<path class="st3" d="M88.1,178.4h-7.2v-53.2h24.6c8.7,0,17.5,3,17.5,14.3c0,7.9-4,10.7-7.4,12.8c3,1.3,6.1,2.6,6.4,10l0.4,9.6
			c0.1,3,0.4,4.1,2.7,5.3v1.2h-8.8c-1-3.3-1.3-11.3-1.3-13.3c0-4.4-0.9-9.5-9.5-9.5H88.1V178.4z M88.1,149.4h16.7
			c5.3,0,10.8-1.3,10.8-9.2c0-8.2-6-8.9-9.6-8.9H88.1V149.4z"/>
		<path class="st3" d="M141.9,162.9l-5.6,15.5h-7.4l20-53.2h8.2l19.3,53.2h-7.9l-5.3-15.5H141.9z M160.7,156.5l-7.9-23.4h-0.1
			l-8.5,23.4H160.7z"/>
		<path class="st3" d="M214,140.7c-0.4-8.2-7.2-10.8-13.2-10.8c-4.5,0-12.2,1.3-12.2,9.3c0,4.5,3.2,6,6.3,6.7l15.2,3.5
			c6.9,1.6,12.1,5.8,12.1,14.2c0,12.6-11.7,16.1-20.8,16.1c-9.9,0-13.7-3-16.1-5.1c-4.5-4.1-5.4-8.5-5.4-13.5h6.7
			c0,9.6,7.9,12.5,14.7,12.5c5.2,0,13.9-1.3,13.9-9c0-5.6-2.6-7.3-11.3-9.4l-10.9-2.5c-3.5-0.8-11.3-3.3-11.3-12.5
			c0-8.3,5.4-16.5,18.3-16.5c18.6,0,20.5,11.1,20.8,17H214z"/>
		<path class="st3" d="M239.6,178.4h-7.2v-53.2h7.2V178.4z"/>
		<path class="st3" d="M259.1,172h27v6.4h-34.2v-53.2h7.2V172z"/>
	</g>
	<path class="st3" d="M253.7,10C226.8,10,205,31.8,205,58.7s21.8,48.7,48.7,48.7s48.7-21.8,48.7-48.7S280.6,10,253.7,10z M254,86.8
		c-9.9,0-13.7-3-16.1-5.1c-4.5-4.1-5.4-8.5-5.4-13.5h6.7c0,9.6,7.9,12.5,14.7,12.5c5.2,0,13.9-1.3,13.9-9c0-5.6-2.6-7.3-11.3-9.4
		l-10.9-2.5c-3.5-0.8-11.3-3.3-11.3-12.5c0-8.3,5.4-16.5,18.3-16.5c18.6,0,20.5,11.1,20.8,17h-6.7c-0.4-8.2-7.2-10.8-13.2-10.8
		c-4.5,0-12.2,1.3-12.2,9.3c0,4.5,3.2,6,6.3,6.7l15.2,3.5c6.9,1.6,12.1,5.8,12.1,14.2C274.9,83.3,263.2,86.8,254,86.8z"/>
</g>
</svg>
