<?xml version="1.0" encoding="utf-8"?>
<!-- Generator: Adobe Illustrator 21.0.0, SVG Export Plug-In . SVG Version: 6.00 Build 0)  -->
<svg version="1.1" id="Layer_1" xmlns="http://www.w3.org/2000/svg" xmlns:xlink="http://www.w3.org/1999/xlink" x="0px" y="0px"
	 viewBox="0 0 1526.3 495.6" style="enable-background:new 0 0 1526.3 495.6;" xml:space="preserve">
<style type="text/css">
	.st0{fill:#FFFFFF;}
	.st1{fill:#808285;stroke:#FFFFFF;stroke-width:9;stroke-linecap:round;stroke-linejoin:round;stroke-miterlimit:10;}
	.st2{fill:#8ACC9E;}
	.st3{fill:#8FD6E7;}
	.st4{fill:#5EBCE9;}
	.st5{fill:none;stroke:#000000;stroke-width:0.25;stroke-miterlimit:10;}
	.st6{fill:#EC7685;}
	.st7{display:none;}
	.st8{display:inline;}
	.st9{display:inline;fill:#8ACC9E;}
	.st10{display:inline;fill:#5EBCE9;}
	.st11{fill:#9D2B6D;}
	.st12{display:inline;fill:#DAC226;}
	.st13{display:inline;fill:#18868F;}
	.st14{fill:none;stroke:#000000;stroke-width:0.5;stroke-miterlimit:10;}
	.st15{fill:#DAC226;}
	.st16{fill:#18868F;}
	.st17{fill:#48484A;}
	.st18{fill:none;stroke:#000000;stroke-width:0.75;stroke-miterlimit:10;}
	.st19{fill:#4D4D4A;}
	.st20{fill:#D1C336;}
	.st21{fill:#1F869A;}
	.st22{fill:#9E256F;}
	.st23{fill:#EAE363;}
	.st24{fill:#44789D;}
	.st25{fill:#AC615A;}
	.st26{fill:#7299B5;}
	.st27{fill:#A2BCCF;}
	.st28{fill:#4D6B86;}
	.st29{fill:#4E5D6E;}
	.st30{fill:none;stroke:#000000;stroke-width:2;stroke-linecap:round;stroke-linejoin:round;stroke-miterlimit:10;}
	.st31{fill:#9F9EA7;stroke:#9F9EA7;stroke-width:3;stroke-linecap:round;stroke-linejoin:round;stroke-miterlimit:10;}
	.st32{fill:#B4B1B9;}
	.st33{fill:#9F9EA7;stroke:#9F9EA7;stroke-miterlimit:10;}
	.st34{fill:#9F9EA7;stroke:#9F9EA7;stroke-width:2;stroke-miterlimit:10;}
	.st35{fill:#9F9EA7;stroke:#9F9EA7;stroke-width:2.5;stroke-miterlimit:10;}
	.st36{fill:#B3B2B5;stroke:#B3B2B5;stroke-width:0.25;stroke-miterlimit:10;}
	.st37{fill:#B3B2B5;stroke:#B3B2B5;stroke-width:2;stroke-linecap:round;stroke-linejoin:round;stroke-miterlimit:10;}
	.st38{fill:#B3B2B5;}
	.st39{fill:#4D4D4A;stroke:#B3B2B5;stroke-width:2;stroke-linecap:round;stroke-linejoin:round;stroke-miterlimit:10;}
	.st40{fill:#AC615A;stroke:#AC615A;stroke-width:2;stroke-linecap:round;stroke-linejoin:round;stroke-miterlimit:10;}
	.st41{fill:#44789D;stroke:#44789D;stroke-width:2;stroke-linecap:round;stroke-linejoin:round;stroke-miterlimit:10;}
	.st42{fill:#EAE363;stroke:#EAE363;stroke-width:2;stroke-linecap:round;stroke-linejoin:round;stroke-miterlimit:10;}
	.st43{fill:#8C8E90;}
	.st44{fill:none;stroke:#4D4D4A;stroke-width:2;stroke-linecap:round;stroke-linejoin:round;stroke-miterlimit:10;}
	.st45{fill:#8C8E90;stroke:#8C8E90;stroke-miterlimit:10;}
</style>
<g>
	<line class="st31" x1="597.2" y1="112.7" x2="597.2" y2="363.4"/>
	<g>
		<g>
			<path class="st32" d="M319.1,184.8c-9.2-8.5-15.3-8.8-19-8.8c-4.6,0-9.1,3-9.1,7.5c0,15.7,57.2,29.7,57.2,68.4
				c0,36.5-28.3,57.4-79.8,57.4c-22.8,0-45.4-10.3-63.3-28.5l33.8-29.8c17.6,16.4,24.3,16.9,29.6,16.9c8.2,0,12.7-5.2,12.7-11
				c0-17-53.9-29.7-53.9-66.8c0-35.4,29.9-54.7,68.5-54.7c17.1,0,38.4,5.2,52.7,19.9L319.1,184.8z"/>
		</g>
		<path class="st32" d="M500.8,61.3L510.2,0c-63.2,0.6-110,30.1-119.2,89.2l-39.4,254.8c5.7,2.4,11.1,5.6,16.1,9.8
			c13.3,11.2,20.7,26,21.3,42.8c0,0.1,0,0.2,0,0.2h22.6l30.9-199H478l9.1-58.8h-35.4l6.6-42.6C461.8,73.7,476.3,61.7,500.8,61.3z"/>
		<g>
			<path class="st23" d="M354.6,369.6c-7.8-6.5-16.2-9.4-24.6-9.4c-7.3,0-14.5,2.1-21.1,5.8c1,6.9,1.2,14.1,0.5,21.2
				c-1.8,17.6-9.1,32.5-15.6,45.6l-1.1,2.3c-7.6,15.4-13.7,30.1-18.4,44.2c12.4-7.2,25.3-13.7,38.6-19.5c13.4-5.9,27-11.5,37.6-21.9
				C369.7,419.3,377.5,388.8,354.6,369.6z"/>
			<g>
				<path class="st24" d="M248.2,330.1C248.2,330.1,248.2,330.1,248.2,330.1c-19.1,0-31.5,11.5-37.3,26.8
					c5.4,4.7,10.4,10.2,14.6,16.4c9.9,14.6,13.9,30.7,17.3,45l0.6,2.5c4,16.3,8.6,31.1,14,44.8c4.8-13.4,10.5-26.5,16.9-39.4
					c6.5-13.1,13.3-26.1,14.8-40.9C291.7,358.4,278.1,330.1,248.2,330.1z"/>
			</g>
			<path class="st25" d="M146,437.3c10.7,10.4,24.2,16,37.7,21.9c22.8,10,44.3,21.6,64.5,36.3c-11.1-22.5-18.8-45.7-24.7-70
				c-3.5-14.2-6.6-28.5-15-40.8c-10-14.7-25.9-25.3-42.1-25.3c-8.4,0-16.8,2.8-24.6,9.3C118.8,388,126.7,418.6,146,437.3z"/>
		</g>
		<path class="st32" d="M107.3,396c0.6-16.8,8-31.7,21.4-42.9c11-9.2,24.1-14.1,37.7-14.1c3.5,0,7,0.4,10.5,1
			c3.2-8.4,5.6-17.5,7.2-27.5l22.8-147.7c-23.7-19.7-50.2-29.6-78.6-29.6c-71.7,0-113.8,42.5-113.8,102.7
			c0,44.8,33.3,71.3,69.2,71.3c12,0,23.8-2.8,33.9-8.9l-1.6,10.7c-4.1,28.3-13.6,40-40.8,40c-16.9,0-31.9-4.1-51.4-11.5L0,383
			c26.7,11.7,52.3,17.9,76.1,17.9c11.3,0,21.7-1,31.2-3C107.3,397.2,107.3,396.6,107.3,396z M105.2,256.9
			c-11.1,0-21.7-6.5-21.7-25.4c0-26.6,18-43.1,35.5-43.1c6.3,0,10.5,1.1,15.6,4.1l-8.3,53.1C120.4,252.4,112.9,256.9,105.2,256.9z"
			/>
	</g>
	<g>
		<g>
			<path class="st33" d="M686.2,300.9c0-0.8,0.4-1.2,1.2-1.2h5.6c0.8,0,1.2-0.4,1.2-1.2v-48.4c0-0.8-0.4-1.2-1.2-1.2h-5.6
				c-0.8,0-1.2-0.4-1.2-1.2c0-0.8,0.4-1.2,1.2-1.2h22.2c8,0,14.4,2.6,19.3,7.9c4.9,5.3,7.3,11.9,7.3,19.8c0,7.9-2.4,14.5-7.3,19.8
				c-4.9,5.3-11.3,7.9-19.3,7.9h-22.2C686.6,302.1,686.2,301.7,686.2,300.9z M696.5,298.5c0,0.8,0.4,1.2,1.2,1.2h11.9
				c7.2,0,13-2.4,17.5-7.2c4.5-4.8,6.7-10.9,6.7-18.2c0-7.3-2.2-13.4-6.7-18.2c-4.5-4.8-10.3-7.2-17.5-7.2h-11.9
				c-0.8,0-1.2,0.4-1.2,1.2V298.5z"/>
			<path class="st33" d="M747.4,300.9c0-0.8,0.4-1.2,1.2-1.2h5.6c0.8,0,1.2-0.4,1.2-1.2v-48.4c0-0.8-0.4-1.2-1.2-1.2h-5.6
				c-0.8,0-1.2-0.4-1.2-1.2c0-0.8,0.4-1.2,1.2-1.2h37.7c0.8,0,1.2,0.4,1.2,1.2v11.1c0,0.8-0.4,1.2-1.2,1.2c-0.8,0-1.2-0.4-1.2-1.2
				v-8.7c0-0.8-0.4-1.2-1.2-1.2h-25c-0.8,0-1.2,0.4-1.2,1.2v21.4c0,0.8,0.4,1.2,1.2,1.2h17.9c0.8,0,1.2-0.4,1.2-1.2v-4
				c0-0.8,0.4-1.2,1.2-1.2s1.2,0.4,1.2,1.2v12.7c0,0.8-0.4,1.2-1.2,1.2s-1.2-0.4-1.2-1.2v-4c0-0.8-0.4-1.2-1.2-1.2h-17.9
				c-0.8,0-1.2,0.4-1.2,1.2v22.2c0,0.8,0.4,1.2,1.2,1.2h25.8c0.8,0,1.2-0.4,1.2-1.2v-8.7c0-0.8,0.4-1.2,1.2-1.2
				c0.8,0,1.2,0.4,1.2,1.2v11.1c0,0.8-0.4,1.2-1.2,1.2h-38.5C747.8,302.1,747.4,301.7,747.4,300.9z"/>
			<path class="st33" d="M837.8,279.9c-0.8,0-1.2,0.4-1.2,1.2v17.5c0,0.8,0.4,1.2,1.2,1.2h6.3c0.8,0,1.2,0.4,1.2,1.2
				c0,0.8-0.4,1.2-1.2,1.2h-16.7c-0.8,0-1.2-0.4-1.2-1.2c0-0.8,0.4-1.2,1.2-1.2h5.6c0.8,0,1.2-0.4,1.2-1.2v-48.4
				c0-0.8-0.4-1.2-1.2-1.2h-5.6c-0.8,0-1.2-0.4-1.2-1.2c0-0.8,0.4-1.2,1.2-1.2H854c5.2,0,9.2,1.4,11.9,4.2c2.7,2.8,4,7,4,12.4
				c0,5.4-1.3,9.6-4,12.4c-2.7,2.8-6.6,4.2-11.9,4.2H837.8z M854,277.5c9,0,13.5-4.8,13.5-14.3c0-9.5-4.5-14.3-13.5-14.3h-16.3
				c-0.8,0-1.2,0.4-1.2,1.2v26.2c0,0.8,0.4,1.2,1.2,1.2H854z"/>
			<path class="st33" d="M888.7,294.8c-4.9-5.4-7.3-12.2-7.3-20.5c0-8.3,2.4-15.1,7.3-20.5c4.9-5.4,11.3-8.1,19.3-8.1
				c8,0,14.4,2.7,19.3,8.1c4.9,5.4,7.3,12.2,7.3,20.5c0,8.3-2.4,15.1-7.3,20.5c-4.9,5.4-11.3,8.1-19.3,8.1
				C900,302.9,893.6,300.2,888.7,294.8z M890.5,255.5c-4.4,4.9-6.7,11.2-6.7,18.8c0,7.6,2.2,13.9,6.7,18.8s10.3,7.4,17.5,7.4
				c7.2,0,13.1-2.5,17.5-7.4c4.4-4.9,6.7-11.2,6.7-18.8c0-7.6-2.2-13.9-6.7-18.8c-4.4-4.9-10.3-7.4-17.5-7.4
				C900.7,248.1,894.9,250.6,890.5,255.5z"/>
			<path class="st33" d="M947.1,299.7h5.6c0.8,0,1.2-0.4,1.2-1.2v-48.4c0-0.8-0.4-1.2-1.2-1.2h-5.6c-0.8,0-1.2-0.4-1.2-1.2
				c0-0.8,0.4-1.2,1.2-1.2h8.7c0.8,0,1.5,0.4,2,1.2l32.5,49.6c0.1,0.2,0.3,0.3,0.5,0.3s0.3-0.2,0.3-0.7v-46.8c0-0.8-0.4-1.2-1.2-1.2
				h-4.8c-0.8,0-1.2-0.4-1.2-1.2c0-0.8,0.4-1.2,1.2-1.2h15.1c0.8,0,1.2,0.4,1.2,1.2c0,0.8-0.4,1.2-1.2,1.2h-5.6
				c-0.8,0-1.2,0.4-1.2,1.2v48.4c0,0.8,0.4,1.2,1.2,1.2h5.6c0.8,0,1.2,0.4,1.2,1.2c0,0.8-0.4,1.2-1.2,1.2h-8.7c-0.8,0-1.5-0.4-2-1.2
				L957,251.3c-0.1-0.2-0.3-0.3-0.5-0.3c-0.2,0-0.3,0.3-0.3,0.7v46.8c0,0.8,0.4,1.2,1.2,1.2h4.8c0.8,0,1.2,0.4,1.2,1.2
				c0,0.8-0.4,1.2-1.2,1.2h-15.1c-0.8,0-1.2-0.4-1.2-1.2C945.9,300.1,946.3,299.7,947.1,299.7z"/>
			<path class="st33" d="M1010.6,259.2v-11.5c0-0.8,0.4-1.2,1.2-1.2h42.8c0.8,0,1.2,0.4,1.2,1.2v11.5c0,0.8-0.4,1.2-1.2,1.2
				c-0.8,0-1.2-0.4-1.2-1.2v-9.1c0-0.8-0.4-1.2-1.2-1.2h-16.7c-0.8,0-1.2,0.4-1.2,1.2v48.4c0,0.8,0.4,1.2,1.2,1.2h5.6
				c0.8,0,1.2,0.4,1.2,1.2c0,0.8-0.4,1.2-1.2,1.2h-15.9c-0.8,0-1.2-0.4-1.2-1.2c0-0.8,0.4-1.2,1.2-1.2h5.6c0.8,0,1.2-0.4,1.2-1.2
				v-48.4c0-0.8-0.4-1.2-1.2-1.2h-16.7c-0.8,0-1.2,0.4-1.2,1.2v9.1c0,0.8-0.4,1.2-1.2,1.2C1011,260.4,1010.6,260,1010.6,259.2z"/>
			<path class="st33" d="M1099.7,283.8c-0.3-0.7-1-1.1-1.9-1.1h-22.5c-1,0-1.6,0.4-1.9,1.1l-5.6,14.7c-0.4,0.8-0.2,1.2,0.8,1.2h4.8
				c0.8,0,1.2,0.4,1.2,1.2c0,0.8-0.4,1.2-1.2,1.2h-15.1c-0.8,0-1.2-0.4-1.2-1.2c0-0.8,0.4-1.2,1.2-1.2h5.2c0.6,0,1.2-0.4,1.6-1.2
				l19.8-51.6c0.1-0.4,0.3-0.7,0.7-0.9c0.3-0.2,0.7-0.3,1.1-0.3c0.4,0,0.7,0.1,1.1,0.3c0.3,0.2,0.6,0.5,0.7,0.9l19.8,51.6
				c0.4,0.8,0.9,1.2,1.6,1.2h5.2c0.8,0,1.2,0.4,1.2,1.2c0,0.8-0.4,1.2-1.2,1.2h-15.1c-0.8,0-1.2-0.4-1.2-1.2c0-0.8,0.4-1.2,1.2-1.2
				h4.8c0.9,0,1.2-0.4,0.8-1.2L1099.7,283.8z M1087,250.9c-0.1-0.3-0.3-0.5-0.5-0.5s-0.4,0.2-0.5,0.5l-10.9,28.2
				c-0.4,0.8-0.1,1.2,0.9,1.2h20.9c1,0,1.2-0.4,0.9-1.2L1087,250.9z"/>
			<path class="st33" d="M1187.2,283.8c-0.3-0.7-1-1.1-1.9-1.1h-22.5c-1,0-1.6,0.4-1.9,1.1l-5.6,14.7c-0.4,0.8-0.2,1.2,0.8,1.2h4.8
				c0.8,0,1.2,0.4,1.2,1.2c0,0.8-0.4,1.2-1.2,1.2h-15.1c-0.8,0-1.2-0.4-1.2-1.2c0-0.8,0.4-1.2,1.2-1.2h5.2c0.6,0,1.2-0.4,1.6-1.2
				l19.8-51.6c0.1-0.4,0.3-0.7,0.7-0.9c0.3-0.2,0.7-0.3,1.1-0.3c0.4,0,0.7,0.1,1.1,0.3c0.3,0.2,0.6,0.5,0.7,0.9l19.8,51.6
				c0.4,0.8,0.9,1.2,1.6,1.2h5.2c0.8,0,1.2,0.4,1.2,1.2c0,0.8-0.4,1.2-1.2,1.2h-15.1c-0.8,0-1.2-0.4-1.2-1.2c0-0.8,0.4-1.2,1.2-1.2
				h4.8c0.9,0,1.2-0.4,0.8-1.2L1187.2,283.8z M1174.6,250.9c-0.1-0.3-0.3-0.5-0.5-0.5s-0.4,0.2-0.5,0.5l-10.9,28.2
				c-0.4,0.8-0.1,1.2,0.9,1.2h20.9c1,0,1.2-0.4,0.9-1.2L1174.6,250.9z"/>
			<path class="st33" d="M1248.1,279.9c-0.8,0-1.2,0.4-1.2,1.2v17.5c0,0.8,0.4,1.2,1.2,1.2h6.3c0.8,0,1.2,0.4,1.2,1.2
				c0,0.8-0.4,1.2-1.2,1.2h-16.7c-0.8,0-1.2-0.4-1.2-1.2c0-0.8,0.4-1.2,1.2-1.2h5.6c0.8,0,1.2-0.4,1.2-1.2v-48.4
				c0-0.8-0.4-1.2-1.2-1.2h-5.6c-0.8,0-1.2-0.4-1.2-1.2c0-0.8,0.4-1.2,1.2-1.2h26.6c5.2,0,9.2,1.4,11.9,4.2c2.7,2.8,4,7,4,12.4
				c0,5.4-1.3,9.6-4,12.4c-2.7,2.8-6.6,4.2-11.9,4.2H1248.1z M1264.4,277.5c9,0,13.5-4.8,13.5-14.3c0-9.5-4.5-14.3-13.5-14.3h-16.3
				c-0.8,0-1.2,0.4-1.2,1.2v26.2c0,0.8,0.4,1.2,1.2,1.2H1264.4z"/>
			<path class="st33" d="M1299,294.8c-4.9-5.4-7.3-12.2-7.3-20.5c0-8.3,2.4-15.1,7.3-20.5c4.9-5.4,11.3-8.1,19.3-8.1
				c8,0,14.4,2.7,19.3,8.1c4.9,5.4,7.3,12.2,7.3,20.5c0,8.3-2.4,15.1-7.3,20.5c-4.9,5.4-11.3,8.1-19.3,8.1
				C1310.3,302.9,1303.9,300.2,1299,294.8z M1300.8,255.5c-4.4,4.9-6.7,11.2-6.7,18.8c0,7.6,2.2,13.9,6.7,18.8s10.3,7.4,17.5,7.4
				c7.2,0,13.1-2.5,17.5-7.4c4.4-4.9,6.7-11.2,6.7-18.8c0-7.6-2.2-13.9-6.7-18.8c-4.4-4.9-10.3-7.4-17.5-7.4
				C1311.1,248.1,1305.2,250.6,1300.8,255.5z"/>
			<path class="st33" d="M1357.4,299.7h5.6c0.8,0,1.2-0.4,1.2-1.2v-48.4c0-0.8-0.4-1.2-1.2-1.2h-5.6c-0.8,0-1.2-0.4-1.2-1.2
				c0-0.8,0.4-1.2,1.2-1.2h8.7c0.8,0,1.5,0.4,2,1.2l32.5,49.6c0.1,0.2,0.3,0.3,0.5,0.3s0.3-0.2,0.3-0.7v-46.8c0-0.8-0.4-1.2-1.2-1.2
				h-4.8c-0.8,0-1.2-0.4-1.2-1.2c0-0.8,0.4-1.2,1.2-1.2h15.1c0.8,0,1.2,0.4,1.2,1.2c0,0.8-0.4,1.2-1.2,1.2h-5.6
				c-0.8,0-1.2,0.4-1.2,1.2v48.4c0,0.8,0.4,1.2,1.2,1.2h5.6c0.8,0,1.2,0.4,1.2,1.2c0,0.8-0.4,1.2-1.2,1.2h-8.7c-0.8,0-1.5-0.4-2-1.2
				l-32.5-49.6c-0.1-0.2-0.3-0.3-0.5-0.3c-0.2,0-0.3,0.3-0.3,0.7v46.8c0,0.8,0.4,1.2,1.2,1.2h4.8c0.8,0,1.2,0.4,1.2,1.2
				c0,0.8-0.4,1.2-1.2,1.2h-15.1c-0.8,0-1.2-0.4-1.2-1.2C1356.2,300.1,1356.6,299.7,1357.4,299.7z"/>
			<path class="st33" d="M1420.9,259.2v-11.5c0-0.8,0.4-1.2,1.2-1.2h42.8c0.8,0,1.2,0.4,1.2,1.2v11.5c0,0.8-0.4,1.2-1.2,1.2
				c-0.8,0-1.2-0.4-1.2-1.2v-9.1c0-0.8-0.4-1.2-1.2-1.2h-16.7c-0.8,0-1.2,0.4-1.2,1.2v48.4c0,0.8,0.4,1.2,1.2,1.2h5.6
				c0.8,0,1.2,0.4,1.2,1.2c0,0.8-0.4,1.2-1.2,1.2h-15.9c-0.8,0-1.2-0.4-1.2-1.2c0-0.8,0.4-1.2,1.2-1.2h5.6c0.8,0,1.2-0.4,1.2-1.2
				v-48.4c0-0.8-0.4-1.2-1.2-1.2h-16.7c-0.8,0-1.2,0.4-1.2,1.2v9.1c0,0.8-0.4,1.2-1.2,1.2C1421.3,260.4,1420.9,260,1420.9,259.2z"/>
			<path class="st33" d="M1510,283.8c-0.3-0.7-1-1.1-1.9-1.1h-22.5c-1,0-1.6,0.4-1.9,1.1l-5.6,14.7c-0.4,0.8-0.2,1.2,0.8,1.2h4.8
				c0.8,0,1.2,0.4,1.2,1.2c0,0.8-0.4,1.2-1.2,1.2h-15.1c-0.8,0-1.2-0.4-1.2-1.2c0-0.8,0.4-1.2,1.2-1.2h5.2c0.6,0,1.2-0.4,1.6-1.2
				l19.8-51.6c0.1-0.4,0.3-0.7,0.7-0.9c0.3-0.2,0.7-0.3,1.1-0.3c0.4,0,0.7,0.1,1.1,0.3c0.3,0.2,0.6,0.5,0.7,0.9l19.8,51.6
				c0.4,0.8,0.9,1.2,1.6,1.2h5.2c0.8,0,1.2,0.4,1.2,1.2c0,0.8-0.4,1.2-1.2,1.2h-15.1c-0.8,0-1.2-0.4-1.2-1.2c0-0.8,0.4-1.2,1.2-1.2
				h4.8c0.9,0,1.2-0.4,0.8-1.2L1510,283.8z M1497.3,250.9c-0.1-0.3-0.3-0.5-0.5-0.5s-0.4,0.2-0.5,0.5l-10.9,28.2
				c-0.4,0.8-0.1,1.2,0.9,1.2h20.9c1,0,1.2-0.4,0.9-1.2L1497.3,250.9z"/>
		</g>
		<g>
			<path class="st34" d="M686.2,300.9c0-0.8,0.4-1.2,1.2-1.2h5.6c0.8,0,1.2-0.4,1.2-1.2v-48.4c0-0.8-0.4-1.2-1.2-1.2h-5.6
				c-0.8,0-1.2-0.4-1.2-1.2c0-0.8,0.4-1.2,1.2-1.2h22.2c8,0,14.4,2.6,19.3,7.9c4.9,5.3,7.3,11.9,7.3,19.8c0,7.9-2.4,14.5-7.3,19.8
				c-4.9,5.3-11.3,7.9-19.3,7.9h-22.2C686.6,302.1,686.2,301.7,686.2,300.9z M696.5,298.5c0,0.8,0.4,1.2,1.2,1.2h11.9
				c7.2,0,13-2.4,17.5-7.2c4.5-4.8,6.7-10.9,6.7-18.2c0-7.3-2.2-13.4-6.7-18.2c-4.5-4.8-10.3-7.2-17.5-7.2h-11.9
				c-0.8,0-1.2,0.4-1.2,1.2V298.5z"/>
			<path class="st34" d="M747.4,300.9c0-0.8,0.4-1.2,1.2-1.2h5.6c0.8,0,1.2-0.4,1.2-1.2v-48.4c0-0.8-0.4-1.2-1.2-1.2h-5.6
				c-0.8,0-1.2-0.4-1.2-1.2c0-0.8,0.4-1.2,1.2-1.2h37.7c0.8,0,1.2,0.4,1.2,1.2v11.1c0,0.8-0.4,1.2-1.2,1.2c-0.8,0-1.2-0.4-1.2-1.2
				v-8.7c0-0.8-0.4-1.2-1.2-1.2h-25c-0.8,0-1.2,0.4-1.2,1.2v21.4c0,0.8,0.4,1.2,1.2,1.2h17.9c0.8,0,1.2-0.4,1.2-1.2v-4
				c0-0.8,0.4-1.2,1.2-1.2s1.2,0.4,1.2,1.2v12.7c0,0.8-0.4,1.2-1.2,1.2s-1.2-0.4-1.2-1.2v-4c0-0.8-0.4-1.2-1.2-1.2h-17.9
				c-0.8,0-1.2,0.4-1.2,1.2v22.2c0,0.8,0.4,1.2,1.2,1.2h25.8c0.8,0,1.2-0.4,1.2-1.2v-8.7c0-0.8,0.4-1.2,1.2-1.2
				c0.8,0,1.2,0.4,1.2,1.2v11.1c0,0.8-0.4,1.2-1.2,1.2h-38.5C747.8,302.1,747.4,301.7,747.4,300.9z"/>
			<path class="st34" d="M837.8,279.9c-0.8,0-1.2,0.4-1.2,1.2v17.5c0,0.8,0.4,1.2,1.2,1.2h6.3c0.8,0,1.2,0.4,1.2,1.2
				c0,0.8-0.4,1.2-1.2,1.2h-16.7c-0.8,0-1.2-0.4-1.2-1.2c0-0.8,0.4-1.2,1.2-1.2h5.6c0.8,0,1.2-0.4,1.2-1.2v-48.4
				c0-0.8-0.4-1.2-1.2-1.2h-5.6c-0.8,0-1.2-0.4-1.2-1.2c0-0.8,0.4-1.2,1.2-1.2H854c5.2,0,9.2,1.4,11.9,4.2c2.7,2.8,4,7,4,12.4
				c0,5.4-1.3,9.6-4,12.4c-2.7,2.8-6.6,4.2-11.9,4.2H837.8z M854,277.5c9,0,13.5-4.8,13.5-14.3c0-9.5-4.5-14.3-13.5-14.3h-16.3
				c-0.8,0-1.2,0.4-1.2,1.2v26.2c0,0.8,0.4,1.2,1.2,1.2H854z"/>
			<path class="st34" d="M888.7,294.8c-4.9-5.4-7.3-12.2-7.3-20.5c0-8.3,2.4-15.1,7.3-20.5c4.9-5.4,11.3-8.1,19.3-8.1
				c8,0,14.4,2.7,19.3,8.1c4.9,5.4,7.3,12.2,7.3,20.5c0,8.3-2.4,15.1-7.3,20.5c-4.9,5.4-11.3,8.1-19.3,8.1
				C900,302.9,893.6,300.2,888.7,294.8z M890.5,255.5c-4.4,4.9-6.7,11.2-6.7,18.8c0,7.6,2.2,13.9,6.7,18.8s10.3,7.4,17.5,7.4
				c7.2,0,13.1-2.5,17.5-7.4c4.4-4.9,6.7-11.2,6.7-18.8c0-7.6-2.2-13.9-6.7-18.8c-4.4-4.9-10.3-7.4-17.5-7.4
				C900.7,248.1,894.9,250.6,890.5,255.5z"/>
			<path class="st34" d="M947.1,299.7h5.6c0.8,0,1.2-0.4,1.2-1.2v-48.4c0-0.8-0.4-1.2-1.2-1.2h-5.6c-0.8,0-1.2-0.4-1.2-1.2
				c0-0.8,0.4-1.2,1.2-1.2h8.7c0.8,0,1.5,0.4,2,1.2l32.5,49.6c0.1,0.2,0.3,0.3,0.5,0.3s0.3-0.2,0.3-0.7v-46.8c0-0.8-0.4-1.2-1.2-1.2
				h-4.8c-0.8,0-1.2-0.4-1.2-1.2c0-0.8,0.4-1.2,1.2-1.2h15.1c0.8,0,1.2,0.4,1.2,1.2c0,0.8-0.4,1.2-1.2,1.2h-5.6
				c-0.8,0-1.2,0.4-1.2,1.2v48.4c0,0.8,0.4,1.2,1.2,1.2h5.6c0.8,0,1.2,0.4,1.2,1.2c0,0.8-0.4,1.2-1.2,1.2h-8.7c-0.8,0-1.5-0.4-2-1.2
				L957,251.3c-0.1-0.2-0.3-0.3-0.5-0.3c-0.2,0-0.3,0.3-0.3,0.7v46.8c0,0.8,0.4,1.2,1.2,1.2h4.8c0.8,0,1.2,0.4,1.2,1.2
				c0,0.8-0.4,1.2-1.2,1.2h-15.1c-0.8,0-1.2-0.4-1.2-1.2C945.9,300.1,946.3,299.7,947.1,299.7z"/>
			<path class="st34" d="M1010.6,259.2v-11.5c0-0.8,0.4-1.2,1.2-1.2h42.8c0.8,0,1.2,0.4,1.2,1.2v11.5c0,0.8-0.4,1.2-1.2,1.2
				c-0.8,0-1.2-0.4-1.2-1.2v-9.1c0-0.8-0.4-1.2-1.2-1.2h-16.7c-0.8,0-1.2,0.4-1.2,1.2v48.4c0,0.8,0.4,1.2,1.2,1.2h5.6
				c0.8,0,1.2,0.4,1.2,1.2c0,0.8-0.4,1.2-1.2,1.2h-15.9c-0.8,0-1.2-0.4-1.2-1.2c0-0.8,0.4-1.2,1.2-1.2h5.6c0.8,0,1.2-0.4,1.2-1.2
				v-48.4c0-0.8-0.4-1.2-1.2-1.2h-16.7c-0.8,0-1.2,0.4-1.2,1.2v9.1c0,0.8-0.4,1.2-1.2,1.2C1011,260.4,1010.6,260,1010.6,259.2z"/>
			<path class="st34" d="M1099.7,283.8c-0.3-0.7-1-1.1-1.9-1.1h-22.5c-1,0-1.6,0.4-1.9,1.1l-5.6,14.7c-0.4,0.8-0.2,1.2,0.8,1.2h4.8
				c0.8,0,1.2,0.4,1.2,1.2c0,0.8-0.4,1.2-1.2,1.2h-15.1c-0.8,0-1.2-0.4-1.2-1.2c0-0.8,0.4-1.2,1.2-1.2h5.2c0.6,0,1.2-0.4,1.6-1.2
				l19.8-51.6c0.1-0.4,0.3-0.7,0.7-0.9c0.3-0.2,0.7-0.3,1.1-0.3c0.4,0,0.7,0.1,1.1,0.3c0.3,0.2,0.6,0.5,0.7,0.9l19.8,51.6
				c0.4,0.8,0.9,1.2,1.6,1.2h5.2c0.8,0,1.2,0.4,1.2,1.2c0,0.8-0.4,1.2-1.2,1.2h-15.1c-0.8,0-1.2-0.4-1.2-1.2c0-0.8,0.4-1.2,1.2-1.2
				h4.8c0.9,0,1.2-0.4,0.8-1.2L1099.7,283.8z M1087,250.9c-0.1-0.3-0.3-0.5-0.5-0.5s-0.4,0.2-0.5,0.5l-10.9,28.2
				c-0.4,0.8-0.1,1.2,0.9,1.2h20.9c1,0,1.2-0.4,0.9-1.2L1087,250.9z"/>
			<path class="st34" d="M1187.2,283.8c-0.3-0.7-1-1.1-1.9-1.1h-22.5c-1,0-1.6,0.4-1.9,1.1l-5.6,14.7c-0.4,0.8-0.2,1.2,0.8,1.2h4.8
				c0.8,0,1.2,0.4,1.2,1.2c0,0.8-0.4,1.2-1.2,1.2h-15.1c-0.8,0-1.2-0.4-1.2-1.2c0-0.8,0.4-1.2,1.2-1.2h5.2c0.6,0,1.2-0.4,1.6-1.2
				l19.8-51.6c0.1-0.4,0.3-0.7,0.7-0.9c0.3-0.2,0.7-0.3,1.1-0.3c0.4,0,0.7,0.1,1.1,0.3c0.3,0.2,0.6,0.5,0.7,0.9l19.8,51.6
				c0.4,0.8,0.9,1.2,1.6,1.2h5.2c0.8,0,1.2,0.4,1.2,1.2c0,0.8-0.4,1.2-1.2,1.2h-15.1c-0.8,0-1.2-0.4-1.2-1.2c0-0.8,0.4-1.2,1.2-1.2
				h4.8c0.9,0,1.2-0.4,0.8-1.2L1187.2,283.8z M1174.6,250.9c-0.1-0.3-0.3-0.5-0.5-0.5s-0.4,0.2-0.5,0.5l-10.9,28.2
				c-0.4,0.8-0.1,1.2,0.9,1.2h20.9c1,0,1.2-0.4,0.9-1.2L1174.6,250.9z"/>
			<path class="st34" d="M1248.1,279.9c-0.8,0-1.2,0.4-1.2,1.2v17.5c0,0.8,0.4,1.2,1.2,1.2h6.3c0.8,0,1.2,0.4,1.2,1.2
				c0,0.8-0.4,1.2-1.2,1.2h-16.7c-0.8,0-1.2-0.4-1.2-1.2c0-0.8,0.4-1.2,1.2-1.2h5.6c0.8,0,1.2-0.4,1.2-1.2v-48.4
				c0-0.8-0.4-1.2-1.2-1.2h-5.6c-0.8,0-1.2-0.4-1.2-1.2c0-0.8,0.4-1.2,1.2-1.2h26.6c5.2,0,9.2,1.4,11.9,4.2c2.7,2.8,4,7,4,12.4
				c0,5.4-1.3,9.6-4,12.4c-2.7,2.8-6.6,4.2-11.9,4.2H1248.1z M1264.4,277.5c9,0,13.5-4.8,13.5-14.3c0-9.5-4.5-14.3-13.5-14.3h-16.3
				c-0.8,0-1.2,0.4-1.2,1.2v26.2c0,0.8,0.4,1.2,1.2,1.2H1264.4z"/>
			<path class="st34" d="M1299,294.8c-4.9-5.4-7.3-12.2-7.3-20.5c0-8.3,2.4-15.1,7.3-20.5c4.9-5.4,11.3-8.1,19.3-8.1
				c8,0,14.4,2.7,19.3,8.1c4.9,5.4,7.3,12.2,7.3,20.5c0,8.3-2.4,15.1-7.3,20.5c-4.9,5.4-11.3,8.1-19.3,8.1
				C1310.3,302.9,1303.9,300.2,1299,294.8z M1300.8,255.5c-4.4,4.9-6.7,11.2-6.7,18.8c0,7.6,2.2,13.9,6.7,18.8s10.3,7.4,17.5,7.4
				c7.2,0,13.1-2.5,17.5-7.4c4.4-4.9,6.7-11.2,6.7-18.8c0-7.6-2.2-13.9-6.7-18.8c-4.4-4.9-10.3-7.4-17.5-7.4
				C1311.1,248.1,1305.2,250.6,1300.8,255.5z"/>
			<path class="st34" d="M1357.4,299.7h5.6c0.8,0,1.2-0.4,1.2-1.2v-48.4c0-0.8-0.4-1.2-1.2-1.2h-5.6c-0.8,0-1.2-0.4-1.2-1.2
				c0-0.8,0.4-1.2,1.2-1.2h8.7c0.8,0,1.5,0.4,2,1.2l32.5,49.6c0.1,0.2,0.3,0.3,0.5,0.3s0.3-0.2,0.3-0.7v-46.8c0-0.8-0.4-1.2-1.2-1.2
				h-4.8c-0.8,0-1.2-0.4-1.2-1.2c0-0.8,0.4-1.2,1.2-1.2h15.1c0.8,0,1.2,0.4,1.2,1.2c0,0.8-0.4,1.2-1.2,1.2h-5.6
				c-0.8,0-1.2,0.4-1.2,1.2v48.4c0,0.8,0.4,1.2,1.2,1.2h5.6c0.8,0,1.2,0.4,1.2,1.2c0,0.8-0.4,1.2-1.2,1.2h-8.7c-0.8,0-1.5-0.4-2-1.2
				l-32.5-49.6c-0.1-0.2-0.3-0.3-0.5-0.3c-0.2,0-0.3,0.3-0.3,0.7v46.8c0,0.8,0.4,1.2,1.2,1.2h4.8c0.8,0,1.2,0.4,1.2,1.2
				c0,0.8-0.4,1.2-1.2,1.2h-15.1c-0.8,0-1.2-0.4-1.2-1.2C1356.2,300.1,1356.6,299.7,1357.4,299.7z"/>
			<path class="st34" d="M1420.9,259.2v-11.5c0-0.8,0.4-1.2,1.2-1.2h42.8c0.8,0,1.2,0.4,1.2,1.2v11.5c0,0.8-0.4,1.2-1.2,1.2
				c-0.8,0-1.2-0.4-1.2-1.2v-9.1c0-0.8-0.4-1.2-1.2-1.2h-16.7c-0.8,0-1.2,0.4-1.2,1.2v48.4c0,0.8,0.4,1.2,1.2,1.2h5.6
				c0.8,0,1.2,0.4,1.2,1.2c0,0.8-0.4,1.2-1.2,1.2h-15.9c-0.8,0-1.2-0.4-1.2-1.2c0-0.8,0.4-1.2,1.2-1.2h5.6c0.8,0,1.2-0.4,1.2-1.2
				v-48.4c0-0.8-0.4-1.2-1.2-1.2h-16.7c-0.8,0-1.2,0.4-1.2,1.2v9.1c0,0.8-0.4,1.2-1.2,1.2C1421.3,260.4,1420.9,260,1420.9,259.2z"/>
			<path class="st34" d="M1510,283.8c-0.3-0.7-1-1.1-1.9-1.1h-22.5c-1,0-1.6,0.4-1.9,1.1l-5.6,14.7c-0.4,0.8-0.2,1.2,0.8,1.2h4.8
				c0.8,0,1.2,0.4,1.2,1.2c0,0.8-0.4,1.2-1.2,1.2h-15.1c-0.8,0-1.2-0.4-1.2-1.2c0-0.8,0.4-1.2,1.2-1.2h5.2c0.6,0,1.2-0.4,1.6-1.2
				l19.8-51.6c0.1-0.4,0.3-0.7,0.7-0.9c0.3-0.2,0.7-0.3,1.1-0.3c0.4,0,0.7,0.1,1.1,0.3c0.3,0.2,0.6,0.5,0.7,0.9l19.8,51.6
				c0.4,0.8,0.9,1.2,1.6,1.2h5.2c0.8,0,1.2,0.4,1.2,1.2c0,0.8-0.4,1.2-1.2,1.2h-15.1c-0.8,0-1.2-0.4-1.2-1.2c0-0.8,0.4-1.2,1.2-1.2
				h4.8c0.9,0,1.2-0.4,0.8-1.2L1510,283.8z M1497.3,250.9c-0.1-0.3-0.3-0.5-0.5-0.5s-0.4,0.2-0.5,0.5l-10.9,28.2
				c-0.4,0.8-0.1,1.2,0.9,1.2h20.9c1,0,1.2-0.4,0.9-1.2L1497.3,250.9z"/>
		</g>
		<g>
			<path class="st35" d="M691.4,216.2c-3.5-3.8-5.2-8.7-5.2-14.6c0-5.9,1.7-10.8,5.2-14.6c3.5-3.8,8-5.7,13.7-5.7
				c5.7,0,10.3,1.9,13.7,5.7c3.5,3.8,5.2,8.7,5.2,14.6c0,5.9-1.7,10.8-5.2,14.6c-3.5,3.8-8,5.7-13.7,5.7
				C699.4,222,694.8,220,691.4,216.2z M692.6,188.2c-3.2,3.5-4.8,8-4.8,13.4c0,5.4,1.6,9.9,4.8,13.4c3.2,3.5,7.3,5.3,12.5,5.3
				c5.2,0,9.3-1.8,12.5-5.3c3.2-3.5,4.8-8,4.8-13.4c0-5.4-1.6-9.9-4.8-13.4c-3.2-3.5-7.3-5.3-12.5-5.3
				C699.9,182.9,695.8,184.7,692.6,188.2z"/>
			<path class="st35" d="M731.2,190.9v-8.2c0-0.6,0.3-0.8,0.8-0.8h30.5c0.6,0,0.8,0.3,0.8,0.8v8.2c0,0.6-0.3,0.8-0.8,0.8
				c-0.6,0-0.8-0.3-0.8-0.8v-6.5c0-0.6-0.3-0.8-0.8-0.8H749c-0.6,0-0.8,0.3-0.8,0.8v34.5c0,0.6,0.3,0.8,0.8,0.8h4
				c0.6,0,0.8,0.3,0.8,0.8c0,0.6-0.3,0.8-0.8,0.8h-11.3c-0.6,0-0.8-0.3-0.8-0.8c0-0.6,0.3-0.8,0.8-0.8h4c0.6,0,0.8-0.3,0.8-0.8
				v-34.5c0-0.6-0.3-0.8-0.8-0.8h-11.9c-0.6,0-0.8,0.3-0.8,0.8v6.5c0,0.6-0.3,0.8-0.8,0.8C731.5,191.7,731.2,191.4,731.2,190.9z"/>
			<path class="st35" d="M770.1,220.5c0-0.6,0.3-0.8,0.8-0.8h4c0.6,0,0.8-0.3,0.8-0.8v-34.5c0-0.6-0.3-0.8-0.8-0.8h-4
				c-0.6,0-0.8-0.3-0.8-0.8c0-0.6,0.3-0.8,0.8-0.8h11.3c0.6,0,0.8,0.3,0.8,0.8c0,0.6-0.3,0.8-0.8,0.8h-4c-0.6,0-0.8,0.3-0.8,0.8
				v34.5c0,0.6,0.3,0.8,0.8,0.8h4c0.6,0,0.8,0.3,0.8,0.8c0,0.6-0.3,0.8-0.8,0.8H771C770.4,221.4,770.1,221.1,770.1,220.5z"/>
			<path class="st35" d="M792,219.7h4c0.6,0,0.8-0.3,0.8-0.8v-34.5c0-0.6-0.3-0.8-0.8-0.8h-4c-0.6,0-0.8-0.3-0.8-0.8
				c0-0.6,0.3-0.8,0.8-0.8h6.2c0.7,0,1.2,0.3,1.4,0.8l15.8,35.1c0.4,0.8,0.8,0.8,1.1,0l15.8-35.1c0.3-0.6,0.7-0.8,1.4-0.8h6.2
				c0.6,0,0.8,0.3,0.8,0.8c0,0.6-0.3,0.8-0.8,0.8h-4c-0.6,0-0.8,0.3-0.8,0.8v34.5c0,0.6,0.3,0.8,0.8,0.8h4c0.6,0,0.8,0.3,0.8,0.8
				c0,0.6-0.3,0.8-0.8,0.8h-10.7c-0.6,0-0.8-0.3-0.8-0.8c0-0.6,0.3-0.8,0.8-0.8h3.4c0.6,0,0.8-0.3,0.8-0.8v-33.1
				c0-0.2,0-0.3-0.1-0.4c-0.1-0.1-0.1-0.1-0.2-0.1c-0.1,0-0.1,0.1-0.2,0.2l-15.8,35.1c-0.3,0.6-0.7,0.8-1.2,0.8
				c-0.5,0-0.9-0.3-1.2-0.8L799,185.5c-0.1-0.1-0.1-0.2-0.2-0.2c-0.1,0-0.1,0-0.2,0.1c-0.1,0.1-0.1,0.2-0.1,0.4v33.1
				c0,0.6,0.3,0.8,0.8,0.8h3.4c0.6,0,0.8,0.3,0.8,0.8c0,0.6-0.3,0.8-0.8,0.8H792c-0.6,0-0.8-0.3-0.8-0.8
				C791.2,220,791.5,219.7,792,219.7z"/>
			<path class="st35" d="M849,220.5c0-0.6,0.3-0.8,0.8-0.8h4c0.6,0,0.8-0.3,0.8-0.8v-34.5c0-0.6-0.3-0.8-0.8-0.8h-4
				c-0.6,0-0.8-0.3-0.8-0.8c0-0.6,0.3-0.8,0.8-0.8h11.3c0.6,0,0.8,0.3,0.8,0.8c0,0.6-0.3,0.8-0.8,0.8h-4c-0.6,0-0.8,0.3-0.8,0.8
				v34.5c0,0.6,0.3,0.8,0.8,0.8h4c0.6,0,0.8,0.3,0.8,0.8c0,0.6-0.3,0.8-0.8,0.8h-11.3C849.2,221.4,849,221.1,849,220.5z"/>
			<path class="st35" d="M870.2,220.4c0-0.1,0.2-0.6,0.7-1.3l25.4-34.7c0.2-0.2,0.3-0.4,0.2-0.6c-0.1-0.2-0.4-0.3-0.8-0.3H873
				c-0.6,0-0.8,0.3-0.8,0.8v6.2c0,0.6-0.3,0.8-0.8,0.8s-0.8-0.3-0.8-0.8v-7.9c0-0.6,0.3-0.8,0.8-0.8h27.1c0.6,0,0.8,0.3,0.8,1
				c0,0.2-0.2,0.6-0.7,1.3l-25.4,34.7c-0.2,0.2-0.3,0.4-0.2,0.6c0.1,0.2,0.4,0.3,0.8,0.3h22.6c0.6,0,0.8-0.3,0.8-0.8v-6.2
				c0-0.6,0.3-0.8,0.8-0.8s0.8,0.3,0.8,0.8v7.9c0,0.6-0.3,0.8-0.8,0.8h-27.1C870.5,221.4,870.2,221.1,870.2,220.4z"/>
			<path class="st35" d="M934.9,208.4c-0.2-0.5-0.7-0.8-1.4-0.8h-16.1c-0.7,0-1.1,0.3-1.4,0.8l-4,10.5c-0.3,0.6-0.1,0.8,0.6,0.8h3.4
				c0.6,0,0.8,0.3,0.8,0.8c0,0.6-0.3,0.8-0.8,0.8h-10.7c-0.6,0-0.8-0.3-0.8-0.8c0-0.6,0.3-0.8,0.8-0.8h3.7c0.5,0,0.8-0.3,1.1-0.8
				l14.1-36.8c0.1-0.3,0.2-0.5,0.5-0.6c0.2-0.2,0.5-0.2,0.8-0.2s0.5,0.1,0.8,0.2c0.2,0.2,0.4,0.4,0.5,0.6l14.1,36.8
				c0.3,0.6,0.6,0.8,1.1,0.8h3.7c0.6,0,0.8,0.3,0.8,0.8c0,0.6-0.3,0.8-0.8,0.8h-10.7c-0.6,0-0.8-0.3-0.8-0.8c0-0.6,0.3-0.8,0.8-0.8
				h3.4c0.6,0,0.8-0.3,0.6-0.8L934.9,208.4z M925.8,184.9c-0.1-0.2-0.2-0.3-0.3-0.3c-0.2,0-0.3,0.1-0.3,0.3l-7.7,20.1
				c-0.3,0.6-0.1,0.8,0.6,0.8h14.9c0.7,0,0.9-0.3,0.6-0.8L925.8,184.9z"/>
			<path class="st35" d="M950.6,201.6c0-5.9,1.7-10.7,5-14.5c3.3-3.9,7.6-5.8,12.8-5.8c4.6,0,8.7,1.6,12.4,4.8
				c0.6,0.5,0.9,0.3,0.9-0.6v-2.8c0-0.6,0.3-0.8,0.8-0.8c0.6,0,0.8,0.3,0.8,0.8v10.7c0,0.6-0.3,0.8-0.8,0.8c-0.6,0-0.8-0.3-0.8-0.8
				v-4c-1-1.2-2.2-2.2-3.6-3.2c-3.1-2.2-6.3-3.3-9.7-3.3c-4.6,0-8.5,1.8-11.5,5.3c-3.1,3.6-4.6,8-4.6,13.3c0,5.4,1.6,9.9,4.8,13.4
				c3.2,3.5,7.3,5.3,12.5,5.3c2.6,0,5-0.4,7.2-1.3c2.2-0.9,4.1-2.1,5.7-3.8c0.4-0.4,0.8-0.4,1.2,0c0.4,0.4,0.4,0.8,0,1.2
				c-1.8,1.8-3.9,3.2-6.1,4.2c-2.3,1-4.9,1.5-8,1.5c-5.7,0-10.3-1.9-13.7-5.7C952.4,212.4,950.6,207.5,950.6,201.6z M968,229.9
				c2.6,0,4-0.8,4-2.3c0-0.6-0.2-1.2-0.7-1.6c-0.5-0.4-1.2-0.7-2.1-0.7h-0.8c-0.6,0-0.8-0.3-0.8-0.8v-3.1c0-0.6,0.3-0.8,0.8-0.8
				c0.6,0,0.8,0.3,0.8,0.8v2.3c1.4,0,2.5,0.4,3.3,1.1c0.8,0.7,1.2,1.7,1.2,2.9c0,1.2-0.5,2.2-1.4,2.9c-0.9,0.7-2.3,1.1-4.3,1.1
				c-0.6,0-0.8-0.3-0.8-0.8C967.2,230.2,967.5,229.9,968,229.9z"/>
			<path class="st35" d="M1019.1,208.4c-0.2-0.5-0.7-0.8-1.4-0.8h-16.1c-0.7,0-1.1,0.3-1.4,0.8l-4,10.5c-0.3,0.6-0.1,0.8,0.6,0.8
				h3.4c0.6,0,0.8,0.3,0.8,0.8c0,0.6-0.3,0.8-0.8,0.8h-10.7c-0.6,0-0.8-0.3-0.8-0.8c0-0.6,0.3-0.8,0.8-0.8h3.7
				c0.5,0,0.8-0.3,1.1-0.8l14.1-36.8c0.1-0.3,0.2-0.5,0.5-0.6c0.2-0.2,0.5-0.2,0.8-0.2c0.3,0,0.5,0.1,0.8,0.2
				c0.2,0.2,0.4,0.4,0.5,0.6l14.1,36.8c0.3,0.6,0.6,0.8,1.1,0.8h3.7c0.6,0,0.8,0.3,0.8,0.8c0,0.6-0.3,0.8-0.8,0.8h-10.7
				c-0.6,0-0.8-0.3-0.8-0.8c0-0.6,0.3-0.8,0.8-0.8h3.4c0.6,0,0.8-0.3,0.6-0.8L1019.1,208.4z M1010,184.9c-0.1-0.2-0.2-0.3-0.3-0.3
				c-0.2,0-0.3,0.1-0.3,0.3l-7.7,20.1c-0.3,0.6-0.1,0.8,0.6,0.8h14.9c0.7,0,0.9-0.3,0.6-0.8L1010,184.9z M1002.6,178.4
				c0-1.6,0.4-2.9,1.1-3.8c0.7-0.9,1.7-1.3,2.9-1.3c0.8,0,1.5,0.2,2.1,0.7c0.6,0.4,1.1,0.9,1.4,1.5c0.3,0.5,0.7,1,1.2,1.5
				c0.5,0.4,1,0.7,1.6,0.7c1.5,0,2.3-1.1,2.3-3.4c0-0.6,0.3-0.8,0.8-0.8c0.6,0,0.8,0.3,0.8,0.8c0,1.7-0.4,2.9-1.1,3.8
				c-0.7,0.9-1.7,1.3-2.9,1.3c-0.8,0-1.5-0.2-2.1-0.7c-0.6-0.4-1.1-0.9-1.4-1.5c-0.3-0.5-0.7-1-1.2-1.5c-0.5-0.4-1-0.6-1.6-0.6
				c-1.5,0-2.3,1.1-2.3,3.4c0,0.6-0.3,0.8-0.8,0.8C1002.9,179.2,1002.6,178.9,1002.6,178.4z"/>
			<path class="st35" d="M1040,216.2c-3.5-3.8-5.2-8.7-5.2-14.6c0-5.9,1.7-10.8,5.2-14.6c3.5-3.8,8-5.7,13.7-5.7
				c5.7,0,10.3,1.9,13.7,5.7c3.5,3.8,5.2,8.7,5.2,14.6c0,5.9-1.7,10.8-5.2,14.6c-3.5,3.8-8,5.7-13.7,5.7
				C1048,222,1043.4,220,1040,216.2z M1041.2,188.2c-3.2,3.5-4.8,8-4.8,13.4c0,5.4,1.6,9.9,4.8,13.4c3.2,3.5,7.3,5.3,12.5,5.3
				c5.2,0,9.3-1.8,12.5-5.3c3.2-3.5,4.8-8,4.8-13.4c0-5.4-1.6-9.9-4.8-13.4c-3.2-3.5-7.3-5.3-12.5-5.3
				C1048.6,182.9,1044.4,184.7,1041.2,188.2z"/>
			<path class="st35" d="M1100,220.5c0-0.6,0.3-0.8,0.8-0.8h4c0.6,0,0.8-0.3,0.8-0.8v-34.5c0-0.6-0.3-0.8-0.8-0.8h-4
				c-0.6,0-0.8-0.3-0.8-0.8c0-0.6,0.3-0.8,0.8-0.8h15.8c5.7,0,10.3,1.9,13.7,5.7c3.5,3.8,5.2,8.5,5.2,14.1c0,5.7-1.7,10.4-5.2,14.1
				c-3.5,3.8-8,5.7-13.7,5.7h-15.8C1100.3,221.4,1100,221.1,1100,220.5z M1107.4,218.9c0,0.6,0.3,0.8,0.8,0.8h8.5
				c5.1,0,9.3-1.7,12.5-5.1c3.2-3.4,4.8-7.7,4.8-12.9c0-5.2-1.6-9.5-4.8-12.9c-3.2-3.4-7.3-5.1-12.5-5.1h-8.5
				c-0.6,0-0.8,0.3-0.8,0.8V218.9z"/>
			<path class="st35" d="M1143.7,220.5c0-0.6,0.3-0.8,0.8-0.8h4c0.6,0,0.8-0.3,0.8-0.8v-34.5c0-0.6-0.3-0.8-0.8-0.8h-4
				c-0.6,0-0.8-0.3-0.8-0.8c0-0.6,0.3-0.8,0.8-0.8h26.9c0.6,0,0.8,0.3,0.8,0.8v7.9c0,0.6-0.3,0.8-0.8,0.8c-0.6,0-0.8-0.3-0.8-0.8
				v-6.2c0-0.6-0.3-0.8-0.8-0.8h-17.8c-0.6,0-0.8,0.3-0.8,0.8v15.3c0,0.6,0.3,0.8,0.8,0.8h12.7c0.6,0,0.8-0.3,0.8-0.8v-2.8
				c0-0.6,0.3-0.8,0.8-0.8c0.6,0,0.8,0.3,0.8,0.8v9c0,0.6-0.3,0.8-0.8,0.8c-0.6,0-0.8-0.3-0.8-0.8V203c0-0.6-0.3-0.8-0.8-0.8h-12.7
				c-0.6,0-0.8,0.3-0.8,0.8v15.8c0,0.6,0.3,0.8,0.8,0.8h18.4c0.6,0,0.8-0.3,0.8-0.8v-6.2c0-0.6,0.3-0.8,0.8-0.8
				c0.6,0,0.8,0.3,0.8,0.8v7.9c0,0.6-0.3,0.8-0.8,0.8h-27.4C1144,221.4,1143.7,221.1,1143.7,220.5z"/>
			<path class="st35" d="M1207.2,218.9c0,0.6,0.3,0.8,0.8,0.8h3.4c0.6,0,0.8,0.3,0.8,0.8c0,0.6-0.3,0.8-0.8,0.8h-10.7
				c-0.6,0-0.8-0.3-0.8-0.8c0-0.6,0.3-0.8,0.8-0.8h4c0.6,0,0.8-0.3,0.8-0.8v-34.5c0-0.6-0.3-0.8-0.8-0.8h-4c-0.6,0-0.8-0.3-0.8-0.8
				c0-0.6,0.3-0.8,0.8-0.8h18.9c3.7,0,6.5,0.9,8.4,2.8c1.9,1.9,2.9,4.5,2.9,7.9s-1,6-2.9,7.9s-4.7,2.8-8.4,2.8h-0.3
				c-0.3,0-0.5,0.1-0.6,0.3c-0.1,0.2-0.1,0.4,0.1,0.6l10.7,14.7c0.5,0.6,1,0.8,1.4,0.8h3.7c0.6,0,0.8,0.3,0.8,0.8
				c0,0.6-0.3,0.8-0.8,0.8h-11.3c-0.6,0-0.8-0.3-0.8-0.8c0-0.6,0.3-0.8,0.8-0.8h3.7c0.7,0,0.8-0.3,0.3-0.8l-11.3-15.6h-7.9
				c-0.6,0-0.8,0.3-0.8,0.8V218.9z M1219.7,201.6c3.1,0,5.5-0.8,7.1-2.4c1.7-1.6,2.5-3.8,2.5-6.7s-0.8-5.1-2.5-6.7
				c-1.7-1.6-4-2.4-7.1-2.4h-11.6c-0.6,0-0.8,0.3-0.8,0.8v16.4c0,0.6,0.3,0.8,0.8,0.8H1219.7z"/>
			<path class="st35" d="M1241.6,220.5c0-0.6,0.3-0.8,0.8-0.8h4c0.6,0,0.8-0.3,0.8-0.8v-34.5c0-0.6-0.3-0.8-0.8-0.8h-4
				c-0.6,0-0.8-0.3-0.8-0.8c0-0.6,0.3-0.8,0.8-0.8h26.9c0.6,0,0.8,0.3,0.8,0.8v7.9c0,0.6-0.3,0.8-0.8,0.8c-0.6,0-0.8-0.3-0.8-0.8
				v-6.2c0-0.6-0.3-0.8-0.8-0.8h-17.8c-0.6,0-0.8,0.3-0.8,0.8v15.3c0,0.6,0.3,0.8,0.8,0.8h12.7c0.6,0,0.8-0.3,0.8-0.8v-2.8
				c0-0.6,0.3-0.8,0.8-0.8c0.6,0,0.8,0.3,0.8,0.8v9c0,0.6-0.3,0.8-0.8,0.8c-0.6,0-0.8-0.3-0.8-0.8V203c0-0.6-0.3-0.8-0.8-0.8h-12.7
				c-0.6,0-0.8,0.3-0.8,0.8v15.8c0,0.6,0.3,0.8,0.8,0.8h18.4c0.6,0,0.8-0.3,0.8-0.8v-6.2c0-0.6,0.3-0.8,0.8-0.8
				c0.6,0,0.8,0.3,0.8,0.8v7.9c0,0.6-0.3,0.8-0.8,0.8h-27.4C1241.9,221.4,1241.6,221.1,1241.6,220.5z"/>
			<path class="st35" d="M1279.6,201.6c0-5.9,1.7-10.7,5-14.5c3.3-3.9,7.6-5.8,12.8-5.8c4.6,0,8.7,1.6,12.4,4.8
				c0.6,0.5,0.9,0.3,0.9-0.6v-2.8c0-0.6,0.3-0.8,0.8-0.8s0.8,0.3,0.8,0.8v10.7c0,0.6-0.3,0.8-0.8,0.8s-0.8-0.3-0.8-0.8v-4
				c-1-1.2-2.2-2.2-3.6-3.2c-3.1-2.2-6.3-3.3-9.7-3.3c-4.6,0-8.5,1.8-11.5,5.3c-3.1,3.6-4.6,8-4.6,13.3c0,5.4,1.6,9.9,4.8,13.4
				c3.2,3.5,7.3,5.3,12.5,5.3c2.6,0,5-0.4,7.2-1.3c2.2-0.9,4.1-2.1,5.7-3.8c0.4-0.4,0.8-0.4,1.2,0c0.4,0.4,0.4,0.8,0,1.2
				c-1.8,1.8-3.9,3.2-6.1,4.2c-2.3,1-4.9,1.5-8,1.5c-5.7,0-10.3-1.9-13.7-5.7C1281.3,212.4,1279.6,207.5,1279.6,201.6z"/>
			<path class="st35" d="M1320.8,181.8h10.7c0.6,0,0.8,0.3,0.8,0.8c0,0.6-0.3,0.8-0.8,0.8h-3.4c-0.6,0-0.8,0.3-0.8,0.8v22.9
				c0,3.9,1.2,7.1,3.7,9.4c2.5,2.4,5.6,3.6,9.3,3.6c3.8,0,6.9-1.2,9.3-3.6c2.5-2.4,3.7-5.5,3.7-9.4v-22.9c0-0.6-0.3-0.8-0.8-0.8
				h-3.4c-0.6,0-0.8-0.3-0.8-0.8c0-0.6,0.3-0.8,0.8-0.8h10.7c0.6,0,0.8,0.3,0.8,0.8c0,0.6-0.3,0.8-0.8,0.8h-4
				c-0.6,0-0.8,0.3-0.8,0.8v22.9c0,4.3-1.4,7.9-4.2,10.6c-2.8,2.7-6.3,4.1-10.5,4.1c-4.3,0-7.8-1.4-10.5-4.1
				c-2.8-2.7-4.2-6.3-4.2-10.6v-22.9c0-0.6-0.3-0.8-0.8-0.8h-4c-0.6,0-0.8-0.3-0.8-0.8C1320,182.1,1320.3,181.8,1320.8,181.8z"/>
			<path class="st35" d="M1375.1,218.9c0,0.6,0.3,0.8,0.8,0.8h3.4c0.6,0,0.8,0.3,0.8,0.8c0,0.6-0.3,0.8-0.8,0.8h-10.7
				c-0.6,0-0.8-0.3-0.8-0.8c0-0.6,0.3-0.8,0.8-0.8h4c0.6,0,0.8-0.3,0.8-0.8v-34.5c0-0.6-0.3-0.8-0.8-0.8h-4c-0.6,0-0.8-0.3-0.8-0.8
				c0-0.6,0.3-0.8,0.8-0.8h18.9c3.7,0,6.5,0.9,8.4,2.8c1.9,1.9,2.9,4.5,2.9,7.9s-1,6-2.9,7.9s-4.7,2.8-8.4,2.8h-0.3
				c-0.3,0-0.5,0.1-0.6,0.3c-0.1,0.2-0.1,0.4,0.1,0.6l10.7,14.7c0.5,0.6,1,0.8,1.4,0.8h3.7c0.6,0,0.8,0.3,0.8,0.8
				c0,0.6-0.3,0.8-0.8,0.8h-11.3c-0.6,0-0.8-0.3-0.8-0.8c0-0.6,0.3-0.8,0.8-0.8h3.7c0.7,0,0.8-0.3,0.3-0.8l-11.3-15.6h-7.9
				c-0.6,0-0.8,0.3-0.8,0.8V218.9z M1387.5,201.6c3.1,0,5.5-0.8,7.1-2.4c1.7-1.6,2.5-3.8,2.5-6.7s-0.8-5.1-2.5-6.7
				c-1.7-1.6-4-2.4-7.1-2.4h-11.6c-0.6,0-0.8,0.3-0.8,0.8v16.4c0,0.6,0.3,0.8,0.8,0.8H1387.5z"/>
			<path class="st35" d="M1425.9,220.3c2,0,3.8-0.2,5.3-0.7c1.5-0.5,2.8-1.1,3.8-1.9s1.8-1.8,2.3-2.9c0.5-1.1,0.7-2.3,0.7-3.6
				c0-1.5-0.5-2.8-1.4-3.8c-0.9-1.1-2.1-2-3.5-2.6c-1.2-0.6-2.6-1.1-4.2-1.5c-1.5-0.4-3.1-0.9-4.7-1.3c-1.6-0.4-3.1-0.9-4.7-1.4
				c-1.5-0.5-2.9-1-4.2-1.7c-1.5-0.8-2.8-1.8-3.7-3c-0.9-1.2-1.4-2.8-1.4-4.8c0-1.3,0.2-2.5,0.7-3.7c0.5-1.2,1.2-2.2,2.2-3.2
				c1-0.9,2.4-1.7,4-2.2c1.7-0.5,3.7-0.8,6.1-0.8c1.5,0,2.9,0.2,4.2,0.5c1.3,0.3,2.5,0.8,3.5,1.2c1.1,0.5,2,1,2.8,1.6
				c0.8,0.6,1.4,1.1,1.9,1.5c0.4,0.3,0.6,0.4,0.7,0.2c0.1-0.2,0.2-0.4,0.2-0.7v-2.8c0-0.6,0.3-0.8,0.8-0.8c0.6,0,0.8,0.3,0.8,0.8
				v10.7c0,0.6-0.3,0.8-0.8,0.8c-0.6,0-0.8-0.3-0.8-0.8v-4c-1-1.2-2.2-2.2-3.6-3.2c-1.2-0.8-2.6-1.6-4.2-2.3c-1.6-0.7-3.5-1-5.5-1
				c-2,0-3.8,0.2-5.2,0.7c-1.4,0.5-2.6,1.1-3.5,1.8c-0.9,0.8-1.6,1.6-2,2.6c-0.4,1-0.6,2-0.6,3.1c0,1.5,0.5,2.8,1.4,3.8
				c0.9,1.1,2.1,2,3.5,2.6c1.2,0.6,2.6,1.1,4.2,1.5c1.5,0.4,3.1,0.9,4.7,1.3c1.6,0.4,3.1,0.9,4.7,1.4c1.5,0.5,2.9,1,4.2,1.7
				c1.5,0.8,2.8,1.8,3.7,3c0.9,1.2,1.4,2.8,1.4,4.8c0,1.5-0.3,3-0.9,4.3c-0.6,1.3-1.5,2.5-2.6,3.4c-1.2,1-2.6,1.7-4.3,2.2
				c-1.7,0.5-3.7,0.8-6,0.8c-1.6,0-3.1-0.2-4.5-0.5c-1.4-0.3-2.6-0.8-3.7-1.3c-1.1-0.5-2-1-2.8-1.6c-0.8-0.5-1.4-1-1.9-1.4
				c-0.4-0.3-0.6-0.4-0.7-0.2c-0.1,0.2-0.2,0.4-0.2,0.7v2.8c0,0.6-0.3,0.8-0.8,0.8c-0.6,0-0.8-0.3-0.8-0.8v-10.7
				c0-0.6,0.3-0.8,0.8-0.8c0.6,0,0.8,0.3,0.8,0.8v4.2c1,1.2,2.2,2.2,3.6,3.1c1.2,0.8,2.7,1.5,4.4,2.1S1423.7,220.3,1425.9,220.3z"/>
			<path class="st35" d="M1454.2,216.2c-3.5-3.8-5.2-8.7-5.2-14.6c0-5.9,1.7-10.8,5.2-14.6c3.5-3.8,8-5.7,13.7-5.7
				c5.7,0,10.3,1.9,13.7,5.7c3.5,3.8,5.2,8.7,5.2,14.6c0,5.9-1.7,10.8-5.2,14.6c-3.5,3.8-8,5.7-13.7,5.7
				C1462.2,222,1457.6,220,1454.2,216.2z M1455.4,188.2c-3.2,3.5-4.8,8-4.8,13.4c0,5.4,1.6,9.9,4.8,13.4c3.2,3.5,7.3,5.3,12.5,5.3
				c5.2,0,9.3-1.8,12.5-5.3c3.2-3.5,4.8-8,4.8-13.4c0-5.4-1.6-9.9-4.8-13.4c-3.2-3.5-7.3-5.3-12.5-5.3
				C1462.7,182.9,1458.6,184.7,1455.4,188.2z"/>
			<path class="st35" d="M1512.5,220.3c2,0,3.8-0.2,5.3-0.7c1.5-0.5,2.8-1.1,3.8-1.9c1-0.8,1.8-1.8,2.3-2.9c0.5-1.1,0.7-2.3,0.7-3.6
				c0-1.5-0.5-2.8-1.4-3.8c-0.9-1.1-2.1-2-3.5-2.6c-1.2-0.6-2.6-1.1-4.2-1.5c-1.5-0.4-3.1-0.9-4.7-1.3c-1.6-0.4-3.1-0.9-4.7-1.4
				c-1.5-0.5-2.9-1-4.2-1.7c-1.5-0.8-2.8-1.8-3.7-3c-0.9-1.2-1.4-2.8-1.4-4.8c0-1.3,0.2-2.5,0.7-3.7c0.5-1.2,1.2-2.2,2.2-3.2
				c1-0.9,2.4-1.7,4-2.2c1.7-0.5,3.7-0.8,6.1-0.8c1.5,0,2.9,0.2,4.2,0.5c1.3,0.3,2.5,0.8,3.5,1.2c1.1,0.5,2,1,2.8,1.6
				c0.8,0.6,1.4,1.1,1.9,1.5c0.4,0.3,0.6,0.4,0.7,0.2c0.1-0.2,0.2-0.4,0.2-0.7v-2.8c0-0.6,0.3-0.8,0.8-0.8c0.6,0,0.8,0.3,0.8,0.8
				v10.7c0,0.6-0.3,0.8-0.8,0.8c-0.6,0-0.8-0.3-0.8-0.8v-4c-1-1.2-2.2-2.2-3.6-3.2c-1.2-0.8-2.6-1.6-4.2-2.3c-1.6-0.7-3.5-1-5.5-1
				c-2,0-3.8,0.2-5.2,0.7c-1.4,0.5-2.6,1.1-3.5,1.8s-1.6,1.6-2,2.6c-0.4,1-0.6,2-0.6,3.1c0,1.5,0.5,2.8,1.4,3.8
				c0.9,1.1,2.1,2,3.5,2.6c1.2,0.6,2.6,1.1,4.2,1.5s3.1,0.9,4.7,1.3c1.6,0.4,3.1,0.9,4.7,1.4c1.5,0.5,2.9,1,4.2,1.7
				c1.5,0.8,2.8,1.8,3.7,3c0.9,1.2,1.4,2.8,1.4,4.8c0,1.5-0.3,3-0.9,4.3c-0.6,1.3-1.5,2.5-2.6,3.4c-1.2,1-2.6,1.7-4.3,2.2
				c-1.7,0.5-3.7,0.8-6,0.8c-1.6,0-3.1-0.2-4.5-0.5c-1.4-0.3-2.6-0.8-3.7-1.3c-1.1-0.5-2-1-2.8-1.6c-0.8-0.5-1.4-1-1.9-1.4
				c-0.4-0.3-0.6-0.4-0.7-0.2c-0.1,0.2-0.2,0.4-0.2,0.7v2.8c0,0.6-0.3,0.8-0.8,0.8c-0.6,0-0.8-0.3-0.8-0.8v-10.7
				c0-0.6,0.3-0.8,0.8-0.8c0.6,0,0.8,0.3,0.8,0.8v4.2c1,1.2,2.2,2.2,3.6,3.1c1.2,0.8,2.7,1.5,4.4,2.1
				C1508.3,219.9,1510.2,220.3,1512.5,220.3z"/>
		</g>
	</g>
</g>
</svg>
