<?xml version="1.0" encoding="utf-8"?>
<!-- Generator: Adobe Illustrator 21.0.0, SVG Export Plug-In . SVG Version: 6.00 Build 0)  -->
<svg version="1.1" id="Layer_1" xmlns="http://www.w3.org/2000/svg" xmlns:xlink="http://www.w3.org/1999/xlink" x="0px" y="0px"
	 viewBox="0 0 1526.3 495.6" style="enable-background:new 0 0 1526.3 495.6;" xml:space="preserve">
<style type="text/css">
	.st0{fill:#FFFFFF;}
	.st1{fill:#808285;stroke:#FFFFFF;stroke-width:9;stroke-linecap:round;stroke-linejoin:round;stroke-miterlimit:10;}
	.st2{fill:#8ACC9E;}
	.st3{fill:#8FD6E7;}
	.st4{fill:#5EBCE9;}
	.st5{fill:none;stroke:#000000;stroke-width:0.25;stroke-miterlimit:10;}
	.st6{fill:#EC7685;}
	.st7{display:none;}
	.st8{display:inline;}
	.st9{display:inline;fill:#8ACC9E;}
	.st10{display:inline;fill:#5EBCE9;}
	.st11{fill:#9D2B6D;}
	.st12{display:inline;fill:#DAC226;}
	.st13{display:inline;fill:#18868F;}
	.st14{fill:none;stroke:#000000;stroke-width:0.5;stroke-miterlimit:10;}
	.st15{fill:#DAC226;}
	.st16{fill:#18868F;}
	.st17{fill:#48484A;}
	.st18{fill:none;stroke:#000000;stroke-width:0.75;stroke-miterlimit:10;}
	.st19{fill:#4D4D4A;}
	.st20{fill:#D1C336;}
	.st21{fill:#1F869A;}
	.st22{fill:#9E256F;}
	.st23{fill:#EAE363;}
	.st24{fill:#44789D;}
	.st25{fill:#AC615A;}
	.st26{fill:#7299B5;}
	.st27{fill:#A2BCCF;}
	.st28{fill:#4D6B86;}
	.st29{fill:#4E5D6E;}
	.st30{fill:#8C8E90;}
	.st31{fill:none;stroke:#000000;stroke-width:2;stroke-linecap:round;stroke-linejoin:round;stroke-miterlimit:10;}
	.st32{fill:#9B9DA0;}
	.st33{fill:#B3B2B5;stroke:#B3B2B5;stroke-width:2;stroke-linecap:round;stroke-linejoin:round;stroke-miterlimit:10;}
	.st34{fill:#B4B1B9;}
	.st35{fill:#B3B2B5;stroke:#B3B2B5;stroke-width:0.25;stroke-miterlimit:10;}
	.st36{fill:#B3B2B5;}
	.st37{fill:#4D4D4A;stroke:#B3B2B5;stroke-width:2;stroke-linecap:round;stroke-linejoin:round;stroke-miterlimit:10;}
	.st38{fill:#AC615A;stroke:#AC615A;stroke-width:2;stroke-linecap:round;stroke-linejoin:round;stroke-miterlimit:10;}
	.st39{fill:#44789D;stroke:#44789D;stroke-width:2;stroke-linecap:round;stroke-linejoin:round;stroke-miterlimit:10;}
	.st40{fill:#EAE363;stroke:#EAE363;stroke-width:2;stroke-linecap:round;stroke-linejoin:round;stroke-miterlimit:10;}
	.st41{fill:none;stroke:#4D4D4A;stroke-width:2;stroke-linecap:round;stroke-linejoin:round;stroke-miterlimit:10;}
</style>
<g>
	<g>
		<path class="st35" d="M687.1,190.5c0-8.2,2.3-15,7-20.4c4.7-5.4,10.7-8.1,18-8.1c6.3,0,12.1,2.2,17.4,6.7c0.8,0.7,1.3,0.5,1.3-0.8
			v-4c0-0.8,0.4-1.2,1.2-1.2s1.2,0.4,1.2,1.2V179c0,0.8-0.4,1.2-1.2,1.2s-1.2-0.4-1.2-1.2v-5.6c-1.4-1.6-3.1-3.1-5-4.5
			c-4.3-3.1-8.9-4.6-13.6-4.6c-6.5,0-11.9,2.5-16.2,7.5c-4.3,5-6.4,11.2-6.4,18.7c0,7.6,2.2,13.8,6.5,18.8c4.4,4.9,10,7.4,16.9,7.4
			c4.5,0,8.9-1.5,12.9-4.5c1.5-1.1,3.2-2.6,4.9-4.6v-15.1c0-0.8-0.4-1.2-1.2-1.2h-4.8c-0.8,0-1.2-0.4-1.2-1.2s0.4-1.2,1.2-1.2h15.1
			c0.8,0,1.2,0.4,1.2,1.2s-0.4,1.2-1.2,1.2h-5.6c-0.8,0-1.2,0.4-1.2,1.2v24.6c0,0.8-0.4,1.2-1.2,1.2s-1.2-0.4-1.2-1.2v-4
			c0-1.3-0.4-1.5-1.3-0.8c-5.2,4.5-10.8,6.7-16.6,6.7c-7.7,0-13.9-2.7-18.6-8.1C689.5,205.5,687.1,198.7,687.1,190.5z"/>
		<path class="st35" d="M750.7,217.1c0-0.8,0.4-1.2,1.2-1.2h5.6c0.8,0,1.2-0.4,1.2-1.2v-48.4c0-0.8-0.4-1.2-1.2-1.2h-5.6
			c-0.8,0-1.2-0.4-1.2-1.2c0-0.8,0.4-1.2,1.2-1.2h37.7c0.8,0,1.2,0.4,1.2,1.2V175c0,0.8-0.4,1.2-1.2,1.2c-0.8,0-1.2-0.4-1.2-1.2
			v-8.7c0-0.8-0.4-1.2-1.2-1.2h-25c-0.8,0-1.2,0.4-1.2,1.2v21.4c0,0.8,0.4,1.2,1.2,1.2h17.9c0.8,0,1.2-0.4,1.2-1.2v-4
			c0-0.8,0.4-1.2,1.2-1.2s1.2,0.4,1.2,1.2v12.7c0,0.8-0.4,1.2-1.2,1.2s-1.2-0.4-1.2-1.2v-4c0-0.8-0.4-1.2-1.2-1.2h-17.9
			c-0.8,0-1.2,0.4-1.2,1.2v22.2c0,0.8,0.4,1.2,1.2,1.2H788c0.8,0,1.2-0.4,1.2-1.2v-8.7c0-0.8,0.4-1.2,1.2-1.2s1.2,0.4,1.2,1.2v11.1
			c0,0.8-0.4,1.2-1.2,1.2h-38.5C751.1,218.2,750.7,217.8,750.7,217.1z"/>
		<path class="st35" d="M827.1,216.7c2.9,0,5.4-0.3,7.5-1c2.1-0.7,3.9-1.6,5.4-2.7c1.4-1.1,2.5-2.5,3.2-4c0.7-1.5,1-3.2,1-5
			c0-2.1-0.6-3.9-1.9-5.4c-1.3-1.5-2.9-2.7-5-3.6c-1.7-0.8-3.7-1.5-5.8-2.1c-2.1-0.6-4.3-1.2-6.5-1.8c-2.2-0.6-4.4-1.2-6.5-1.9
			c-2.1-0.7-4.1-1.4-5.9-2.3c-2.2-1.1-3.9-2.5-5.2-4.2c-1.3-1.7-1.9-4-1.9-6.7c0-1.8,0.3-3.5,0.9-5.2c0.6-1.7,1.7-3.1,3.1-4.4
			c1.4-1.3,3.3-2.3,5.6-3.1c2.3-0.8,5.2-1.2,8.6-1.2c2.1,0,4,0.2,5.8,0.7c1.8,0.5,3.5,1.1,5,1.7c1.5,0.7,2.8,1.4,3.9,2.2
			c1.1,0.8,2,1.5,2.7,2.1c0.5,0.4,0.9,0.5,1,0.2c0.2-0.3,0.2-0.6,0.2-1v-4c0-0.8,0.4-1.2,1.2-1.2s1.2,0.4,1.2,1.2V179
			c0,0.8-0.4,1.2-1.2,1.2s-1.2-0.4-1.2-1.2v-5.6c-1.4-1.6-3.1-3.1-5-4.5c-1.6-1.2-3.6-2.2-5.9-3.2c-2.3-1-4.9-1.4-7.7-1.4
			s-5.3,0.3-7.3,1c-2,0.6-3.6,1.5-4.9,2.6c-1.3,1.1-2.2,2.3-2.8,3.7s-0.9,2.8-0.9,4.3c0,2.1,0.6,3.9,1.9,5.4c1.3,1.5,2.9,2.8,5,3.7
			c1.7,0.8,3.7,1.5,5.8,2.1c2.1,0.6,4.3,1.2,6.5,1.8c2.2,0.6,4.4,1.2,6.5,1.9c2.1,0.7,4.1,1.4,5.9,2.3c2.2,1.1,3.9,2.5,5.2,4.2
			c1.3,1.7,1.9,4,1.9,6.7c0,2.2-0.4,4.2-1.3,6c-0.8,1.9-2.1,3.5-3.7,4.8c-1.6,1.3-3.6,2.4-6.1,3.1c-2.4,0.7-5.2,1.1-8.4,1.1
			c-2.3,0-4.4-0.2-6.3-0.7c-1.9-0.5-3.7-1.1-5.2-1.8c-1.5-0.7-2.9-1.5-4-2.2c-1.1-0.8-2-1.4-2.7-2c-0.5-0.4-0.9-0.5-1-0.2
			c-0.2,0.3-0.2,0.6-0.2,1v4c0,0.8-0.4,1.2-1.2,1.2c-0.8,0-1.2-0.4-1.2-1.2V202c0-0.8,0.4-1.2,1.2-1.2c0.8,0,1.2,0.4,1.2,1.2v6
			c1.4,1.6,3.1,3.1,5.1,4.4c1.7,1.1,3.7,2.1,6.1,3C821.3,216.2,824,216.7,827.1,216.7z"/>
		<path class="st35" d="M857,175.4v-11.5c0-0.8,0.4-1.2,1.2-1.2H901c0.8,0,1.2,0.4,1.2,1.2v11.5c0,0.8-0.4,1.2-1.2,1.2
			c-0.8,0-1.2-0.4-1.2-1.2v-9.1c0-0.8-0.4-1.2-1.2-1.2H882c-0.8,0-1.2,0.4-1.2,1.2v48.4c0,0.8,0.4,1.2,1.2,1.2h5.6
			c0.8,0,1.2,0.4,1.2,1.2s-0.4,1.2-1.2,1.2h-15.9c-0.8,0-1.2-0.4-1.2-1.2s0.4-1.2,1.2-1.2h5.6c0.8,0,1.2-0.4,1.2-1.2v-48.4
			c0-0.8-0.4-1.2-1.2-1.2h-16.7c-0.8,0-1.2,0.4-1.2,1.2v9.1c0,0.8-0.4,1.2-1.2,1.2C857.4,176.6,857,176.2,857,175.4z"/>
		<path class="st35" d="M946.1,200c-0.3-0.7-0.9-1.1-1.9-1.1h-22.5c-1,0-1.6,0.4-1.9,1.1l-5.6,14.7c-0.4,0.8-0.2,1.2,0.8,1.2h4.8
			c0.8,0,1.2,0.4,1.2,1.2s-0.4,1.2-1.2,1.2h-15.1c-0.8,0-1.2-0.4-1.2-1.2s0.4-1.2,1.2-1.2h5.2c0.6,0,1.2-0.4,1.6-1.2l19.8-51.6
			c0.1-0.4,0.3-0.7,0.7-0.9c0.3-0.2,0.7-0.3,1.1-0.3c0.4,0,0.7,0.1,1.1,0.3c0.3,0.2,0.6,0.5,0.7,0.9l19.8,51.6
			c0.4,0.8,0.9,1.2,1.6,1.2h5.2c0.8,0,1.2,0.4,1.2,1.2s-0.4,1.2-1.2,1.2h-15.1c-0.8,0-1.2-0.4-1.2-1.2s0.4-1.2,1.2-1.2h4.8
			c0.9,0,1.2-0.4,0.8-1.2L946.1,200z M933.4,167.1c-0.1-0.3-0.3-0.5-0.5-0.5c-0.2,0-0.4,0.2-0.5,0.5l-10.9,28.2
			c-0.4,0.8-0.1,1.2,0.9,1.2h20.9c1,0,1.2-0.4,0.9-1.2L933.4,167.1z M923,157.9c0-2.3,0.5-4,1.5-5.3c1-1.2,2.4-1.9,4-1.9
			c1.2,0,2.2,0.3,3,0.9c0.8,0.6,1.5,1.3,1.9,2.1c0.4,0.8,1,1.5,1.6,2.1c0.7,0.6,1.4,0.9,2.2,0.9c2.1,0,3.2-1.6,3.2-4.8
			c0-0.8,0.4-1.2,1.2-1.2s1.2,0.4,1.2,1.2c0,2.3-0.5,4.1-1.5,5.3c-1,1.2-2.4,1.8-4,1.8c-1.2,0-2.2-0.3-3-0.9
			c-0.8-0.6-1.5-1.3-1.9-2.1c-0.4-0.8-1-1.5-1.6-2.1c-0.7-0.6-1.4-0.9-2.2-0.9c-2.1,0-3.2,1.6-3.2,4.8c0,0.8-0.4,1.2-1.2,1.2
			S923,158.7,923,157.9z"/>
		<path class="st35" d="M975.4,211c-4.9-5.4-7.3-12.2-7.3-20.5c0-8.3,2.4-15.1,7.3-20.5c4.9-5.4,11.3-8.1,19.3-8.1
			c8,0,14.4,2.7,19.3,8.1c4.9,5.4,7.3,12.2,7.3,20.5c0,8.3-2.4,15.1-7.3,20.5c-4.9,5.4-11.3,8.1-19.3,8.1
			C986.7,219,980.3,216.4,975.4,211z M977.2,171.7c-4.4,4.9-6.7,11.2-6.7,18.8c0,7.6,2.2,13.9,6.7,18.8c4.4,4.9,10.3,7.4,17.5,7.4
			c7.2,0,13.1-2.5,17.5-7.4c4.4-4.9,6.7-11.2,6.7-18.8c0-7.6-2.2-13.9-6.7-18.8c-4.4-4.9-10.3-7.4-17.5-7.4
			C987.5,164.3,981.6,166.8,977.2,171.7z"/>
		<path class="st35" d="M1104.1,166.3c0-0.8-0.4-1.2-1.2-1.2h-4.8c-0.8,0-1.2-0.4-1.2-1.2c0-0.8,0.4-1.2,1.2-1.2h15.1
			c0.8,0,1.2,0.4,1.2,1.2c0,0.8-0.4,1.2-1.2,1.2h-5.6c-0.8,0-1.2,0.4-1.2,1.2v48.4c0,0.8,0.4,1.2,1.2,1.2h5.6c0.8,0,1.2,0.4,1.2,1.2
			s-0.4,1.2-1.2,1.2h-15.1c-0.8,0-1.2-0.4-1.2-1.2s0.4-1.2,1.2-1.2h4.8c0.8,0,1.2-0.4,1.2-1.2v-22.2c0-0.8-0.4-1.2-1.2-1.2h-31.7
			c-0.8,0-1.2,0.4-1.2,1.2v22.2c0,0.8,0.4,1.2,1.2,1.2h4.8c0.8,0,1.2,0.4,1.2,1.2s-0.4,1.2-1.2,1.2h-15.1c-0.8,0-1.2-0.4-1.2-1.2
			s0.4-1.2,1.2-1.2h5.6c0.8,0,1.2-0.4,1.2-1.2v-48.4c0-0.8-0.4-1.2-1.2-1.2h-5.6c-0.8,0-1.2-0.4-1.2-1.2c0-0.8,0.4-1.2,1.2-1.2h15.1
			c0.8,0,1.2,0.4,1.2,1.2c0,0.8-0.4,1.2-1.2,1.2h-4.8c-0.8,0-1.2,0.4-1.2,1.2v21.4c0,0.8,0.4,1.2,1.2,1.2h31.7
			c0.8,0,1.2-0.4,1.2-1.2V166.3z"/>
		<path class="st35" d="M1125.7,217.1c0-0.8,0.4-1.2,1.2-1.2h5.6c0.8,0,1.2-0.4,1.2-1.2v-48.4c0-0.8-0.4-1.2-1.2-1.2h-5.6
			c-0.8,0-1.2-0.4-1.2-1.2c0-0.8,0.4-1.2,1.2-1.2h15.9c0.8,0,1.2,0.4,1.2,1.2c0,0.8-0.4,1.2-1.2,1.2h-5.6c-0.8,0-1.2,0.4-1.2,1.2
			v48.4c0,0.8,0.4,1.2,1.2,1.2h5.6c0.8,0,1.2,0.4,1.2,1.2s-0.4,1.2-1.2,1.2h-15.9C1126.1,218.2,1125.7,217.8,1125.7,217.1z
			 M1133.5,156.8l7.1-10.1c0.3-0.5,0.6-0.7,0.9-0.7c0.3,0,0.5,0.1,0.8,0.4c0.4,0.2,0.6,0.5,0.6,0.8c0,0.3-0.1,0.5-0.3,0.8l-7.1,10.2
			c-0.3,0.3-0.6,0.5-0.9,0.5c-0.3,0-0.5-0.1-0.8-0.2c-0.4-0.3-0.6-0.5-0.6-0.8C1133.1,157.4,1133.2,157.1,1133.5,156.8z"/>
		<path class="st35" d="M1155.2,217.1c0-0.8,0.4-1.2,1.2-1.2h5.6c0.8,0,1.2-0.4,1.2-1.2v-48.4c0-0.8-0.4-1.2-1.2-1.2h-5.6
			c-0.8,0-1.2-0.4-1.2-1.2c0-0.8,0.4-1.2,1.2-1.2h22.2c8,0,14.4,2.6,19.3,7.9c4.9,5.3,7.3,11.9,7.3,19.8c0,7.9-2.4,14.5-7.3,19.8
			c-4.9,5.3-11.3,7.9-19.3,7.9h-22.2C1155.6,218.2,1155.2,217.8,1155.2,217.1z M1165.5,214.7c0,0.8,0.4,1.2,1.2,1.2h11.9
			c7.2,0,13-2.4,17.5-7.2s6.7-10.9,6.7-18.2c0-7.3-2.2-13.4-6.7-18.2c-4.5-4.8-10.3-7.2-17.5-7.2h-11.9c-0.8,0-1.2,0.4-1.2,1.2
			V214.7z"/>
		<path class="st35" d="M1226.8,214.7c0,0.8,0.4,1.2,1.2,1.2h4.8c0.8,0,1.2,0.4,1.2,1.2s-0.4,1.2-1.2,1.2h-15.1
			c-0.8,0-1.2-0.4-1.2-1.2s0.4-1.2,1.2-1.2h5.6c0.8,0,1.2-0.4,1.2-1.2v-48.4c0-0.8-0.4-1.2-1.2-1.2h-5.6c-0.8,0-1.2-0.4-1.2-1.2
			c0-0.8,0.4-1.2,1.2-1.2h26.6c5.1,0,9.1,1.3,11.8,4c2.7,2.6,4.1,6.3,4.1,11.1s-1.4,8.5-4.1,11.1c-2.7,2.6-6.7,4-11.8,4h-0.4
			c-0.4,0-0.7,0.1-0.9,0.4c-0.2,0.2-0.1,0.5,0.1,0.8l15.1,20.6c0.7,0.8,1.3,1.2,2,1.2h5.2c0.8,0,1.2,0.4,1.2,1.2s-0.4,1.2-1.2,1.2
			h-15.9c-0.8,0-1.2-0.4-1.2-1.2s0.4-1.2,1.2-1.2h5.2c1,0,1.1-0.4,0.4-1.2l-15.9-21.8h-11.1c-0.8,0-1.2,0.4-1.2,1.2V214.7z
			 M1244.2,190.5c4.3,0,7.7-1.1,10-3.3c2.3-2.2,3.5-5.3,3.5-9.4c0-4-1.2-7.1-3.5-9.4c-2.3-2.2-5.7-3.3-10-3.3h-16.3
			c-0.8,0-1.2,0.4-1.2,1.2v23c0,0.8,0.4,1.2,1.2,1.2H1244.2z"/>
		<path class="st35" d="M1275,217.1c0-0.8,0.4-1.2,1.2-1.2h5.6c0.8,0,1.2-0.4,1.2-1.2v-48.4c0-0.8-0.4-1.2-1.2-1.2h-5.6
			c-0.8,0-1.2-0.4-1.2-1.2c0-0.8,0.4-1.2,1.2-1.2h15.9c0.8,0,1.2,0.4,1.2,1.2c0,0.8-0.4,1.2-1.2,1.2h-5.6c-0.8,0-1.2,0.4-1.2,1.2
			v48.4c0,0.8,0.4,1.2,1.2,1.2h5.6c0.8,0,1.2,0.4,1.2,1.2s-0.4,1.2-1.2,1.2h-15.9C1275.4,218.2,1275,217.8,1275,217.1z"/>
		<path class="st35" d="M1304.6,190.5c0-8.2,2.3-15,7-20.4c4.7-5.4,10.7-8.2,18-8.2c6.4,0,12.2,2.2,17.4,6.7
			c0.8,0.7,1.3,0.4,1.3-0.8v-4c0-0.8,0.4-1.2,1.2-1.2s1.2,0.4,1.2,1.2V179c0,0.8-0.4,1.2-1.2,1.2s-1.2-0.4-1.2-1.2v-5.6
			c-1.4-1.6-3.1-3.1-5-4.5c-4.3-3.1-8.9-4.6-13.6-4.6c-6.5,0-11.9,2.5-16.2,7.5c-4.3,5-6.4,11.3-6.4,18.7c0,7.6,2.2,13.9,6.7,18.8
			c4.4,4.9,10.3,7.4,17.5,7.4c3.7,0,7-0.6,10.1-1.8c3.1-1.2,5.8-3,8.1-5.4c0.5-0.5,1.1-0.5,1.7,0c0.5,0.6,0.5,1.1,0,1.7
			c-2.5,2.5-5.4,4.4-8.6,5.8c-3.2,1.4-6.9,2.1-11.2,2.1c-8,0-14.4-2.7-19.3-8C1307,205.6,1304.6,198.7,1304.6,190.5z"/>
		<path class="st35" d="M1400.6,200c-0.3-0.7-0.9-1.1-1.9-1.1h-22.5c-1,0-1.6,0.4-1.9,1.1l-5.6,14.7c-0.4,0.8-0.2,1.2,0.8,1.2h4.8
			c0.8,0,1.2,0.4,1.2,1.2s-0.4,1.2-1.2,1.2h-15.1c-0.8,0-1.2-0.4-1.2-1.2s0.4-1.2,1.2-1.2h5.2c0.6,0,1.2-0.4,1.6-1.2l19.8-51.6
			c0.1-0.4,0.3-0.7,0.7-0.9c0.3-0.2,0.7-0.3,1.1-0.3c0.4,0,0.7,0.1,1.1,0.3c0.3,0.2,0.6,0.5,0.7,0.9l19.8,51.6
			c0.4,0.8,0.9,1.2,1.6,1.2h5.2c0.8,0,1.2,0.4,1.2,1.2s-0.4,1.2-1.2,1.2h-15.1c-0.8,0-1.2-0.4-1.2-1.2s0.4-1.2,1.2-1.2h4.8
			c0.9,0,1.2-0.4,0.8-1.2L1400.6,200z M1387.9,167.1c-0.1-0.3-0.3-0.5-0.5-0.5c-0.2,0-0.4,0.2-0.5,0.5l-10.9,28.2
			c-0.4,0.8-0.1,1.2,0.9,1.2h20.9c1,0,1.2-0.4,0.9-1.2L1387.9,167.1z"/>
		<path class="st35" d="M686.2,312.3c0-0.8,0.4-1.2,1.2-1.2h5.6c0.8,0,1.2-0.4,1.2-1.2v-48.4c0-0.8-0.4-1.2-1.2-1.2h-5.6
			c-0.8,0-1.2-0.4-1.2-1.2c0-0.8,0.4-1.2,1.2-1.2h22.2c8,0,14.4,2.6,19.3,7.9c4.9,5.3,7.3,11.9,7.3,19.8c0,7.9-2.4,14.5-7.3,19.8
			c-4.9,5.3-11.3,7.9-19.3,7.9h-22.2C686.6,313.4,686.2,313,686.2,312.3z M696.5,309.9c0,0.8,0.4,1.2,1.2,1.2h11.9
			c7.2,0,13-2.4,17.5-7.2c4.5-4.8,6.7-10.9,6.7-18.2s-2.2-13.4-6.7-18.2c-4.5-4.8-10.3-7.2-17.5-7.2h-11.9c-0.8,0-1.2,0.4-1.2,1.2
			V309.9z"/>
		<path class="st35" d="M747.4,312.3c0-0.8,0.4-1.2,1.2-1.2h5.6c0.8,0,1.2-0.4,1.2-1.2v-48.4c0-0.8-0.4-1.2-1.2-1.2h-5.6
			c-0.8,0-1.2-0.4-1.2-1.2c0-0.8,0.4-1.2,1.2-1.2h37.7c0.8,0,1.2,0.4,1.2,1.2v11.1c0,0.8-0.4,1.2-1.2,1.2c-0.8,0-1.2-0.4-1.2-1.2
			v-8.7c0-0.8-0.4-1.2-1.2-1.2h-25c-0.8,0-1.2,0.4-1.2,1.2v21.4c0,0.8,0.4,1.2,1.2,1.2h17.9c0.8,0,1.2-0.4,1.2-1.2v-4
			c0-0.8,0.4-1.2,1.2-1.2s1.2,0.4,1.2,1.2v12.7c0,0.8-0.4,1.2-1.2,1.2s-1.2-0.4-1.2-1.2v-4c0-0.8-0.4-1.2-1.2-1.2h-17.9
			c-0.8,0-1.2,0.4-1.2,1.2v22.2c0,0.8,0.4,1.2,1.2,1.2h25.8c0.8,0,1.2-0.4,1.2-1.2v-8.7c0-0.8,0.4-1.2,1.2-1.2s1.2,0.4,1.2,1.2v11.1
			c0,0.8-0.4,1.2-1.2,1.2h-38.5C747.8,313.4,747.4,313,747.4,312.3z"/>
		<path class="st35" d="M837.8,291.2c-0.8,0-1.2,0.4-1.2,1.2v17.5c0,0.8,0.4,1.2,1.2,1.2h6.3c0.8,0,1.2,0.4,1.2,1.2
			c0,0.8-0.4,1.2-1.2,1.2h-16.7c-0.8,0-1.2-0.4-1.2-1.2c0-0.8,0.4-1.2,1.2-1.2h5.6c0.8,0,1.2-0.4,1.2-1.2v-48.4
			c0-0.8-0.4-1.2-1.2-1.2h-5.6c-0.8,0-1.2-0.4-1.2-1.2c0-0.8,0.4-1.2,1.2-1.2H854c5.2,0,9.2,1.4,11.9,4.2c2.7,2.8,4,7,4,12.4
			c0,5.4-1.3,9.6-4,12.4c-2.7,2.8-6.6,4.2-11.9,4.2H837.8z M854,288.8c9,0,13.5-4.8,13.5-14.3c0-9.5-4.5-14.3-13.5-14.3h-16.3
			c-0.8,0-1.2,0.4-1.2,1.2v26.2c0,0.8,0.4,1.2,1.2,1.2H854z"/>
		<path class="st35" d="M888.7,306.2c-4.9-5.4-7.3-12.2-7.3-20.5c0-8.3,2.4-15.1,7.3-20.5c4.9-5.4,11.3-8.1,19.3-8.1
			c8,0,14.4,2.7,19.3,8.1c4.9,5.4,7.3,12.2,7.3,20.5c0,8.3-2.4,15.1-7.3,20.5c-4.9,5.4-11.3,8.1-19.3,8.1
			C900,314.2,893.6,311.6,888.7,306.2z M890.5,266.9c-4.4,4.9-6.7,11.2-6.7,18.8c0,7.6,2.2,13.9,6.7,18.8c4.4,4.9,10.3,7.4,17.5,7.4
			s13.1-2.5,17.5-7.4c4.4-4.9,6.7-11.2,6.7-18.8c0-7.6-2.2-13.9-6.7-18.8c-4.4-4.9-10.3-7.4-17.5-7.4S894.9,262,890.5,266.9z"/>
		<path class="st35" d="M947.1,311.1h5.6c0.8,0,1.2-0.4,1.2-1.2v-48.4c0-0.8-0.4-1.2-1.2-1.2h-5.6c-0.8,0-1.2-0.4-1.2-1.2
			c0-0.8,0.4-1.2,1.2-1.2h8.7c0.8,0,1.5,0.4,2,1.2l32.5,49.6c0.1,0.2,0.3,0.3,0.5,0.3c0.2,0,0.3-0.2,0.3-0.7v-46.8
			c0-0.8-0.4-1.2-1.2-1.2h-4.8c-0.8,0-1.2-0.4-1.2-1.2c0-0.8,0.4-1.2,1.2-1.2h15.1c0.8,0,1.2,0.4,1.2,1.2c0,0.8-0.4,1.2-1.2,1.2
			h-5.6c-0.8,0-1.2,0.4-1.2,1.2v48.4c0,0.8,0.4,1.2,1.2,1.2h5.6c0.8,0,1.2,0.4,1.2,1.2c0,0.8-0.4,1.2-1.2,1.2h-8.7
			c-0.8,0-1.5-0.4-2-1.2L957,262.7c-0.1-0.2-0.3-0.3-0.5-0.3c-0.2,0-0.3,0.2-0.3,0.7v46.8c0,0.8,0.4,1.2,1.2,1.2h4.8
			c0.8,0,1.2,0.4,1.2,1.2c0,0.8-0.4,1.2-1.2,1.2h-15.1c-0.8,0-1.2-0.4-1.2-1.2C945.9,311.5,946.3,311.1,947.1,311.1z"/>
		<path class="st35" d="M1010.6,270.6v-11.5c0-0.8,0.4-1.2,1.2-1.2h42.8c0.8,0,1.2,0.4,1.2,1.2v11.5c0,0.8-0.4,1.2-1.2,1.2
			c-0.8,0-1.2-0.4-1.2-1.2v-9.1c0-0.8-0.4-1.2-1.2-1.2h-16.7c-0.8,0-1.2,0.4-1.2,1.2v48.4c0,0.8,0.4,1.2,1.2,1.2h5.6
			c0.8,0,1.2,0.4,1.2,1.2c0,0.8-0.4,1.2-1.2,1.2h-15.9c-0.8,0-1.2-0.4-1.2-1.2c0-0.8,0.4-1.2,1.2-1.2h5.6c0.8,0,1.2-0.4,1.2-1.2
			v-48.4c0-0.8-0.4-1.2-1.2-1.2h-16.7c-0.8,0-1.2,0.4-1.2,1.2v9.1c0,0.8-0.4,1.2-1.2,1.2S1010.6,271.4,1010.6,270.6z"/>
		<path class="st35" d="M1099.7,295.2c-0.3-0.7-1-1.1-1.9-1.1h-22.5c-0.9,0-1.6,0.4-1.9,1.1l-5.6,14.7c-0.4,0.8-0.2,1.2,0.8,1.2h4.8
			c0.8,0,1.2,0.4,1.2,1.2c0,0.8-0.4,1.2-1.2,1.2h-15.1c-0.8,0-1.2-0.4-1.2-1.2c0-0.8,0.4-1.2,1.2-1.2h5.2c0.6,0,1.2-0.4,1.6-1.2
			l19.8-51.6c0.1-0.4,0.3-0.7,0.7-0.9c0.3-0.2,0.7-0.3,1.1-0.3s0.7,0.1,1.1,0.3c0.3,0.2,0.6,0.5,0.7,0.9l19.8,51.6
			c0.4,0.8,0.9,1.2,1.6,1.2h5.2c0.8,0,1.2,0.4,1.2,1.2c0,0.8-0.4,1.2-1.2,1.2h-15.1c-0.8,0-1.2-0.4-1.2-1.2c0-0.8,0.4-1.2,1.2-1.2
			h4.8c0.9,0,1.2-0.4,0.8-1.2L1099.7,295.2z M1087,262.3c-0.1-0.3-0.3-0.5-0.5-0.5c-0.2,0-0.4,0.2-0.5,0.5l-10.9,28.2
			c-0.4,0.8-0.1,1.2,0.9,1.2h20.9c1,0,1.2-0.4,0.9-1.2L1087,262.3z"/>
		<path class="st35" d="M1187.2,295.2c-0.3-0.7-0.9-1.1-1.9-1.1h-22.5c-1,0-1.6,0.4-1.9,1.1l-5.6,14.7c-0.4,0.8-0.2,1.2,0.8,1.2h4.8
			c0.8,0,1.2,0.4,1.2,1.2c0,0.8-0.4,1.2-1.2,1.2h-15.1c-0.8,0-1.2-0.4-1.2-1.2c0-0.8,0.4-1.2,1.2-1.2h5.2c0.6,0,1.2-0.4,1.6-1.2
			l19.8-51.6c0.1-0.4,0.3-0.7,0.7-0.9c0.3-0.2,0.7-0.3,1.1-0.3c0.4,0,0.7,0.1,1.1,0.3c0.3,0.2,0.6,0.5,0.7,0.9l19.8,51.6
			c0.4,0.8,0.9,1.2,1.6,1.2h5.2c0.8,0,1.2,0.4,1.2,1.2c0,0.8-0.4,1.2-1.2,1.2h-15.1c-0.8,0-1.2-0.4-1.2-1.2c0-0.8,0.4-1.2,1.2-1.2
			h4.8c0.9,0,1.2-0.4,0.8-1.2L1187.2,295.2z M1174.6,262.3c-0.1-0.3-0.3-0.5-0.5-0.5c-0.2,0-0.4,0.2-0.5,0.5l-10.9,28.2
			c-0.4,0.8-0.1,1.2,0.9,1.2h20.9c1,0,1.2-0.4,0.9-1.2L1174.6,262.3z"/>
		<path class="st35" d="M1248.1,291.2c-0.8,0-1.2,0.4-1.2,1.2v17.5c0,0.8,0.4,1.2,1.2,1.2h6.3c0.8,0,1.2,0.4,1.2,1.2
			c0,0.8-0.4,1.2-1.2,1.2h-16.7c-0.8,0-1.2-0.4-1.2-1.2c0-0.8,0.4-1.2,1.2-1.2h5.6c0.8,0,1.2-0.4,1.2-1.2v-48.4
			c0-0.8-0.4-1.2-1.2-1.2h-5.6c-0.8,0-1.2-0.4-1.2-1.2c0-0.8,0.4-1.2,1.2-1.2h26.6c5.2,0,9.2,1.4,11.9,4.2c2.7,2.8,4,7,4,12.4
			c0,5.4-1.3,9.6-4,12.4c-2.7,2.8-6.6,4.2-11.9,4.2H1248.1z M1264.4,288.8c9,0,13.5-4.8,13.5-14.3c0-9.5-4.5-14.3-13.5-14.3h-16.3
			c-0.8,0-1.2,0.4-1.2,1.2v26.2c0,0.8,0.4,1.2,1.2,1.2H1264.4z"/>
		<path class="st35" d="M1299,306.2c-4.9-5.4-7.3-12.2-7.3-20.5c0-8.3,2.4-15.1,7.3-20.5c4.9-5.4,11.3-8.1,19.3-8.1
			c8,0,14.4,2.7,19.3,8.1c4.9,5.4,7.3,12.2,7.3,20.5c0,8.3-2.4,15.1-7.3,20.5c-4.9,5.4-11.3,8.1-19.3,8.1
			C1310.3,314.2,1303.9,311.6,1299,306.2z M1300.8,266.9c-4.4,4.9-6.7,11.2-6.7,18.8c0,7.6,2.2,13.9,6.7,18.8
			c4.4,4.9,10.3,7.4,17.5,7.4c7.2,0,13.1-2.5,17.5-7.4c4.4-4.9,6.7-11.2,6.7-18.8c0-7.6-2.2-13.9-6.7-18.8
			c-4.4-4.9-10.3-7.4-17.5-7.4C1311.1,259.5,1305.2,262,1300.8,266.9z"/>
		<path class="st35" d="M1357.4,311.1h5.6c0.8,0,1.2-0.4,1.2-1.2v-48.4c0-0.8-0.4-1.2-1.2-1.2h-5.6c-0.8,0-1.2-0.4-1.2-1.2
			c0-0.8,0.4-1.2,1.2-1.2h8.7c0.8,0,1.5,0.4,2,1.2l32.5,49.6c0.1,0.2,0.3,0.3,0.5,0.3c0.2,0,0.3-0.2,0.3-0.7v-46.8
			c0-0.8-0.4-1.2-1.2-1.2h-4.8c-0.8,0-1.2-0.4-1.2-1.2c0-0.8,0.4-1.2,1.2-1.2h15.1c0.8,0,1.2,0.4,1.2,1.2c0,0.8-0.4,1.2-1.2,1.2
			h-5.6c-0.8,0-1.2,0.4-1.2,1.2v48.4c0,0.8,0.4,1.2,1.2,1.2h5.6c0.8,0,1.2,0.4,1.2,1.2c0,0.8-0.4,1.2-1.2,1.2h-8.7
			c-0.8,0-1.5-0.4-2-1.2l-32.5-49.6c-0.1-0.2-0.3-0.3-0.5-0.3c-0.2,0-0.3,0.2-0.3,0.7v46.8c0,0.8,0.4,1.2,1.2,1.2h4.8
			c0.8,0,1.2,0.4,1.2,1.2c0,0.8-0.4,1.2-1.2,1.2h-15.1c-0.8,0-1.2-0.4-1.2-1.2C1356.2,311.5,1356.6,311.1,1357.4,311.1z"/>
		<path class="st35" d="M1420.9,270.6v-11.5c0-0.8,0.4-1.2,1.2-1.2h42.8c0.8,0,1.2,0.4,1.2,1.2v11.5c0,0.8-0.4,1.2-1.2,1.2
			c-0.8,0-1.2-0.4-1.2-1.2v-9.1c0-0.8-0.4-1.2-1.2-1.2h-16.7c-0.8,0-1.2,0.4-1.2,1.2v48.4c0,0.8,0.4,1.2,1.2,1.2h5.6
			c0.8,0,1.2,0.4,1.2,1.2c0,0.8-0.4,1.2-1.2,1.2h-15.9c-0.8,0-1.2-0.4-1.2-1.2c0-0.8,0.4-1.2,1.2-1.2h5.6c0.8,0,1.2-0.4,1.2-1.2
			v-48.4c0-0.8-0.4-1.2-1.2-1.2h-16.7c-0.8,0-1.2,0.4-1.2,1.2v9.1c0,0.8-0.4,1.2-1.2,1.2C1421.3,271.8,1420.9,271.4,1420.9,270.6z"
			/>
		<path class="st35" d="M1510,295.2c-0.3-0.7-1-1.1-1.9-1.1h-22.5c-0.9,0-1.6,0.4-1.9,1.1l-5.6,14.7c-0.4,0.8-0.2,1.2,0.8,1.2h4.8
			c0.8,0,1.2,0.4,1.2,1.2c0,0.8-0.4,1.2-1.2,1.2h-15.1c-0.8,0-1.2-0.4-1.2-1.2c0-0.8,0.4-1.2,1.2-1.2h5.2c0.6,0,1.2-0.4,1.6-1.2
			l19.8-51.6c0.1-0.4,0.3-0.7,0.7-0.9c0.3-0.2,0.7-0.3,1.1-0.3c0.4,0,0.7,0.1,1.1,0.3c0.3,0.2,0.6,0.5,0.7,0.9l19.8,51.6
			c0.4,0.8,0.9,1.2,1.6,1.2h5.2c0.8,0,1.2,0.4,1.2,1.2c0,0.8-0.4,1.2-1.2,1.2h-15.1c-0.8,0-1.2-0.4-1.2-1.2c0-0.8,0.4-1.2,1.2-1.2
			h4.8c0.9,0,1.2-0.4,0.8-1.2L1510,295.2z M1497.3,262.3c-0.1-0.3-0.3-0.5-0.5-0.5c-0.2,0-0.4,0.2-0.5,0.5l-10.9,28.2
			c-0.4,0.8-0.1,1.2,0.9,1.2h20.9c1,0,1.2-0.4,0.9-1.2L1497.3,262.3z"/>
	</g>
	<line class="st33" x1="597.2" y1="112.7" x2="597.2" y2="363.4"/>
	<g>
		<g>
			<path class="st36" d="M319.1,184.8c-9.2-8.5-15.3-8.8-19-8.8c-4.6,0-9.1,3-9.1,7.5c0,15.7,57.2,29.7,57.2,68.4
				c0,36.5-28.3,57.4-79.8,57.4c-22.8,0-45.4-10.3-63.3-28.5l33.8-29.8c17.6,16.4,24.3,16.9,29.6,16.9c8.2,0,12.7-5.2,12.7-11
				c0-17-53.9-29.7-53.9-66.8c0-35.4,29.9-54.7,68.5-54.7c17.1,0,38.4,5.2,52.7,19.9L319.1,184.8z"/>
		</g>
		<path class="st36" d="M500.8,61.3L510.2,0c-63.2,0.6-110,30.1-119.2,89.2l-39.4,254.8c5.7,2.4,11.1,5.6,16.1,9.8
			c13.3,11.2,20.7,26,21.3,42.8c0,0.1,0,0.2,0,0.2h22.6l30.9-199H478l9.1-58.8h-35.4l6.6-42.6C461.8,73.7,476.3,61.7,500.8,61.3z"/>
		<g>
			<path class="st36" d="M354.6,369.6c-7.8-6.5-16.2-9.4-24.6-9.4c-7.3,0-14.5,2.1-21.1,5.8c1,6.9,1.2,14.1,0.5,21.2
				c-1.8,17.6-9.1,32.5-15.6,45.6l-1.1,2.3c-7.6,15.4-13.7,30.1-18.4,44.2c12.4-7.2,25.3-13.7,38.6-19.5c13.4-5.9,27-11.5,37.6-21.9
				C369.7,419.3,377.5,388.8,354.6,369.6z"/>
			<g>
				<path class="st36" d="M248.2,330.1C248.2,330.1,248.2,330.1,248.2,330.1c-19.1,0-31.5,11.5-37.3,26.8
					c5.4,4.7,10.4,10.2,14.6,16.4c9.9,14.6,13.9,30.7,17.3,45l0.6,2.5c4,16.3,8.6,31.1,14,44.8c4.8-13.4,10.5-26.5,16.9-39.4
					c6.5-13.1,13.3-26.1,14.8-40.9C291.7,358.4,278.1,330.1,248.2,330.1z"/>
			</g>
			<path class="st36" d="M146,437.3c10.7,10.4,24.2,16,37.7,21.9c22.8,10,44.3,21.6,64.5,36.3c-11.1-22.5-18.8-45.7-24.7-70
				c-3.5-14.2-6.6-28.5-15-40.8c-10-14.7-25.9-25.3-42.1-25.3c-8.4,0-16.8,2.8-24.6,9.3C118.8,388,126.7,418.6,146,437.3z"/>
		</g>
		<path class="st36" d="M107.3,396c0.6-16.8,8-31.7,21.4-42.9c11-9.2,24.1-14.1,37.7-14.1c3.5,0,7,0.4,10.5,1
			c3.2-8.4,5.6-17.5,7.2-27.5l22.8-147.7c-23.7-19.7-50.2-29.6-78.6-29.6c-71.7,0-113.8,42.5-113.8,102.7
			c0,44.8,33.3,71.3,69.2,71.3c12,0,23.8-2.8,33.9-8.9l-1.6,10.7c-4.1,28.3-13.6,40-40.8,40c-16.9,0-31.9-4.1-51.4-11.5L0,383
			c26.7,11.7,52.3,17.9,76.1,17.9c11.3,0,21.7-1,31.2-3C107.3,397.2,107.3,396.6,107.3,396z M105.2,256.9
			c-11.1,0-21.7-6.5-21.7-25.4c0-26.6,18-43.1,35.5-43.1c6.3,0,10.5,1.1,15.6,4.1l-8.3,53.1C120.4,252.4,112.9,256.9,105.2,256.9z"
			/>
	</g>
</g>
</svg>
