<?xml version="1.0" encoding="utf-8"?>
<!-- Generator: Adobe Illustrator 21.0.0, SVG Export Plug-In . SVG Version: 6.00 Build 0)  -->
<svg version="1.1" id="Layer_1" xmlns="http://www.w3.org/2000/svg" xmlns:xlink="http://www.w3.org/1999/xlink" x="0px" y="0px"
	 viewBox="0 0 510.2 495.6" style="enable-background:new 0 0 510.2 495.6;" xml:space="preserve">
<style type="text/css">
	.st0{fill:#FFFFFF;}
	.st1{fill:#808285;stroke:#FFFFFF;stroke-width:9;stroke-linecap:round;stroke-linejoin:round;stroke-miterlimit:10;}
	.st2{fill:#8ACC9E;}
	.st3{fill:#8FD6E7;}
	.st4{fill:#5EBCE9;}
	.st5{fill:none;stroke:#000000;stroke-width:0.25;stroke-miterlimit:10;}
	.st6{fill:#EC7685;}
	.st7{display:none;}
	.st8{display:inline;}
	.st9{display:inline;fill:#8ACC9E;}
	.st10{display:inline;fill:#5EBCE9;}
	.st11{fill:#9D2B6D;}
	.st12{display:inline;fill:#DAC226;}
	.st13{display:inline;fill:#18868F;}
	.st14{fill:none;stroke:#000000;stroke-width:0.5;stroke-miterlimit:10;}
	.st15{fill:#DAC226;}
	.st16{fill:#18868F;}
	.st17{fill:#48484A;}
	.st18{fill:none;stroke:#000000;stroke-width:0.75;stroke-miterlimit:10;}
	.st19{fill:#4D4D4A;}
	.st20{fill:#D1C336;}
	.st21{fill:#1F869A;}
	.st22{fill:#9E256F;}
	.st23{fill:#EAE363;}
	.st24{fill:#44789D;}
	.st25{fill:#AC615A;}
	.st26{fill:#7299B5;}
	.st27{fill:#A2BCCF;}
	.st28{fill:#4D6B86;}
	.st29{fill:#4E5D6E;}
	.st30{fill:none;stroke:#000000;stroke-width:2;stroke-linecap:round;stroke-linejoin:round;stroke-miterlimit:10;}
	.st31{fill:#FFFFFF;stroke:#FFFFFF;stroke-width:3;stroke-linecap:round;stroke-linejoin:round;stroke-miterlimit:10;}
	.st32{fill:#B4B1B9;}
	.st33{fill:#B8BABC;}
	.st34{fill:#B8BABC;stroke:#B8BABC;stroke-miterlimit:10;}
	.st35{fill:#B3B2B5;stroke:#B3B2B5;stroke-width:0.25;stroke-miterlimit:10;}
	.st36{fill:#B3B2B5;stroke:#B3B2B5;stroke-width:2;stroke-linecap:round;stroke-linejoin:round;stroke-miterlimit:10;}
	.st37{fill:#B3B2B5;}
	.st38{fill:#4D4D4A;stroke:#B3B2B5;stroke-width:2;stroke-linecap:round;stroke-linejoin:round;stroke-miterlimit:10;}
	.st39{fill:#AC615A;stroke:#AC615A;stroke-width:2;stroke-linecap:round;stroke-linejoin:round;stroke-miterlimit:10;}
	.st40{fill:#44789D;stroke:#44789D;stroke-width:2;stroke-linecap:round;stroke-linejoin:round;stroke-miterlimit:10;}
	.st41{fill:#EAE363;stroke:#EAE363;stroke-width:2;stroke-linecap:round;stroke-linejoin:round;stroke-miterlimit:10;}
	.st42{fill:#8C8E90;}
	.st43{fill:none;stroke:#4D4D4A;stroke-width:2;stroke-linecap:round;stroke-linejoin:round;stroke-miterlimit:10;}
	.st44{fill:#8C8E90;stroke:#8C8E90;stroke-miterlimit:10;}
</style>
<g>
	<g>
		<path class="st37" d="M319.1,184.8c-9.2-8.5-15.3-8.8-19-8.8c-4.6,0-9.1,3-9.1,7.5c0,15.7,57.2,29.7,57.2,68.4
			c0,36.5-28.3,57.4-79.8,57.4c-22.8,0-45.4-10.3-63.3-28.5l33.8-29.8c17.6,16.4,24.3,16.9,29.6,16.9c8.2,0,12.7-5.2,12.7-11
			c0-17-53.9-29.7-53.9-66.8c0-35.4,29.9-54.7,68.5-54.7c17.1,0,38.4,5.2,52.7,19.9L319.1,184.8z"/>
	</g>
	<g>
		<path class="st37" d="M500.8,61.3L510.2,0c-63.2,0.6-110,30.1-119.2,89.2l-39.4,254.8c5.7,2.4,11.1,5.6,16.1,9.8
			c13.3,11.2,20.7,26,21.3,42.8c0,0.1,0,0.2,0,0.2h22.6l30.9-199H478l9.1-58.8h-35.4l6.6-42.6C461.8,73.7,476.3,61.7,500.8,61.3z"/>
		<path class="st37" d="M354.6,369.6c-7.8-6.5-16.2-9.4-24.6-9.4c-7.3,0-14.5,2.1-21.1,5.8c1,6.9,1.2,14.1,0.5,21.2
			c-1.8,17.6-9.1,32.5-15.6,45.6l-1.1,2.3c-7.6,15.4-13.7,30.1-18.4,44.2c12.4-7.2,25.3-13.7,38.6-19.5c13.4-5.9,27-11.5,37.6-21.9
			C369.7,419.3,377.5,388.8,354.6,369.6z"/>
		<g>
			<path class="st37" d="M248.2,330.1C248.2,330.1,248.2,330.1,248.2,330.1c-19.1,0-31.5,11.5-37.3,26.8
				c5.4,4.7,10.4,10.2,14.6,16.4c9.9,14.6,13.9,30.7,17.3,45l0.6,2.5c4,16.3,8.6,31.1,14,44.8c4.8-13.4,10.5-26.5,16.9-39.4
				c6.5-13.1,13.3-26.1,14.8-40.9C291.7,358.4,278.1,330.1,248.2,330.1z"/>
		</g>
		<path class="st37" d="M146,437.3c10.7,10.4,24.2,16,37.7,21.9c22.8,10,44.3,21.6,64.5,36.3c-11.1-22.5-18.8-45.7-24.7-70
			c-3.5-14.2-6.6-28.5-15-40.8c-10-14.7-25.9-25.3-42.1-25.3c-8.4,0-16.8,2.8-24.6,9.3C118.8,388,126.7,418.6,146,437.3z"/>
	</g>
	<path class="st37" d="M107.3,396c0.6-16.8,8-31.7,21.4-42.9c11-9.2,24.1-14.1,37.7-14.1c3.5,0,7,0.4,10.5,1
		c3.2-8.4,5.6-17.5,7.2-27.5l22.8-147.7c-23.7-19.7-50.2-29.6-78.6-29.6c-71.7,0-113.8,42.5-113.8,102.7c0,44.8,33.3,71.3,69.2,71.3
		c12,0,23.8-2.8,33.9-8.9l-1.6,10.7c-4.1,28.3-13.6,40-40.8,40c-16.9,0-31.9-4.1-51.4-11.5L0,383c26.7,11.7,52.3,17.9,76.1,17.9
		c11.3,0,21.7-1,31.2-3C107.3,397.2,107.3,396.6,107.3,396z M105.2,256.9c-11.1,0-21.7-6.5-21.7-25.4c0-26.6,18-43.1,35.5-43.1
		c6.3,0,10.5,1.1,15.6,4.1l-8.3,53.1C120.4,252.4,112.9,256.9,105.2,256.9z"/>
</g>
</svg>
