<?xml version="1.0" encoding="utf-8"?>
<!-- Generator: Adobe Illustrator 21.0.0, SVG Export Plug-In . SVG Version: 6.00 Build 0)  -->
<svg version="1.1" id="Layer_1" xmlns="http://www.w3.org/2000/svg" xmlns:xlink="http://www.w3.org/1999/xlink" x="0px" y="0px"
	 viewBox="0 0 844.7 845" style="enable-background:new 0 0 844.7 845;" xml:space="preserve">
<style type="text/css">
	.st0{fill:#FFFFFF;}
	.st1{fill:#808285;stroke:#FFFFFF;stroke-width:9;stroke-linecap:round;stroke-linejoin:round;stroke-miterlimit:10;}
	.st2{fill:#8ACC9E;}
	.st3{fill:#8FD6E7;}
	.st4{fill:#5EBCE9;}
	.st5{fill:none;stroke:#000000;stroke-width:0.25;stroke-miterlimit:10;}
	.st6{fill:#EC7685;}
	.st7{display:none;}
	.st8{display:inline;}
	.st9{display:inline;fill:#8ACC9E;}
	.st10{display:inline;fill:#5EBCE9;}
	.st11{fill:#9D2B6D;}
	.st12{display:inline;fill:#DAC226;}
	.st13{display:inline;fill:#18868F;}
	.st14{fill:none;stroke:#000000;stroke-width:0.5;stroke-miterlimit:10;}
	.st15{fill:#DAC226;}
	.st16{fill:#18868F;}
	.st17{fill:#48484A;}
	.st18{fill:none;stroke:#000000;stroke-width:0.75;stroke-miterlimit:10;}
	.st19{fill:#4D4D4A;}
	.st20{fill:#D1C336;}
	.st21{fill:#1F869A;}
	.st22{fill:#9E256F;}
	.st23{fill:#EAE363;}
	.st24{fill:#44789D;}
	.st25{fill:#AC615A;}
	.st26{fill:#7299B5;}
	.st27{fill:#A2BCCF;}
	.st28{fill:#4D6B86;}
	.st29{fill:#4E5D6E;}
	.st30{fill:none;stroke:#000000;stroke-width:2;stroke-linecap:round;stroke-linejoin:round;stroke-miterlimit:10;}
	.st31{fill:#9F9EA7;stroke:#9F9EA7;stroke-width:3;stroke-linecap:round;stroke-linejoin:round;stroke-miterlimit:10;}
	.st32{fill:#B4B1B9;}
	.st33{fill:#9F9EA7;stroke:#9F9EA7;stroke-miterlimit:10;}
	.st34{fill:#9F9EA7;stroke:#9F9EA7;stroke-width:2;stroke-miterlimit:10;}
	.st35{fill:#9F9EA7;stroke:#9F9EA7;stroke-width:2.5;stroke-miterlimit:10;}
	.st36{fill:#B3B2B5;stroke:#B3B2B5;stroke-width:0.25;stroke-miterlimit:10;}
	.st37{fill:#B3B2B5;stroke:#B3B2B5;stroke-width:2;stroke-linecap:round;stroke-linejoin:round;stroke-miterlimit:10;}
	.st38{fill:#B3B2B5;}
	.st39{fill:#4D4D4A;stroke:#B3B2B5;stroke-width:2;stroke-linecap:round;stroke-linejoin:round;stroke-miterlimit:10;}
	.st40{fill:#AC615A;stroke:#AC615A;stroke-width:2;stroke-linecap:round;stroke-linejoin:round;stroke-miterlimit:10;}
	.st41{fill:#44789D;stroke:#44789D;stroke-width:2;stroke-linecap:round;stroke-linejoin:round;stroke-miterlimit:10;}
	.st42{fill:#EAE363;stroke:#EAE363;stroke-width:2;stroke-linecap:round;stroke-linejoin:round;stroke-miterlimit:10;}
	.st43{fill:#8C8E90;}
	.st44{fill:none;stroke:#4D4D4A;stroke-width:2;stroke-linecap:round;stroke-linejoin:round;stroke-miterlimit:10;}
	.st45{fill:#8C8E90;stroke:#8C8E90;stroke-miterlimit:10;}
</style>
<g>
	<line class="st31" x1="547.7" y1="636.8" x2="297" y2="636.8"/>
	<g>
		<g>
			<path class="st32" d="M494.4,209.8c-10.3-9.5-17.3-9.9-21.4-9.9c-5.2,0-10.2,3.4-10.2,8.4c0,17.7,64.5,33.5,64.5,77
				c0,41.1-31.8,64.6-90,64.6c-25.7,0-51.2-11.6-71.3-32.1l38.1-33.6c19.9,18.5,27.4,19.1,33.3,19.1c9.3,0,14.3-5.9,14.3-12.4
				c0-19.2-60.7-33.5-60.7-75.3c0-39.9,33.8-61.7,77.2-61.7c19.3,0,43.3,5.9,59.3,22.5L494.4,209.8z"/>
		</g>
		<path class="st32" d="M699.2,70.7l10.6-69.1c-71.2,0.7-124,33.9-134.3,100.6l-44.4,287.2c6.4,2.7,12.5,6.4,18.2,11.1
			c15,12.6,23.3,29.3,24,48.3c0,0.1,0,0.2,0,0.3h25.5l34.8-224.3h39.9l10.2-66.3h-39.9l7.5-48C655.3,84.6,671.6,71.1,699.2,70.7z"/>
		<g>
			<path class="st23" d="M534.5,418c-8.8-7.4-18.3-10.5-27.7-10.5c-8.2,0-16.3,2.4-23.8,6.6c1.2,7.8,1.4,15.8,0.6,23.9
				c-2,19.8-10.3,36.6-17.6,51.4l-1.3,2.6c-8.6,17.4-15.4,33.9-20.7,49.9c14-8.2,28.5-15.4,43.5-22c15.1-6.6,30.4-13,42.4-24.6
				C551.5,474.1,560.2,439.7,534.5,418z"/>
			<g>
				<path class="st24" d="M414.6,373.5C414.5,373.5,414.5,373.5,414.6,373.5c-21.5,0-35.5,13-42.1,30.2c6.1,5.3,11.7,11.5,16.4,18.5
					c11.2,16.5,15.6,34.6,19.5,50.7l0.7,2.8c4.5,18.4,9.7,35.1,15.7,50.5c5.5-15.1,11.9-29.9,19-44.4c7.3-14.8,14.9-29.5,16.7-46.1
					C463.6,405.5,448.2,373.5,414.6,373.5z"/>
			</g>
			<path class="st25" d="M299.4,494.4c12.1,11.7,27.3,18.1,42.5,24.7c25.7,11.3,50,24.3,72.7,41c-12.5-25.3-21.1-51.5-27.8-78.8
				c-3.9-16-7.5-32.2-16.9-46c-11.2-16.6-29.2-28.5-47.5-28.5c-9.4,0-18.9,3.2-27.7,10.5C268.8,438.8,277.6,473.3,299.4,494.4z"/>
		</g>
		<path class="st32" d="M255.8,447.8c0.7-19,9-35.7,24.1-48.3c12.4-10.4,27.1-15.9,42.5-15.9c3.9,0,7.9,0.4,11.8,1.1
			c3.6-9.4,6.3-19.7,8.1-30.9L368,187.3c-26.7-22.2-56.6-33.3-88.6-33.3c-80.8,0-128.2,47.9-128.2,115.7c0,50.5,37.6,80.3,78,80.3
			c13.5,0,26.8-3.1,38.2-10.1l-1.8,12.1c-4.6,31.8-15.4,45-46,45c-19.1,0-35.9-4.6-58-12.9l-26.8,49c30.1,13.2,58.9,20.1,85.7,20.1
			c12.7,0,24.4-1.2,35.2-3.4C255.8,449.2,255.7,448.5,255.8,447.8z M253.4,291c-12.5,0-24.5-7.3-24.5-28.6c0-29.9,20.3-48.6,40-48.6
			c7.1,0,11.8,1.2,17.6,4.6l-9.4,59.9C270.5,286,262.1,291,253.4,291z"/>
	</g>
	<g>
		<g>
			<path class="st33" d="M1.4,841.5c0-0.8,0.4-1.2,1.2-1.2h5.6c0.8,0,1.2-0.4,1.2-1.2v-48.5c0-0.8-0.4-1.2-1.2-1.2H2.6
				c-0.8,0-1.2-0.4-1.2-1.2c0-0.8,0.4-1.2,1.2-1.2h22.3c8,0,14.4,2.7,19.3,7.9c4.9,5.3,7.3,11.9,7.3,19.9c0,8-2.4,14.6-7.3,19.9
				c-4.9,5.3-11.3,8-19.3,8H2.6C1.8,842.7,1.4,842.3,1.4,841.5z M11.8,839.1c0,0.8,0.4,1.2,1.2,1.2h11.9c7.2,0,13-2.4,17.5-7.2
				c4.5-4.8,6.7-10.9,6.7-18.2c0-7.3-2.2-13.4-6.7-18.2c-4.5-4.8-10.3-7.2-17.5-7.2H12.9c-0.8,0-1.2,0.4-1.2,1.2V839.1z"/>
			<path class="st33" d="M62.8,841.5c0-0.8,0.4-1.2,1.2-1.2h5.6c0.8,0,1.2-0.4,1.2-1.2v-48.5c0-0.8-0.4-1.2-1.2-1.2H64
				c-0.8,0-1.2-0.4-1.2-1.2c0-0.8,0.4-1.2,1.2-1.2h37.8c0.8,0,1.2,0.4,1.2,1.2v11.1c0,0.8-0.4,1.2-1.2,1.2c-0.8,0-1.2-0.4-1.2-1.2
				v-8.7c0-0.8-0.4-1.2-1.2-1.2h-25c-0.8,0-1.2,0.4-1.2,1.2V812c0,0.8,0.4,1.2,1.2,1.2h17.9c0.8,0,1.2-0.4,1.2-1.2v-4
				c0-0.8,0.4-1.2,1.2-1.2s1.2,0.4,1.2,1.2v12.7c0,0.8-0.4,1.2-1.2,1.2s-1.2-0.4-1.2-1.2v-4c0-0.8-0.4-1.2-1.2-1.2H74.3
				c-0.8,0-1.2,0.4-1.2,1.2v22.3c0,0.8,0.4,1.2,1.2,1.2h25.8c0.8,0,1.2-0.4,1.2-1.2v-8.7c0-0.8,0.4-1.2,1.2-1.2
				c0.8,0,1.2,0.4,1.2,1.2v11.1c0,0.8-0.4,1.2-1.2,1.2H64C63.2,842.7,62.8,842.3,62.8,841.5z"/>
			<path class="st33" d="M153.3,820.4c-0.8,0-1.2,0.4-1.2,1.2v17.5c0,0.8,0.4,1.2,1.2,1.2h6.4c0.8,0,1.2,0.4,1.2,1.2
				c0,0.8-0.4,1.2-1.2,1.2H143c-0.8,0-1.2-0.4-1.2-1.2c0-0.8,0.4-1.2,1.2-1.2h5.6c0.8,0,1.2-0.4,1.2-1.2v-48.5
				c0-0.8-0.4-1.2-1.2-1.2H143c-0.8,0-1.2-0.4-1.2-1.2c0-0.8,0.4-1.2,1.2-1.2h26.6c5.2,0,9.2,1.4,11.9,4.3c2.7,2.8,4,7,4,12.4
				c0,5.5-1.3,9.6-4,12.4c-2.7,2.8-6.6,4.3-11.9,4.3H153.3z M169.6,818c9,0,13.5-4.8,13.5-14.3c0-9.5-4.5-14.3-13.5-14.3h-16.3
				c-0.8,0-1.2,0.4-1.2,1.2v26.2c0,0.8,0.4,1.2,1.2,1.2H169.6z"/>
			<path class="st33" d="M204.4,835.4c-4.9-5.4-7.3-12.2-7.3-20.6c0-8.3,2.4-15.2,7.3-20.5c4.9-5.4,11.3-8.1,19.3-8.1
				c8,0,14.4,2.7,19.3,8.1c4.9,5.4,7.3,12.2,7.3,20.5c0,8.3-2.4,15.2-7.3,20.6c-4.9,5.4-11.3,8.1-19.3,8.1
				C215.7,843.5,209.3,840.8,204.4,835.4z M206.1,796c-4.5,4.9-6.7,11.2-6.7,18.8c0,7.6,2.2,13.9,6.7,18.8
				c4.5,4.9,10.3,7.4,17.6,7.4c7.3,0,13.1-2.5,17.6-7.4c4.5-4.9,6.7-11.2,6.7-18.8c0-7.6-2.2-13.9-6.7-18.8
				c-4.5-4.9-10.3-7.4-17.6-7.4C216.4,788.6,210.6,791.1,206.1,796z"/>
			<path class="st33" d="M262.9,840.3h5.6c0.8,0,1.2-0.4,1.2-1.2v-48.5c0-0.8-0.4-1.2-1.2-1.2h-5.6c-0.8,0-1.2-0.4-1.2-1.2
				c0-0.8,0.4-1.2,1.2-1.2h8.7c0.8,0,1.5,0.4,2,1.2l32.6,49.7c0.1,0.2,0.3,0.3,0.5,0.3c0.2,0,0.3-0.3,0.3-0.7v-46.9
				c0-0.8-0.4-1.2-1.2-1.2H301c-0.8,0-1.2-0.4-1.2-1.2c0-0.8,0.4-1.2,1.2-1.2h15.1c0.8,0,1.2,0.4,1.2,1.2c0,0.8-0.4,1.2-1.2,1.2
				h-5.6c-0.8,0-1.2,0.4-1.2,1.2v48.5c0,0.8,0.4,1.2,1.2,1.2h5.6c0.8,0,1.2,0.4,1.2,1.2c0,0.8-0.4,1.2-1.2,1.2h-8.7
				c-0.8,0-1.5-0.4-2-1.2l-32.6-49.7c-0.1-0.2-0.3-0.3-0.5-0.3c-0.2,0-0.3,0.3-0.3,0.7v46.9c0,0.8,0.4,1.2,1.2,1.2h4.8
				c0.8,0,1.2,0.4,1.2,1.2c0,0.8-0.4,1.2-1.2,1.2h-15.1c-0.8,0-1.2-0.4-1.2-1.2C261.7,840.7,262.1,840.3,262.9,840.3z"/>
			<path class="st33" d="M326.5,799.7v-11.5c0-0.8,0.4-1.2,1.2-1.2h42.9c0.8,0,1.2,0.4,1.2,1.2v11.5c0,0.8-0.4,1.2-1.2,1.2
				c-0.8,0-1.2-0.4-1.2-1.2v-9.1c0-0.8-0.4-1.2-1.2-1.2h-16.7c-0.8,0-1.2,0.4-1.2,1.2v48.5c0,0.8,0.4,1.2,1.2,1.2h5.6
				c0.8,0,1.2,0.4,1.2,1.2c0,0.8-0.4,1.2-1.2,1.2h-15.9c-0.8,0-1.2-0.4-1.2-1.2c0-0.8,0.4-1.2,1.2-1.2h5.6c0.8,0,1.2-0.4,1.2-1.2
				v-48.5c0-0.8-0.4-1.2-1.2-1.2h-16.7c-0.8,0-1.2,0.4-1.2,1.2v9.1c0,0.8-0.4,1.2-1.2,1.2C326.9,800.9,326.5,800.5,326.5,799.7z"/>
			<path class="st33" d="M415.8,824.4c-0.3-0.7-1-1.1-1.9-1.1h-22.6c-1,0-1.6,0.4-1.9,1.1l-5.6,14.7c-0.4,0.8-0.2,1.2,0.8,1.2h4.8
				c0.8,0,1.2,0.4,1.2,1.2c0,0.8-0.4,1.2-1.2,1.2h-15.1c-0.8,0-1.2-0.4-1.2-1.2c0-0.8,0.4-1.2,1.2-1.2h5.2c0.6,0,1.2-0.4,1.6-1.2
				l19.9-51.7c0.1-0.4,0.3-0.7,0.7-0.9c0.3-0.2,0.7-0.3,1.1-0.3c0.4,0,0.7,0.1,1.1,0.3c0.3,0.2,0.6,0.5,0.7,0.9l19.9,51.7
				c0.4,0.8,0.9,1.2,1.6,1.2h5.2c0.8,0,1.2,0.4,1.2,1.2c0,0.8-0.4,1.2-1.2,1.2h-15.1c-0.8,0-1.2-0.4-1.2-1.2c0-0.8,0.4-1.2,1.2-1.2
				h4.8c0.9,0,1.2-0.4,0.8-1.2L415.8,824.4z M403,791.4c-0.1-0.3-0.3-0.5-0.5-0.5c-0.2,0-0.4,0.2-0.5,0.5l-10.9,28.3
				c-0.4,0.8-0.1,1.2,0.9,1.2h21c1,0,1.2-0.4,0.9-1.2L403,791.4z"/>
			<path class="st33" d="M503.5,824.4c-0.3-0.7-1-1.1-1.9-1.1H479c-1,0-1.6,0.4-1.9,1.1l-5.6,14.7c-0.4,0.8-0.2,1.2,0.8,1.2h4.8
				c0.8,0,1.2,0.4,1.2,1.2c0,0.8-0.4,1.2-1.2,1.2H462c-0.8,0-1.2-0.4-1.2-1.2c0-0.8,0.4-1.2,1.2-1.2h5.2c0.6,0,1.2-0.4,1.6-1.2
				l19.9-51.7c0.1-0.4,0.3-0.7,0.7-0.9c0.3-0.2,0.7-0.3,1.1-0.3c0.4,0,0.7,0.1,1.1,0.3c0.3,0.2,0.6,0.5,0.7,0.9l19.9,51.7
				c0.4,0.8,0.9,1.2,1.6,1.2h5.2c0.8,0,1.2,0.4,1.2,1.2c0,0.8-0.4,1.2-1.2,1.2h-15.1c-0.8,0-1.2-0.4-1.2-1.2c0-0.8,0.4-1.2,1.2-1.2
				h4.8c0.9,0,1.2-0.4,0.8-1.2L503.5,824.4z M490.8,791.4c-0.1-0.3-0.3-0.5-0.5-0.5s-0.4,0.2-0.5,0.5L479,819.7
				c-0.4,0.8-0.1,1.2,0.9,1.2h21c1,0,1.2-0.4,0.9-1.2L490.8,791.4z"/>
			<path class="st33" d="M564.5,820.4c-0.8,0-1.2,0.4-1.2,1.2v17.5c0,0.8,0.4,1.2,1.2,1.2h6.4c0.8,0,1.2,0.4,1.2,1.2
				c0,0.8-0.4,1.2-1.2,1.2h-16.7c-0.8,0-1.2-0.4-1.2-1.2c0-0.8,0.4-1.2,1.2-1.2h5.6c0.8,0,1.2-0.4,1.2-1.2v-48.5
				c0-0.8-0.4-1.2-1.2-1.2h-5.6c-0.8,0-1.2-0.4-1.2-1.2c0-0.8,0.4-1.2,1.2-1.2h26.6c5.2,0,9.2,1.4,11.9,4.3c2.7,2.8,4,7,4,12.4
				c0,5.5-1.3,9.6-4,12.4c-2.7,2.8-6.6,4.3-11.9,4.3H564.5z M580.8,818c9,0,13.5-4.8,13.5-14.3c0-9.5-4.5-14.3-13.5-14.3h-16.3
				c-0.8,0-1.2,0.4-1.2,1.2v26.2c0,0.8,0.4,1.2,1.2,1.2H580.8z"/>
			<path class="st33" d="M615.5,835.4c-4.9-5.4-7.3-12.2-7.3-20.6c0-8.3,2.4-15.2,7.3-20.5c4.9-5.4,11.3-8.1,19.3-8.1
				c8,0,14.4,2.7,19.3,8.1c4.9,5.4,7.3,12.2,7.3,20.5c0,8.3-2.4,15.2-7.3,20.6c-4.9,5.4-11.3,8.1-19.3,8.1
				C626.9,843.5,620.4,840.8,615.5,835.4z M617.3,796c-4.5,4.9-6.7,11.2-6.7,18.8c0,7.6,2.2,13.9,6.7,18.8
				c4.5,4.9,10.3,7.4,17.6,7.4c7.3,0,13.1-2.5,17.6-7.4c4.5-4.9,6.7-11.2,6.7-18.8c0-7.6-2.2-13.9-6.7-18.8
				c-4.5-4.9-10.3-7.4-17.6-7.4C627.6,788.6,621.7,791.1,617.3,796z"/>
			<path class="st33" d="M674.1,840.3h5.6c0.8,0,1.2-0.4,1.2-1.2v-48.5c0-0.8-0.4-1.2-1.2-1.2h-5.6c-0.8,0-1.2-0.4-1.2-1.2
				c0-0.8,0.4-1.2,1.2-1.2h8.7c0.8,0,1.5,0.4,2,1.2l32.6,49.7c0.1,0.2,0.3,0.3,0.5,0.3c0.2,0,0.3-0.3,0.3-0.7v-46.9
				c0-0.8-0.4-1.2-1.2-1.2h-4.8c-0.8,0-1.2-0.4-1.2-1.2c0-0.8,0.4-1.2,1.2-1.2h15.1c0.8,0,1.2,0.4,1.2,1.2c0,0.8-0.4,1.2-1.2,1.2
				h-5.6c-0.8,0-1.2,0.4-1.2,1.2v48.5c0,0.8,0.4,1.2,1.2,1.2h5.6c0.8,0,1.2,0.4,1.2,1.2c0,0.8-0.4,1.2-1.2,1.2h-8.7
				c-0.8,0-1.5-0.4-2-1.2L684,791.8c-0.1-0.2-0.3-0.3-0.5-0.3c-0.2,0-0.3,0.3-0.3,0.7v46.9c0,0.8,0.4,1.2,1.2,1.2h4.8
				c0.8,0,1.2,0.4,1.2,1.2c0,0.8-0.4,1.2-1.2,1.2h-15.1c-0.8,0-1.2-0.4-1.2-1.2C672.9,840.7,673.3,840.3,674.1,840.3z"/>
			<path class="st33" d="M737.7,799.7v-11.5c0-0.8,0.4-1.2,1.2-1.2h42.9c0.8,0,1.2,0.4,1.2,1.2v11.5c0,0.8-0.4,1.2-1.2,1.2
				c-0.8,0-1.2-0.4-1.2-1.2v-9.1c0-0.8-0.4-1.2-1.2-1.2h-16.7c-0.8,0-1.2,0.4-1.2,1.2v48.5c0,0.8,0.4,1.2,1.2,1.2h5.6
				c0.8,0,1.2,0.4,1.2,1.2c0,0.8-0.4,1.2-1.2,1.2h-15.9c-0.8,0-1.2-0.4-1.2-1.2c0-0.8,0.4-1.2,1.2-1.2h5.6c0.8,0,1.2-0.4,1.2-1.2
				v-48.5c0-0.8-0.4-1.2-1.2-1.2h-16.7c-0.8,0-1.2,0.4-1.2,1.2v9.1c0,0.8-0.4,1.2-1.2,1.2C738,800.9,737.7,800.5,737.7,799.7z"/>
			<path class="st33" d="M826.9,824.4c-0.3-0.7-1-1.1-1.9-1.1h-22.6c-1,0-1.6,0.4-1.9,1.1l-5.6,14.7c-0.4,0.8-0.2,1.2,0.8,1.2h4.8
				c0.8,0,1.2,0.4,1.2,1.2c0,0.8-0.4,1.2-1.2,1.2h-15.1c-0.8,0-1.2-0.4-1.2-1.2c0-0.8,0.4-1.2,1.2-1.2h5.2c0.6,0,1.2-0.4,1.6-1.2
				l19.9-51.7c0.1-0.4,0.3-0.7,0.7-0.9c0.3-0.2,0.7-0.3,1.1-0.3s0.7,0.1,1.1,0.3c0.3,0.2,0.6,0.5,0.7,0.9l19.9,51.7
				c0.4,0.8,0.9,1.2,1.6,1.2h5.2c0.8,0,1.2,0.4,1.2,1.2c0,0.8-0.4,1.2-1.2,1.2H827c-0.8,0-1.2-0.4-1.2-1.2c0-0.8,0.4-1.2,1.2-1.2
				h4.8c0.9,0,1.2-0.4,0.8-1.2L826.9,824.4z M814.2,791.4c-0.1-0.3-0.3-0.5-0.5-0.5s-0.4,0.2-0.5,0.5l-10.9,28.3
				c-0.4,0.8-0.1,1.2,0.9,1.2h21c1,0,1.2-0.4,0.9-1.2L814.2,791.4z"/>
		</g>
		<g>
			<path class="st34" d="M1.4,841.5c0-0.8,0.4-1.2,1.2-1.2h5.6c0.8,0,1.2-0.4,1.2-1.2v-48.5c0-0.8-0.4-1.2-1.2-1.2H2.6
				c-0.8,0-1.2-0.4-1.2-1.2c0-0.8,0.4-1.2,1.2-1.2h22.3c8,0,14.4,2.7,19.3,7.9c4.9,5.3,7.3,11.9,7.3,19.9c0,8-2.4,14.6-7.3,19.9
				c-4.9,5.3-11.3,8-19.3,8H2.6C1.8,842.7,1.4,842.3,1.4,841.5z M11.8,839.1c0,0.8,0.4,1.2,1.2,1.2h11.9c7.2,0,13-2.4,17.5-7.2
				c4.5-4.8,6.7-10.9,6.7-18.2c0-7.3-2.2-13.4-6.7-18.2c-4.5-4.8-10.3-7.2-17.5-7.2H12.9c-0.8,0-1.2,0.4-1.2,1.2V839.1z"/>
			<path class="st34" d="M62.8,841.5c0-0.8,0.4-1.2,1.2-1.2h5.6c0.8,0,1.2-0.4,1.2-1.2v-48.5c0-0.8-0.4-1.2-1.2-1.2H64
				c-0.8,0-1.2-0.4-1.2-1.2c0-0.8,0.4-1.2,1.2-1.2h37.8c0.8,0,1.2,0.4,1.2,1.2v11.1c0,0.8-0.4,1.2-1.2,1.2c-0.8,0-1.2-0.4-1.2-1.2
				v-8.7c0-0.8-0.4-1.2-1.2-1.2h-25c-0.8,0-1.2,0.4-1.2,1.2V812c0,0.8,0.4,1.2,1.2,1.2h17.9c0.8,0,1.2-0.4,1.2-1.2v-4
				c0-0.8,0.4-1.2,1.2-1.2s1.2,0.4,1.2,1.2v12.7c0,0.8-0.4,1.2-1.2,1.2s-1.2-0.4-1.2-1.2v-4c0-0.8-0.4-1.2-1.2-1.2H74.3
				c-0.8,0-1.2,0.4-1.2,1.2v22.3c0,0.8,0.4,1.2,1.2,1.2h25.8c0.8,0,1.2-0.4,1.2-1.2v-8.7c0-0.8,0.4-1.2,1.2-1.2
				c0.8,0,1.2,0.4,1.2,1.2v11.1c0,0.8-0.4,1.2-1.2,1.2H64C63.2,842.7,62.8,842.3,62.8,841.5z"/>
			<path class="st34" d="M153.3,820.4c-0.8,0-1.2,0.4-1.2,1.2v17.5c0,0.8,0.4,1.2,1.2,1.2h6.4c0.8,0,1.2,0.4,1.2,1.2
				c0,0.8-0.4,1.2-1.2,1.2H143c-0.8,0-1.2-0.4-1.2-1.2c0-0.8,0.4-1.2,1.2-1.2h5.6c0.8,0,1.2-0.4,1.2-1.2v-48.5
				c0-0.8-0.4-1.2-1.2-1.2H143c-0.8,0-1.2-0.4-1.2-1.2c0-0.8,0.4-1.2,1.2-1.2h26.6c5.2,0,9.2,1.4,11.9,4.3c2.7,2.8,4,7,4,12.4
				c0,5.5-1.3,9.6-4,12.4c-2.7,2.8-6.6,4.3-11.9,4.3H153.3z M169.6,818c9,0,13.5-4.8,13.5-14.3c0-9.5-4.5-14.3-13.5-14.3h-16.3
				c-0.8,0-1.2,0.4-1.2,1.2v26.2c0,0.8,0.4,1.2,1.2,1.2H169.6z"/>
			<path class="st34" d="M204.4,835.4c-4.9-5.4-7.3-12.2-7.3-20.6c0-8.3,2.4-15.2,7.3-20.5c4.9-5.4,11.3-8.1,19.3-8.1
				c8,0,14.4,2.7,19.3,8.1c4.9,5.4,7.3,12.2,7.3,20.5c0,8.3-2.4,15.2-7.3,20.6c-4.9,5.4-11.3,8.1-19.3,8.1
				C215.7,843.5,209.3,840.8,204.4,835.4z M206.1,796c-4.5,4.9-6.7,11.2-6.7,18.8c0,7.6,2.2,13.9,6.7,18.8
				c4.5,4.9,10.3,7.4,17.6,7.4c7.3,0,13.1-2.5,17.6-7.4c4.5-4.9,6.7-11.2,6.7-18.8c0-7.6-2.2-13.9-6.7-18.8
				c-4.5-4.9-10.3-7.4-17.6-7.4C216.4,788.6,210.6,791.1,206.1,796z"/>
			<path class="st34" d="M262.9,840.3h5.6c0.8,0,1.2-0.4,1.2-1.2v-48.5c0-0.8-0.4-1.2-1.2-1.2h-5.6c-0.8,0-1.2-0.4-1.2-1.2
				c0-0.8,0.4-1.2,1.2-1.2h8.7c0.8,0,1.5,0.4,2,1.2l32.6,49.7c0.1,0.2,0.3,0.3,0.5,0.3c0.2,0,0.3-0.3,0.3-0.7v-46.9
				c0-0.8-0.4-1.2-1.2-1.2H301c-0.8,0-1.2-0.4-1.2-1.2c0-0.8,0.4-1.2,1.2-1.2h15.1c0.8,0,1.2,0.4,1.2,1.2c0,0.8-0.4,1.2-1.2,1.2
				h-5.6c-0.8,0-1.2,0.4-1.2,1.2v48.5c0,0.8,0.4,1.2,1.2,1.2h5.6c0.8,0,1.2,0.4,1.2,1.2c0,0.8-0.4,1.2-1.2,1.2h-8.7
				c-0.8,0-1.5-0.4-2-1.2l-32.6-49.7c-0.1-0.2-0.3-0.3-0.5-0.3c-0.2,0-0.3,0.3-0.3,0.7v46.9c0,0.8,0.4,1.2,1.2,1.2h4.8
				c0.8,0,1.2,0.4,1.2,1.2c0,0.8-0.4,1.2-1.2,1.2h-15.1c-0.8,0-1.2-0.4-1.2-1.2C261.7,840.7,262.1,840.3,262.9,840.3z"/>
			<path class="st34" d="M326.5,799.7v-11.5c0-0.8,0.4-1.2,1.2-1.2h42.9c0.8,0,1.2,0.4,1.2,1.2v11.5c0,0.8-0.4,1.2-1.2,1.2
				c-0.8,0-1.2-0.4-1.2-1.2v-9.1c0-0.8-0.4-1.2-1.2-1.2h-16.7c-0.8,0-1.2,0.4-1.2,1.2v48.5c0,0.8,0.4,1.2,1.2,1.2h5.6
				c0.8,0,1.2,0.4,1.2,1.2c0,0.8-0.4,1.2-1.2,1.2h-15.9c-0.8,0-1.2-0.4-1.2-1.2c0-0.8,0.4-1.2,1.2-1.2h5.6c0.8,0,1.2-0.4,1.2-1.2
				v-48.5c0-0.8-0.4-1.2-1.2-1.2h-16.7c-0.8,0-1.2,0.4-1.2,1.2v9.1c0,0.8-0.4,1.2-1.2,1.2C326.9,800.9,326.5,800.5,326.5,799.7z"/>
			<path class="st34" d="M415.8,824.4c-0.3-0.7-1-1.1-1.9-1.1h-22.6c-1,0-1.6,0.4-1.9,1.1l-5.6,14.7c-0.4,0.8-0.2,1.2,0.8,1.2h4.8
				c0.8,0,1.2,0.4,1.2,1.2c0,0.8-0.4,1.2-1.2,1.2h-15.1c-0.8,0-1.2-0.4-1.2-1.2c0-0.8,0.4-1.2,1.2-1.2h5.2c0.6,0,1.2-0.4,1.6-1.2
				l19.9-51.7c0.1-0.4,0.3-0.7,0.7-0.9c0.3-0.2,0.7-0.3,1.1-0.3c0.4,0,0.7,0.1,1.1,0.3c0.3,0.2,0.6,0.5,0.7,0.9l19.9,51.7
				c0.4,0.8,0.9,1.2,1.6,1.2h5.2c0.8,0,1.2,0.4,1.2,1.2c0,0.8-0.4,1.2-1.2,1.2h-15.1c-0.8,0-1.2-0.4-1.2-1.2c0-0.8,0.4-1.2,1.2-1.2
				h4.8c0.9,0,1.2-0.4,0.8-1.2L415.8,824.4z M403,791.4c-0.1-0.3-0.3-0.5-0.5-0.5c-0.2,0-0.4,0.2-0.5,0.5l-10.9,28.3
				c-0.4,0.8-0.1,1.2,0.9,1.2h21c1,0,1.2-0.4,0.9-1.2L403,791.4z"/>
			<path class="st34" d="M503.5,824.4c-0.3-0.7-1-1.1-1.9-1.1H479c-1,0-1.6,0.4-1.9,1.1l-5.6,14.7c-0.4,0.8-0.2,1.2,0.8,1.2h4.8
				c0.8,0,1.2,0.4,1.2,1.2c0,0.8-0.4,1.2-1.2,1.2H462c-0.8,0-1.2-0.4-1.2-1.2c0-0.8,0.4-1.2,1.2-1.2h5.2c0.6,0,1.2-0.4,1.6-1.2
				l19.9-51.7c0.1-0.4,0.3-0.7,0.7-0.9c0.3-0.2,0.7-0.3,1.1-0.3c0.4,0,0.7,0.1,1.1,0.3c0.3,0.2,0.6,0.5,0.7,0.9l19.9,51.7
				c0.4,0.8,0.9,1.2,1.6,1.2h5.2c0.8,0,1.2,0.4,1.2,1.2c0,0.8-0.4,1.2-1.2,1.2h-15.1c-0.8,0-1.2-0.4-1.2-1.2c0-0.8,0.4-1.2,1.2-1.2
				h4.8c0.9,0,1.2-0.4,0.8-1.2L503.5,824.4z M490.8,791.4c-0.1-0.3-0.3-0.5-0.5-0.5s-0.4,0.2-0.5,0.5L479,819.7
				c-0.4,0.8-0.1,1.2,0.9,1.2h21c1,0,1.2-0.4,0.9-1.2L490.8,791.4z"/>
			<path class="st34" d="M564.5,820.4c-0.8,0-1.2,0.4-1.2,1.2v17.5c0,0.8,0.4,1.2,1.2,1.2h6.4c0.8,0,1.2,0.4,1.2,1.2
				c0,0.8-0.4,1.2-1.2,1.2h-16.7c-0.8,0-1.2-0.4-1.2-1.2c0-0.8,0.4-1.2,1.2-1.2h5.6c0.8,0,1.2-0.4,1.2-1.2v-48.5
				c0-0.8-0.4-1.2-1.2-1.2h-5.6c-0.8,0-1.2-0.4-1.2-1.2c0-0.8,0.4-1.2,1.2-1.2h26.6c5.2,0,9.2,1.4,11.9,4.3c2.7,2.8,4,7,4,12.4
				c0,5.5-1.3,9.6-4,12.4c-2.7,2.8-6.6,4.3-11.9,4.3H564.5z M580.8,818c9,0,13.5-4.8,13.5-14.3c0-9.5-4.5-14.3-13.5-14.3h-16.3
				c-0.8,0-1.2,0.4-1.2,1.2v26.2c0,0.8,0.4,1.2,1.2,1.2H580.8z"/>
			<path class="st34" d="M615.5,835.4c-4.9-5.4-7.3-12.2-7.3-20.6c0-8.3,2.4-15.2,7.3-20.5c4.9-5.4,11.3-8.1,19.3-8.1
				c8,0,14.4,2.7,19.3,8.1c4.9,5.4,7.3,12.2,7.3,20.5c0,8.3-2.4,15.2-7.3,20.6c-4.9,5.4-11.3,8.1-19.3,8.1
				C626.9,843.5,620.4,840.8,615.5,835.4z M617.3,796c-4.5,4.9-6.7,11.2-6.7,18.8c0,7.6,2.2,13.9,6.7,18.8
				c4.5,4.9,10.3,7.4,17.6,7.4c7.3,0,13.1-2.5,17.6-7.4c4.5-4.9,6.7-11.2,6.7-18.8c0-7.6-2.2-13.9-6.7-18.8
				c-4.5-4.9-10.3-7.4-17.6-7.4C627.6,788.6,621.7,791.1,617.3,796z"/>
			<path class="st34" d="M674.1,840.3h5.6c0.8,0,1.2-0.4,1.2-1.2v-48.5c0-0.8-0.4-1.2-1.2-1.2h-5.6c-0.8,0-1.2-0.4-1.2-1.2
				c0-0.8,0.4-1.2,1.2-1.2h8.7c0.8,0,1.5,0.4,2,1.2l32.6,49.7c0.1,0.2,0.3,0.3,0.5,0.3c0.2,0,0.3-0.3,0.3-0.7v-46.9
				c0-0.8-0.4-1.2-1.2-1.2h-4.8c-0.8,0-1.2-0.4-1.2-1.2c0-0.8,0.4-1.2,1.2-1.2h15.1c0.8,0,1.2,0.4,1.2,1.2c0,0.8-0.4,1.2-1.2,1.2
				h-5.6c-0.8,0-1.2,0.4-1.2,1.2v48.5c0,0.8,0.4,1.2,1.2,1.2h5.6c0.8,0,1.2,0.4,1.2,1.2c0,0.8-0.4,1.2-1.2,1.2h-8.7
				c-0.8,0-1.5-0.4-2-1.2L684,791.8c-0.1-0.2-0.3-0.3-0.5-0.3c-0.2,0-0.3,0.3-0.3,0.7v46.9c0,0.8,0.4,1.2,1.2,1.2h4.8
				c0.8,0,1.2,0.4,1.2,1.2c0,0.8-0.4,1.2-1.2,1.2h-15.1c-0.8,0-1.2-0.4-1.2-1.2C672.9,840.7,673.3,840.3,674.1,840.3z"/>
			<path class="st34" d="M737.7,799.7v-11.5c0-0.8,0.4-1.2,1.2-1.2h42.9c0.8,0,1.2,0.4,1.2,1.2v11.5c0,0.8-0.4,1.2-1.2,1.2
				c-0.8,0-1.2-0.4-1.2-1.2v-9.1c0-0.8-0.4-1.2-1.2-1.2h-16.7c-0.8,0-1.2,0.4-1.2,1.2v48.5c0,0.8,0.4,1.2,1.2,1.2h5.6
				c0.8,0,1.2,0.4,1.2,1.2c0,0.8-0.4,1.2-1.2,1.2h-15.9c-0.8,0-1.2-0.4-1.2-1.2c0-0.8,0.4-1.2,1.2-1.2h5.6c0.8,0,1.2-0.4,1.2-1.2
				v-48.5c0-0.8-0.4-1.2-1.2-1.2h-16.7c-0.8,0-1.2,0.4-1.2,1.2v9.1c0,0.8-0.4,1.2-1.2,1.2C738,800.9,737.7,800.5,737.7,799.7z"/>
			<path class="st34" d="M826.9,824.4c-0.3-0.7-1-1.1-1.9-1.1h-22.6c-1,0-1.6,0.4-1.9,1.1l-5.6,14.7c-0.4,0.8-0.2,1.2,0.8,1.2h4.8
				c0.8,0,1.2,0.4,1.2,1.2c0,0.8-0.4,1.2-1.2,1.2h-15.1c-0.8,0-1.2-0.4-1.2-1.2c0-0.8,0.4-1.2,1.2-1.2h5.2c0.6,0,1.2-0.4,1.6-1.2
				l19.9-51.7c0.1-0.4,0.3-0.7,0.7-0.9c0.3-0.2,0.7-0.3,1.1-0.3s0.7,0.1,1.1,0.3c0.3,0.2,0.6,0.5,0.7,0.9l19.9,51.7
				c0.4,0.8,0.9,1.2,1.6,1.2h5.2c0.8,0,1.2,0.4,1.2,1.2c0,0.8-0.4,1.2-1.2,1.2H827c-0.8,0-1.2-0.4-1.2-1.2c0-0.8,0.4-1.2,1.2-1.2
				h4.8c0.9,0,1.2-0.4,0.8-1.2L826.9,824.4z M814.2,791.4c-0.1-0.3-0.3-0.5-0.5-0.5s-0.4,0.2-0.5,0.5l-10.9,28.3
				c-0.4,0.8-0.1,1.2,0.9,1.2h21c1,0,1.2-0.4,0.9-1.2L814.2,791.4z"/>
		</g>
		<g>
			<path class="st35" d="M6.6,756.6c-3.5-3.8-5.2-8.7-5.2-14.6c0-5.9,1.7-10.8,5.2-14.6c3.5-3.8,8.1-5.8,13.8-5.8
				c5.7,0,10.3,1.9,13.8,5.8s5.2,8.7,5.2,14.6c0,5.9-1.7,10.8-5.2,14.6c-3.5,3.8-8.1,5.8-13.8,5.8C14.7,762.4,10.1,760.5,6.6,756.6z
				 M7.9,728.5c-3.2,3.5-4.8,8-4.8,13.4c0,5.4,1.6,9.9,4.8,13.4s7.3,5.3,12.5,5.3c5.2,0,9.3-1.8,12.5-5.3c3.2-3.5,4.8-8,4.8-13.4
				c0-5.4-1.6-9.9-4.8-13.4c-3.2-3.5-7.3-5.3-12.5-5.3C15.2,723.3,11.1,725,7.9,728.5z"/>
			<path class="st35" d="M46.6,731.2V723c0-0.6,0.3-0.8,0.9-0.8H78c0.6,0,0.8,0.3,0.8,0.8v8.2c0,0.6-0.3,0.9-0.8,0.9
				c-0.6,0-0.9-0.3-0.9-0.9v-6.5c0-0.6-0.3-0.9-0.8-0.9H64.4c-0.6,0-0.8,0.3-0.8,0.9v34.6c0,0.6,0.3,0.8,0.8,0.8h4
				c0.6,0,0.8,0.3,0.8,0.9c0,0.6-0.3,0.8-0.8,0.8H57.1c-0.6,0-0.8-0.3-0.8-0.8c0-0.6,0.3-0.9,0.8-0.9h4c0.6,0,0.9-0.3,0.9-0.8v-34.6
				c0-0.6-0.3-0.9-0.9-0.9H49.1c-0.6,0-0.9,0.3-0.9,0.9v6.5c0,0.6-0.3,0.9-0.8,0.9C46.9,732.1,46.6,731.8,46.6,731.2z"/>
			<path class="st35" d="M85.6,761c0-0.6,0.3-0.9,0.8-0.9h4c0.6,0,0.9-0.3,0.9-0.8v-34.6c0-0.6-0.3-0.9-0.9-0.9h-4
				c-0.6,0-0.8-0.3-0.8-0.8s0.3-0.8,0.8-0.8h11.3c0.6,0,0.8,0.3,0.8,0.8s-0.3,0.8-0.8,0.8h-4c-0.6,0-0.9,0.3-0.9,0.9v34.6
				c0,0.6,0.3,0.8,0.9,0.8h4c0.6,0,0.8,0.3,0.8,0.9c0,0.6-0.3,0.8-0.8,0.8H86.4C85.8,761.8,85.6,761.5,85.6,761z"/>
			<path class="st35" d="M107.5,760.1h4c0.6,0,0.9-0.3,0.9-0.8v-34.6c0-0.6-0.3-0.9-0.9-0.9h-4c-0.6,0-0.8-0.3-0.8-0.8
				s0.3-0.8,0.8-0.8h6.2c0.7,0,1.2,0.3,1.4,0.8l15.9,35.1c0.4,0.8,0.8,0.8,1.1,0L148,723c0.3-0.6,0.7-0.8,1.4-0.8h6.2
				c0.6,0,0.8,0.3,0.8,0.8s-0.3,0.8-0.8,0.8h-4c-0.6,0-0.9,0.3-0.9,0.9v34.6c0,0.6,0.3,0.8,0.9,0.8h4c0.6,0,0.8,0.3,0.8,0.9
				c0,0.6-0.3,0.8-0.8,0.8h-10.8c-0.6,0-0.9-0.3-0.9-0.8c0-0.6,0.3-0.9,0.9-0.9h3.4c0.6,0,0.9-0.3,0.9-0.8v-33.1
				c0-0.2,0-0.3-0.1-0.4c-0.1-0.1-0.1-0.1-0.2-0.1c-0.1,0-0.1,0.1-0.2,0.2L132.8,761c-0.3,0.6-0.7,0.8-1.2,0.8
				c-0.5,0-0.9-0.3-1.2-0.8l-15.9-35.1c-0.1-0.1-0.1-0.2-0.2-0.2c-0.1,0-0.1,0-0.2,0.1c-0.1,0.1-0.1,0.2-0.1,0.4v33.1
				c0,0.6,0.3,0.8,0.9,0.8h3.4c0.6,0,0.8,0.3,0.8,0.9c0,0.6-0.3,0.8-0.8,0.8h-10.8c-0.6,0-0.8-0.3-0.8-0.8
				C106.6,760.4,106.9,760.1,107.5,760.1z"/>
			<path class="st35" d="M164.5,761c0-0.6,0.3-0.9,0.8-0.9h4c0.6,0,0.9-0.3,0.9-0.8v-34.6c0-0.6-0.3-0.9-0.9-0.9h-4
				c-0.6,0-0.8-0.3-0.8-0.8s0.3-0.8,0.8-0.8h11.3c0.6,0,0.8,0.3,0.8,0.8s-0.3,0.8-0.8,0.8h-4c-0.6,0-0.9,0.3-0.9,0.9v34.6
				c0,0.6,0.3,0.8,0.9,0.8h4c0.6,0,0.8,0.3,0.8,0.9c0,0.6-0.3,0.8-0.8,0.8h-11.3C164.8,761.8,164.5,761.5,164.5,761z"/>
			<path class="st35" d="M185.9,760.8c0-0.1,0.2-0.6,0.7-1.3l25.4-34.8c0.2-0.2,0.3-0.4,0.2-0.6c-0.1-0.2-0.4-0.3-0.8-0.3h-22.7
				c-0.6,0-0.9,0.3-0.9,0.9v6.2c0,0.6-0.3,0.8-0.8,0.8s-0.8-0.3-0.8-0.8V723c0-0.6,0.3-0.8,0.8-0.8h27.2c0.6,0,0.9,0.3,0.9,1
				c0,0.2-0.2,0.6-0.7,1.3l-25.4,34.8c-0.2,0.2-0.3,0.4-0.2,0.6c0.1,0.2,0.4,0.3,0.8,0.3h22.7c0.6,0,0.9-0.3,0.9-0.8V753
				c0-0.6,0.3-0.9,0.8-0.9s0.8,0.3,0.8,0.9v7.9c0,0.6-0.3,0.8-0.8,0.8h-27.2C186.1,761.8,185.9,761.5,185.9,760.8z"/>
			<path class="st35" d="M250.6,748.8c-0.2-0.5-0.7-0.8-1.4-0.8h-16.1c-0.7,0-1.1,0.3-1.4,0.8l-4,10.5c-0.3,0.6-0.1,0.8,0.6,0.8h3.4
				c0.6,0,0.9,0.3,0.9,0.9c0,0.6-0.3,0.8-0.9,0.8H221c-0.6,0-0.8-0.3-0.8-0.8c0-0.6,0.3-0.9,0.8-0.9h3.7c0.5,0,0.8-0.3,1.1-0.8
				l14.2-36.8c0.1-0.3,0.2-0.5,0.5-0.6c0.2-0.2,0.5-0.2,0.8-0.2s0.5,0.1,0.8,0.2c0.2,0.2,0.4,0.4,0.5,0.6l14.2,36.8
				c0.3,0.6,0.6,0.8,1.1,0.8h3.7c0.6,0,0.9,0.3,0.9,0.9c0,0.6-0.3,0.8-0.9,0.8h-10.8c-0.6,0-0.8-0.3-0.8-0.8c0-0.6,0.3-0.9,0.8-0.9
				h3.4c0.6,0,0.8-0.3,0.6-0.8L250.6,748.8z M241.6,725.3c-0.1-0.2-0.2-0.3-0.3-0.3s-0.3,0.1-0.3,0.3l-7.8,20.2
				c-0.3,0.6-0.1,0.8,0.6,0.8h15c0.7,0,0.9-0.3,0.6-0.8L241.6,725.3z"/>
			<path class="st35" d="M266.4,742c0-5.9,1.7-10.7,5-14.6c3.3-3.9,7.6-5.8,12.9-5.8c4.6,0,8.7,1.6,12.4,4.8
				c0.6,0.5,0.9,0.3,0.9-0.6V723c0-0.6,0.3-0.8,0.9-0.8c0.6,0,0.8,0.3,0.8,0.8v10.8c0,0.6-0.3,0.9-0.8,0.9c-0.6,0-0.9-0.3-0.9-0.9
				v-4c-1-1.2-2.2-2.2-3.6-3.2c-3.1-2.2-6.3-3.3-9.7-3.3c-4.6,0-8.5,1.8-11.6,5.3c-3.1,3.6-4.6,8-4.6,13.4c0,5.4,1.6,9.9,4.8,13.4
				c3.2,3.5,7.3,5.3,12.5,5.3c2.6,0,5-0.4,7.2-1.3c2.2-0.9,4.1-2.2,5.8-3.9c0.4-0.4,0.8-0.4,1.2,0c0.4,0.4,0.4,0.8,0,1.2
				c-1.8,1.8-3.9,3.2-6.1,4.2c-2.3,1-5,1.5-8,1.5c-5.7,0-10.3-1.9-13.8-5.7C268.2,752.8,266.4,747.9,266.4,742z M283.9,770.3
				c2.6,0,4-0.8,4-2.3c0-0.6-0.2-1.2-0.7-1.6c-0.5-0.4-1.2-0.7-2.1-0.7h-0.9c-0.6,0-0.8-0.3-0.8-0.8v-3.1c0-0.6,0.3-0.8,0.8-0.8
				c0.6,0,0.9,0.3,0.9,0.8v2.3c1.4,0,2.5,0.4,3.3,1.1c0.8,0.7,1.2,1.7,1.2,2.9c0,1.2-0.5,2.2-1.4,2.9c-0.9,0.7-2.4,1.1-4.3,1.1
				c-0.6,0-0.8-0.3-0.8-0.8C283,770.6,283.3,770.3,283.9,770.3z"/>
			<path class="st35" d="M335,748.8c-0.2-0.5-0.7-0.8-1.4-0.8h-16.1c-0.7,0-1.1,0.3-1.4,0.8l-4,10.5c-0.3,0.6-0.1,0.8,0.6,0.8h3.4
				c0.6,0,0.9,0.3,0.9,0.9c0,0.6-0.3,0.8-0.9,0.8h-10.8c-0.6,0-0.8-0.3-0.8-0.8c0-0.6,0.3-0.9,0.8-0.9h3.7c0.5,0,0.8-0.3,1.1-0.8
				l14.2-36.8c0.1-0.3,0.2-0.5,0.5-0.6c0.2-0.2,0.5-0.2,0.8-0.2c0.3,0,0.5,0.1,0.8,0.2c0.2,0.2,0.4,0.4,0.5,0.6l14.2,36.8
				c0.3,0.6,0.6,0.8,1.1,0.8h3.7c0.6,0,0.9,0.3,0.9,0.9c0,0.6-0.3,0.8-0.9,0.8H335c-0.6,0-0.8-0.3-0.8-0.8c0-0.6,0.3-0.9,0.8-0.9
				h3.4c0.6,0,0.8-0.3,0.6-0.8L335,748.8z M325.9,725.3c-0.1-0.2-0.2-0.3-0.3-0.3s-0.3,0.1-0.3,0.3l-7.8,20.2
				c-0.3,0.6-0.1,0.8,0.6,0.8h15c0.7,0,0.9-0.3,0.6-0.8L325.9,725.3z M318.5,718.7c0-1.6,0.4-2.9,1.1-3.8c0.7-0.9,1.7-1.3,2.9-1.3
				c0.8,0,1.5,0.2,2.2,0.7c0.6,0.4,1.1,0.9,1.4,1.5c0.3,0.5,0.7,1,1.2,1.5c0.5,0.4,1,0.7,1.6,0.7c1.5,0,2.3-1.1,2.3-3.4
				c0-0.6,0.3-0.8,0.8-0.8c0.6,0,0.9,0.3,0.9,0.8c0,1.7-0.4,2.9-1.1,3.8c-0.7,0.9-1.7,1.3-2.9,1.3c-0.8,0-1.6-0.2-2.2-0.7
				c-0.6-0.4-1.1-0.9-1.4-1.5c-0.3-0.5-0.7-1-1.2-1.5c-0.5-0.4-1-0.7-1.6-0.7c-1.5,0-2.3,1.1-2.3,3.4c0,0.6-0.3,0.9-0.9,0.9
				C318.8,719.5,318.5,719.3,318.5,718.7z"/>
			<path class="st35" d="M356,756.6c-3.5-3.8-5.2-8.7-5.2-14.6c0-5.9,1.7-10.8,5.2-14.6c3.5-3.8,8.1-5.8,13.8-5.8
				c5.7,0,10.3,1.9,13.8,5.8c3.5,3.8,5.2,8.7,5.2,14.6c0,5.9-1.7,10.8-5.2,14.6c-3.5,3.8-8.1,5.8-13.8,5.8
				C364,762.4,359.4,760.5,356,756.6z M357.2,728.5c-3.2,3.5-4.8,8-4.8,13.4c0,5.4,1.6,9.9,4.8,13.4c3.2,3.5,7.3,5.3,12.5,5.3
				c5.2,0,9.3-1.8,12.5-5.3c3.2-3.5,4.8-8,4.8-13.4c0-5.4-1.6-9.9-4.8-13.4c-3.2-3.5-7.3-5.3-12.5-5.3
				C364.5,723.3,360.4,725,357.2,728.5z"/>
			<path class="st35" d="M416.1,761c0-0.6,0.3-0.9,0.8-0.9h4c0.6,0,0.9-0.3,0.9-0.8v-34.6c0-0.6-0.3-0.9-0.9-0.9h-4
				c-0.6,0-0.8-0.3-0.8-0.8s0.3-0.8,0.8-0.8h15.9c5.7,0,10.3,1.9,13.8,5.7c3.5,3.8,5.2,8.5,5.2,14.2c0,5.7-1.7,10.4-5.2,14.2
				c-3.5,3.8-8.1,5.7-13.8,5.7H417C416.4,761.8,416.1,761.5,416.1,761z M423.5,759.3c0,0.6,0.3,0.8,0.9,0.8h8.5
				c5.1,0,9.3-1.7,12.5-5.2c3.2-3.4,4.8-7.8,4.8-13c0-5.2-1.6-9.5-4.8-13c-3.2-3.4-7.4-5.2-12.5-5.2h-8.5c-0.6,0-0.9,0.3-0.9,0.9
				V759.3z"/>
			<path class="st35" d="M459.9,761c0-0.6,0.3-0.9,0.8-0.9h4c0.6,0,0.9-0.3,0.9-0.8v-34.6c0-0.6-0.3-0.9-0.9-0.9h-4
				c-0.6,0-0.8-0.3-0.8-0.8s0.3-0.8,0.8-0.8h26.9c0.6,0,0.9,0.3,0.9,0.8v7.9c0,0.6-0.3,0.8-0.9,0.8c-0.6,0-0.8-0.3-0.8-0.8v-6.2
				c0-0.6-0.3-0.9-0.8-0.9h-17.8c-0.6,0-0.9,0.3-0.9,0.9V740c0,0.6,0.3,0.9,0.9,0.9h12.7c0.6,0,0.9-0.3,0.9-0.9v-2.8
				c0-0.6,0.3-0.8,0.8-0.8c0.6,0,0.8,0.3,0.8,0.8v9.1c0,0.6-0.3,0.9-0.8,0.9c-0.6,0-0.8-0.3-0.8-0.9v-2.8c0-0.6-0.3-0.8-0.9-0.8
				h-12.7c-0.6,0-0.9,0.3-0.9,0.8v15.9c0,0.6,0.3,0.8,0.9,0.8h18.4c0.6,0,0.8-0.3,0.8-0.8V753c0-0.6,0.3-0.9,0.9-0.9
				c0.6,0,0.8,0.3,0.8,0.9v7.9c0,0.6-0.3,0.8-0.8,0.8h-27.5C460.2,761.8,459.9,761.5,459.9,761z"/>
			<path class="st35" d="M523.6,759.3c0,0.6,0.3,0.8,0.9,0.8h3.4c0.6,0,0.8,0.3,0.8,0.9c0,0.6-0.3,0.8-0.8,0.8H517
				c-0.6,0-0.8-0.3-0.8-0.8c0-0.6,0.3-0.9,0.8-0.9h4c0.6,0,0.9-0.3,0.9-0.8v-34.6c0-0.6-0.3-0.9-0.9-0.9h-4c-0.6,0-0.8-0.3-0.8-0.8
				s0.3-0.8,0.8-0.8h19c3.7,0,6.5,0.9,8.4,2.8c1.9,1.9,2.9,4.5,2.9,7.9s-1,6-2.9,7.9c-1.9,1.9-4.8,2.8-8.4,2.8h-0.3
				c-0.3,0-0.5,0.1-0.7,0.3c-0.1,0.2-0.1,0.4,0.1,0.6l10.8,14.7c0.5,0.6,1,0.8,1.4,0.8h3.7c0.6,0,0.8,0.3,0.8,0.9
				c0,0.6-0.3,0.8-0.8,0.8h-11.3c-0.6,0-0.8-0.3-0.8-0.8c0-0.6,0.3-0.9,0.8-0.9h3.7c0.7,0,0.8-0.3,0.3-0.8l-11.3-15.6h-7.9
				c-0.6,0-0.9,0.3-0.9,0.9V759.3z M536,742c3.1,0,5.5-0.8,7.1-2.4c1.7-1.6,2.5-3.8,2.5-6.7s-0.8-5.1-2.5-6.7
				c-1.7-1.6-4-2.4-7.1-2.4h-11.6c-0.6,0-0.9,0.3-0.9,0.9v16.4c0,0.6,0.3,0.8,0.9,0.8H536z"/>
			<path class="st35" d="M558,761c0-0.6,0.3-0.9,0.8-0.9h4c0.6,0,0.9-0.3,0.9-0.8v-34.6c0-0.6-0.3-0.9-0.9-0.9h-4
				c-0.6,0-0.8-0.3-0.8-0.8s0.3-0.8,0.8-0.8h26.9c0.6,0,0.9,0.3,0.9,0.8v7.9c0,0.6-0.3,0.8-0.9,0.8c-0.6,0-0.8-0.3-0.8-0.8v-6.2
				c0-0.6-0.3-0.9-0.8-0.9h-17.8c-0.6,0-0.9,0.3-0.9,0.9V740c0,0.6,0.3,0.9,0.9,0.9H579c0.6,0,0.9-0.3,0.9-0.9v-2.8
				c0-0.6,0.3-0.8,0.8-0.8s0.8,0.3,0.8,0.8v9.1c0,0.6-0.3,0.9-0.8,0.9s-0.8-0.3-0.8-0.9v-2.8c0-0.6-0.3-0.8-0.9-0.8h-12.7
				c-0.6,0-0.9,0.3-0.9,0.8v15.9c0,0.6,0.3,0.8,0.9,0.8h18.4c0.6,0,0.8-0.3,0.8-0.8V753c0-0.6,0.3-0.9,0.9-0.9
				c0.6,0,0.8,0.3,0.8,0.9v7.9c0,0.6-0.3,0.8-0.8,0.8h-27.5C558.3,761.8,558,761.5,558,761z"/>
			<path class="st35" d="M596,742c0-5.9,1.7-10.7,5-14.6c3.3-3.9,7.6-5.8,12.9-5.8c4.6,0,8.7,1.6,12.4,4.8c0.6,0.5,0.9,0.3,0.9-0.6
				V723c0-0.6,0.3-0.8,0.8-0.8s0.8,0.3,0.8,0.8v10.8c0,0.6-0.3,0.9-0.8,0.9s-0.8-0.3-0.8-0.9v-4c-1-1.2-2.2-2.2-3.6-3.2
				c-3.1-2.2-6.3-3.3-9.7-3.3c-4.6,0-8.5,1.8-11.6,5.3c-3.1,3.6-4.6,8-4.6,13.4c0,5.4,1.6,9.9,4.8,13.4c3.2,3.5,7.3,5.3,12.5,5.3
				c2.6,0,5-0.4,7.2-1.3c2.2-0.9,4.1-2.2,5.8-3.9c0.4-0.4,0.8-0.4,1.2,0c0.4,0.4,0.4,0.8,0,1.2c-1.8,1.8-3.9,3.2-6.1,4.2
				c-2.3,1-5,1.5-8,1.5c-5.7,0-10.3-1.9-13.8-5.7C597.8,752.8,596,747.9,596,742z"/>
			<path class="st35" d="M637.4,722.1h10.8c0.6,0,0.9,0.3,0.9,0.8s-0.3,0.8-0.9,0.8h-3.4c-0.6,0-0.9,0.3-0.9,0.9v22.9
				c0,3.9,1.2,7.1,3.7,9.5c2.5,2.4,5.6,3.6,9.3,3.6c3.8,0,6.9-1.2,9.3-3.6c2.5-2.4,3.7-5.5,3.7-9.5v-22.9c0-0.6-0.3-0.9-0.9-0.9
				h-3.4c-0.6,0-0.9-0.3-0.9-0.8s0.3-0.8,0.9-0.8h10.8c0.6,0,0.8,0.3,0.8,0.8s-0.3,0.8-0.8,0.8h-4c-0.6,0-0.8,0.3-0.8,0.9v22.9
				c0,4.3-1.4,7.9-4.2,10.6c-2.8,2.7-6.3,4.1-10.6,4.1c-4.3,0-7.8-1.4-10.6-4.1c-2.8-2.7-4.2-6.3-4.2-10.6v-22.9
				c0-0.6-0.3-0.9-0.8-0.9h-4c-0.6,0-0.8-0.3-0.8-0.8S636.8,722.1,637.4,722.1z"/>
			<path class="st35" d="M691.7,759.3c0,0.6,0.3,0.8,0.9,0.8h3.4c0.6,0,0.8,0.3,0.8,0.9c0,0.6-0.3,0.8-0.8,0.8h-10.8
				c-0.6,0-0.8-0.3-0.8-0.8c0-0.6,0.3-0.9,0.8-0.9h4c0.6,0,0.9-0.3,0.9-0.8v-34.6c0-0.6-0.3-0.9-0.9-0.9h-4c-0.6,0-0.8-0.3-0.8-0.8
				s0.3-0.8,0.8-0.8h19c3.7,0,6.5,0.9,8.4,2.8c1.9,1.9,2.9,4.5,2.9,7.9s-1,6-2.9,7.9c-1.9,1.9-4.8,2.8-8.4,2.8h-0.3
				c-0.3,0-0.5,0.1-0.7,0.3c-0.1,0.2-0.1,0.4,0.1,0.6l10.8,14.7c0.5,0.6,1,0.8,1.4,0.8h3.7c0.6,0,0.8,0.3,0.8,0.9
				c0,0.6-0.3,0.8-0.8,0.8h-11.3c-0.6,0-0.8-0.3-0.8-0.8c0-0.6,0.3-0.9,0.8-0.9h3.7c0.7,0,0.8-0.3,0.3-0.8l-11.3-15.6h-7.9
				c-0.6,0-0.9,0.3-0.9,0.9V759.3z M704.2,742c3.1,0,5.5-0.8,7.1-2.4c1.7-1.6,2.5-3.8,2.5-6.7s-0.8-5.1-2.5-6.7
				c-1.7-1.6-4-2.4-7.1-2.4h-11.6c-0.6,0-0.9,0.3-0.9,0.9v16.4c0,0.6,0.3,0.8,0.9,0.8H704.2z"/>
			<path class="st35" d="M742.7,760.7c2,0,3.8-0.2,5.4-0.7s2.8-1.1,3.8-1.9c1-0.8,1.8-1.8,2.3-2.9s0.7-2.3,0.7-3.6
				c0-1.5-0.5-2.8-1.4-3.9c-0.9-1.1-2.1-2-3.5-2.6c-1.2-0.6-2.6-1.1-4.2-1.5c-1.5-0.4-3.1-0.9-4.7-1.3c-1.6-0.4-3.1-0.9-4.7-1.4
				c-1.5-0.5-2.9-1-4.2-1.7c-1.5-0.8-2.8-1.8-3.7-3c-0.9-1.2-1.4-2.9-1.4-4.8c0-1.3,0.2-2.5,0.7-3.7c0.5-1.2,1.2-2.2,2.2-3.2
				c1-0.9,2.4-1.7,4-2.2c1.7-0.5,3.7-0.8,6.1-0.8c1.5,0,2.9,0.2,4.2,0.5c1.3,0.3,2.5,0.8,3.5,1.2c1.1,0.5,2,1,2.8,1.6
				c0.8,0.6,1.4,1.1,1.9,1.5c0.4,0.3,0.6,0.4,0.7,0.2c0.1-0.2,0.2-0.4,0.2-0.7V723c0-0.6,0.3-0.8,0.8-0.8c0.6,0,0.9,0.3,0.9,0.8
				v10.8c0,0.6-0.3,0.9-0.9,0.9c-0.6,0-0.8-0.3-0.8-0.9v-4c-1-1.2-2.2-2.2-3.6-3.2c-1.2-0.8-2.6-1.6-4.2-2.3c-1.6-0.7-3.5-1-5.5-1
				c-2,0-3.8,0.2-5.2,0.7c-1.4,0.5-2.6,1.1-3.5,1.8s-1.6,1.7-2,2.6c-0.4,1-0.6,2-0.6,3.1c0,1.5,0.5,2.8,1.4,3.9
				c0.9,1.1,2.1,2,3.5,2.6c1.2,0.6,2.6,1.1,4.2,1.5c1.5,0.4,3.1,0.9,4.7,1.3c1.6,0.4,3.1,0.9,4.7,1.4c1.5,0.5,2.9,1,4.2,1.7
				c1.5,0.8,2.8,1.8,3.7,3c0.9,1.2,1.4,2.9,1.4,4.8c0,1.5-0.3,3-0.9,4.3c-0.6,1.3-1.5,2.5-2.6,3.4c-1.2,1-2.6,1.7-4.3,2.2
				c-1.7,0.5-3.7,0.8-6,0.8c-1.6,0-3.1-0.2-4.5-0.5c-1.4-0.3-2.6-0.8-3.7-1.3c-1.1-0.5-2-1-2.8-1.6c-0.8-0.5-1.4-1-1.9-1.4
				c-0.4-0.3-0.6-0.4-0.7-0.2c-0.1,0.2-0.2,0.4-0.2,0.7v2.8c0,0.6-0.3,0.8-0.9,0.8c-0.6,0-0.8-0.3-0.8-0.8v-10.8
				c0-0.6,0.3-0.8,0.8-0.8c0.6,0,0.9,0.3,0.9,0.8v4.2c1,1.2,2.2,2.2,3.6,3.1c1.2,0.8,2.7,1.5,4.4,2.2
				C738.5,760.4,740.4,760.7,742.7,760.7z"/>
			<path class="st35" d="M771,756.6c-3.5-3.8-5.2-8.7-5.2-14.6c0-5.9,1.7-10.8,5.2-14.6c3.5-3.8,8.1-5.8,13.8-5.8
				c5.7,0,10.3,1.9,13.8,5.8s5.2,8.7,5.2,14.6c0,5.9-1.7,10.8-5.2,14.6c-3.5,3.8-8.1,5.8-13.8,5.8
				C779.1,762.4,774.5,760.5,771,756.6z M772.3,728.5c-3.2,3.5-4.8,8-4.8,13.4c0,5.4,1.6,9.9,4.8,13.4c3.2,3.5,7.3,5.3,12.5,5.3
				c5.2,0,9.3-1.8,12.5-5.3c3.2-3.5,4.8-8,4.8-13.4c0-5.4-1.6-9.9-4.8-13.4c-3.2-3.5-7.3-5.3-12.5-5.3
				C779.6,723.3,775.4,725,772.3,728.5z"/>
			<path class="st35" d="M829.4,760.7c2,0,3.8-0.2,5.4-0.7c1.5-0.5,2.8-1.1,3.8-1.9c1-0.8,1.8-1.8,2.3-2.9c0.5-1.1,0.7-2.3,0.7-3.6
				c0-1.5-0.5-2.8-1.4-3.9c-0.9-1.1-2.1-2-3.5-2.6c-1.2-0.6-2.6-1.1-4.2-1.5c-1.5-0.4-3.1-0.9-4.7-1.3c-1.6-0.4-3.1-0.9-4.7-1.4
				c-1.5-0.5-2.9-1-4.2-1.7c-1.5-0.8-2.8-1.8-3.7-3c-0.9-1.2-1.4-2.9-1.4-4.8c0-1.3,0.2-2.5,0.7-3.7c0.5-1.2,1.2-2.2,2.2-3.2
				c1-0.9,2.4-1.7,4-2.2c1.7-0.5,3.7-0.8,6.1-0.8c1.5,0,2.9,0.2,4.2,0.5c1.3,0.3,2.5,0.8,3.5,1.2c1.1,0.5,2,1,2.8,1.6
				c0.8,0.6,1.4,1.1,1.9,1.5c0.4,0.3,0.6,0.4,0.7,0.2c0.1-0.2,0.2-0.4,0.2-0.7V723c0-0.6,0.3-0.8,0.8-0.8s0.9,0.3,0.9,0.8v10.8
				c0,0.6-0.3,0.9-0.9,0.9s-0.8-0.3-0.8-0.9v-4c-1-1.2-2.2-2.2-3.6-3.2c-1.2-0.8-2.6-1.6-4.2-2.3c-1.6-0.7-3.5-1-5.5-1
				c-2,0-3.8,0.2-5.2,0.7c-1.4,0.5-2.6,1.1-3.5,1.8s-1.6,1.7-2,2.6c-0.4,1-0.6,2-0.6,3.1c0,1.5,0.5,2.8,1.4,3.9
				c0.9,1.1,2.1,2,3.5,2.6c1.2,0.6,2.6,1.1,4.2,1.5c1.5,0.4,3.1,0.9,4.7,1.3c1.6,0.4,3.1,0.9,4.7,1.4c1.5,0.5,2.9,1,4.2,1.7
				c1.5,0.8,2.8,1.8,3.7,3c0.9,1.2,1.4,2.9,1.4,4.8c0,1.5-0.3,3-0.9,4.3c-0.6,1.3-1.5,2.5-2.6,3.4c-1.2,1-2.6,1.7-4.3,2.2
				c-1.7,0.5-3.7,0.8-6,0.8c-1.6,0-3.1-0.2-4.5-0.5c-1.4-0.3-2.6-0.8-3.7-1.3c-1.1-0.5-2-1-2.8-1.6c-0.8-0.5-1.4-1-1.9-1.4
				c-0.4-0.3-0.6-0.4-0.7-0.2c-0.1,0.2-0.2,0.4-0.2,0.7v2.8c0,0.6-0.3,0.8-0.9,0.8c-0.6,0-0.8-0.3-0.8-0.8v-10.8
				c0-0.6,0.3-0.8,0.8-0.8c0.6,0,0.9,0.3,0.9,0.8v4.2c1,1.2,2.2,2.2,3.6,3.1c1.2,0.8,2.7,1.5,4.4,2.2
				C825.2,760.4,827.2,760.7,829.4,760.7z"/>
		</g>
	</g>
</g>
</svg>
