<?xml version="1.0" encoding="utf-8"?>
<!-- Generator: Adobe Illustrator 21.0.0, SVG Export Plug-In . SVG Version: 6.00 Build 0)  -->
<svg version="1.1" id="Layer_1" xmlns="http://www.w3.org/2000/svg" xmlns:xlink="http://www.w3.org/1999/xlink" x="0px" y="0px"
	 viewBox="0 0 346.3 122.7" style="enable-background:new 0 0 346.3 122.7;" xml:space="preserve">
<style type="text/css">
	.st0{fill:#FFFFFF;}
</style>
<g>
	<path class="st0" d="M77.9,68.5c-7.1,2.2-12,2.6-15.3,2c4.1,23,23.1,42.8,46.4,38.4c1,7.9-18.1,25.8-37.4,1
		C57.3,91.8,56.7,68.4,57.1,67.6c-1.7-2.3-1.4-5.4-0.8-7.1c15,1.4,67.8-21.6,58.5-42.4C110.4,8.4,88,7,67.4,13
		C52.2,17.4,38.3,27.3,31,32.7C13.5,45.7,10.2,61.8,14,64.9c6.3,5.3,17.6-4.7,17.6-4.7s4,2.9,1.4,6.7c-4.7,7.1-19.2,8-27.8-1.6
		C-9.1,49.4,7.6,24.2,35.2,10.9C63.6-2.7,110-6.4,120,16.7C128.7,36.4,99.8,61.8,77.9,68.5z M32.8,102.4c-6-29.3,21.2-76.7,27-81.1
		c0,0,9.6-6,8.6-3.8C58.8,40.2,50,65.8,49.2,95.9c-0.4,14.6,3.2,15.1,2.8,15.3C45.9,114.5,35.2,114.4,32.8,102.4z"/>
	<path class="st0" d="M343.9,62.4c-0.6,1.9-8.7,11.7-16.9,8.4c0.6-10.4-6-30.9-19.9-29.9c-6.6,0.5-10.4,5.4-7.5,13.3
		c-13.5-0.9-20.3,6.2-23.5,13.6c-6.6,10.5-13.8,18-20.9,22.7c-4.1,2.8-0.2-9.3,5.4-24.4c5.2-9.9-3.8-18.6-5.4-20
		c-0.1-0.2-0.4-0.5-0.7-0.8c-3.7-2.6-6.8-9.5-19.6,8.1c-11.6,15.9-18.1,29-17.8,28c1.1-5,14.4-23.5-9.3-30.7
		c-7.7-2.3-23,29.9-30.3,39.3c0.1-4.6,5-12,8.7-21.9c3-6.3-2.8-10.2-7.5-12c-2.8-0.8-4.7-0.1-5.9,1.6c-0.8,2.2-1.6,4.4-2.4,6.7
		c-6.2,11.1-20.8,28.5-35.6,29c-9,0.4-10.2-11.5-7.2-21.4c4.1-13.5,10.3-18.9,15.3-19.6c5.7-0.8-1,22.9-6.6,26.6
		c-2,1.3-4.9,2.6-6.7,1.1c-2.9,3.7,2.8,7.9,10.7,5c12-4.6,19.4-27.5,8.9-36.4c-1.6-1.4-3.8-2.3-6.9-2.4
		C129,45.5,112.6,56.3,111,77.8c-1.1,14.6,8.6,20.8,21.9,21.4c11.9,0.6,24.3-7.9,32.8-18.2c-0.9,6.2-0.2,11.6,3.8,15
		c1.1,0.8,2,1.6,3.2,2.2c0,0,0.1,0.1,0.2,0.1l0.7,0.2v-0.1c5.9,1.1,8.9-5,8.9-5c7.4-10.4,21.9-36.9,24.9-34.5
		c2.2,1.8-4.2,14.9-6.5,30.5c-1.8,12.5,11.5,10.8,11.5,10.8s9.1-15.5,23.5-35.7c7.8-10.9,10.5-14.1,11.9-13.8
		c-4.2,12.8-20.7,45.2,1.2,47.8c9,1.1,17.9-7.2,25-16.8c2,14.9,16.2,17.5,25.6,17.5c11.1,0,24.1-13.1,26-23.5
		c9.5,2.6,20.5-4.4,20.5-11.4C346.3,62.9,344.2,61.2,343.9,62.4z M299,92.4c-6.1,1.1-8.6-6.5-8.6-12.2c0-8.4,3.8-18.6,11.3-20.6
		c0.6,3.2,4.4,9.7,11.4,12.8C311.1,80.3,307.8,90.8,299,92.4z M313.9,66.7c-6.8-3.4-9.1-8.9-9.1-17c0-2.2,0.6-3.5,2.8-3.5
		c6.3,0,6.6,11.5,6.6,16.8C314.2,64.2,314.1,65.5,313.9,66.7z"/>
</g>
</svg>
